<svg xmlns="http://www.w3.org/2000/svg" width="524" height="546" viewBox="0 0 524 546"><g fill="none"><path fill="#FFF" d="M523.038 261.439c0-35.23-6.905-69.42-20.524-101.617-13.149-31.088-31.968-59.002-55.934-82.969-23.967-23.967-51.882-42.787-82.969-55.936C331.412 7.3 297.223.394 261.993.394c-35.23 0-69.419 6.906-101.618 20.523-31.087 13.148-59.001 31.969-82.969 55.936-23.966 23.967-42.785 51.881-55.934 82.969C7.853 192.019.948 226.209.948 261.439c0 35.23 6.905 69.42 20.524 101.617a259.93 259.93 0 0 0 42.38 68.35c-5.943 20.434-10.337 35.559-10.337 35.559l-5.539 19.068 19.457-3.963c.243-.049 16.692-3.398 29.719-5.984v69.799l14.237-2.701c.694-.133 70.464-13.174 150.834-13.174 80.491 0 150.141 13.035 150.835 13.168l14.236 2.699v-69.791a7188.556 7188.556 0 0 1 29.719 5.986l19.458 3.963-5.539-19.07S466.48 451.639 460.476 431a260.014 260.014 0 0 0 42.038-67.941c13.619-32.2 20.524-66.389 20.524-101.62z"/><path fill="#002652" d="M511.038 261.439c0-33.615-6.586-66.232-19.576-96.943-12.544-29.656-30.5-56.289-53.367-79.158-22.868-22.867-49.5-40.822-79.158-53.367-30.711-12.99-63.328-19.576-96.943-19.576-33.615 0-66.232 6.586-96.943 19.576-29.658 12.545-56.29 30.5-79.158 53.367-22.868 22.869-40.823 49.502-53.367 79.158-12.99 30.711-19.576 63.328-19.576 96.943 0 33.615 6.586 66.232 19.576 96.943a247.798 247.798 0 0 0 44.694 70.037c-6.855 23.562-12.18 41.893-12.18 41.893s35.898-7.311 44.113-8.77v69.85s70.521-13.383 153.071-13.383 153.071 13.377 153.071 13.377v-69.844c8.215 1.459 44.114 8.77 44.114 8.77s-5.384-18.535-12.294-42.283c18.609-20.639 33.504-44.01 44.348-69.646 12.989-30.711 19.575-63.328 19.575-96.944z"/><g fill="#009EE3"><path d="M347.546 156.857c-13.913-6.531-28.841-12.498-44.743-17.836a473.217 473.217 0 0 0-17.578-5.512c.082 4.361.059 8.447-.062 12.039a467.91 467.91 0 0 1 13.962 4.434 441.457 441.457 0 0 1 17.638 6.34c4.674.115 9.466.188 14.643.25 5.343.065 10.692.153 16.14.285zm-173.133 26.975c-17.812 7.939-35.114 20.336-50.994 36.891-24.896 25.955-42.134 56.51-49.848 88.359-3.887 16.049-4.601 31.432-2.941 45.941a213.818 213.818 0 0 1-4.944-10.811c-11.106-26.258-16.737-54.156-16.737-82.924 0-12.729 1.112-25.283 3.307-37.605a168.958 168.958 0 0 0-15.307 37.605c0 52.924 18.278 101.572 48.852 140 1.389-4.762 2.779-9.525 4.172-14.291a210.19 210.19 0 0 1-3.133-4.383c-13.632-39.043-4.955-101.246 45.244-153.582 16.833-17.547 35.277-30.031 54.064-37.016a342.475 342.475 0 0 0-11.735-8.184z"/><path d="M101.55 121.139a215.505 215.505 0 0 1 9.797-10.494c19.569-19.57 42.354-34.934 67.722-45.662a212.654 212.654 0 0 1 13.671-5.225c16.375 3.355 29.358 10.088 42.954 17.145 11.561 6 23.488 12.174 38.1 16.676.466-.984.853-1.895 1.249-2.828.636-1.498 1.293-3.047 2.278-4.863.629-1.162 1.507-2.191 2.527-3.035-14.75-4.24-26.864-10.553-38.621-16.605-9.455-4.869-18.201-9.098-28.668-12.236 16.079-3.822 32.606-5.766 49.434-5.766 15.168 0 30.093 1.582 44.666 4.691-8.239 6.873-16.116 16.139-23.837 28.182 1.029-.395 2.096-.635 3.149-.635.747 0 1.751.197 2.433.416 2.767.891 4.589 2.75 5.488 5.285 8.633-13.615 17.31-23.484 26.188-29.936a212.029 212.029 0 0 1 24.838 8.734 211.873 211.873 0 0 1 51.871 31.312c-16.229-3.197-31.287-3.996-48.257-4.771-17.805-.814-36.112-1.66-54.63-5.312.657 1.869.816 4.104.47 6.596-1.286.926-2.852 2.645-4.319 4.873 19.875 4.084 39.175 4.98 57.931 5.838 22.343 1.021 43.594 2.002 65.463 7.951 19.182 19.387 34.276 41.883 44.856 66.898 11.106 26.258 16.737 54.156 16.737 82.922 0 5.139-.188 10.246-.551 15.322 1.396 17.557 2.24 40.646-1.121 62.047 8.837-24.127 13.671-50.182 13.671-77.369 0-124.287-100.756-225.045-225.045-225.045-26.379 0-51.691 4.555-75.212 12.893-.155-.014-.306-.031-.461-.045l-.149.262C118.206 73.673 65.345 129.75 45.482 199.709c12.777-33.047 32.044-59.246 56.068-78.57z"/><path d="M202 121.229a790.243 790.243 0 0 0 14.801 9.764c7.417.865 15.001 2.01 22.73 3.426 2.614-3.691 5.077-6.869 7.927-10.172-17.33-3.402-34.121-5.479-50.192-6.207 1.585 1.065 3.162 2.13 4.734 3.189zm11.167 174.875c-1.364-.201-2.677-.725-3.933-1.482a921.804 921.804 0 0 0-4.994 27.709c4.095-.264 8.188-.506 12.265-.713a921.806 921.806 0 0 1 4.735-25.9c-2.73.589-5.457.772-8.073.386zm241 57.226a212.028 212.028 0 0 1-20.151 33.676c1.392 4.762 2.782 9.523 4.17 14.283a225.8 225.8 0 0 0 17.421-25.26c.151-6.851-.354-14.531-1.44-22.699zM316.119 225.896a293.464 293.464 0 0 0-11.852-.244c-1.285 0-2.559.01-3.833.02 9.284 10.842 18.808 24.893 27.947 43.17 13.54 27.078 23.388 57.896 28.382 88.324 2.271-7.336 4.545-14.676 6.823-22.02l.593-1.91c-5.636-23.836-14.052-47.75-25.059-69.764-7.124-14.245-14.776-26.757-23.001-37.576z"/></g><path fill="#FFF" d="M480.405 169.018c-11.939-28.229-29.029-53.578-50.795-75.344-21.766-21.766-47.115-38.855-75.344-50.795-29.232-12.365-60.277-18.635-92.272-18.635-31.995 0-63.041 6.27-92.272 18.635-28.229 11.939-53.578 29.029-75.344 50.795-21.766 21.766-38.856 47.115-50.795 75.344-12.364 29.232-18.633 60.277-18.633 92.271 0 31.996 6.269 63.041 18.633 92.273a235.785 235.785 0 0 0 38.164 61.68l4.062-13.947c-30.578-38.428-48.86-87.078-48.86-140.006l.001-.086c.06-.367.125-.746.2-1.148 11.237-60.537 55.621-103.033 86.52-110.795 37.048 18.291 62.978 34.143 90.096 58.309-1.667 14.863-1.959 24.258-2.079 37.848-5.143 7.637-9.124 14.998-12.079 22.887.607 6.936 5.695 15.035 12.151 18.945 2.843-8.723 6.909-18.184 6.909-18.184.131.043-2.232 19.578-2.232 19.578 5.323-.006 14.194-2.176 20.249-8.016.416-10.459.456-16.428 1.559-26.084 6.564-11.857 12.605-21.646 21.799-32.484 47.685-3.301 92.7-2.035 142.891 5.922 33.023 25.117 59.753 79.516 53.065 147.396a225.587 225.587 0 0 1-17.808 25.891l4.08 13.939a235.788 235.788 0 0 0 38.135-61.645c12.364-29.232 18.633-60.277 18.633-92.273-.001-31.994-6.27-63.039-18.634-92.271zm-8.659 173.957c7.945-84.35-21.808-145.502-57.599-176.211-1.582-1.359-3.826-1.721-5.219-1.9-47.665-6.121-94.177-.26-138.729-6.643l1.46-.023c.763-.047 8.383-1.193 8.664-2.807.806-4.732 1.047-13.82.837-22.955-.143-6.533.07-14.594-1.377-17.84.47-4.246 1.862-8.422 3.689-13.008 1.646-4.133 4.738-10.25 6.913-11.322.048-2.09-.551-4.695-3.462-5.604-1.976-.615-4.831.902-6.048 3.15-2.077 3.832-2.552 6.357-5.446 11.316-1.532 2.633-4.057 5.74-7.566 9.426 0 0 4.466.49 5.302 1.787-2.026-.336-3.898-.879-8.115-.027-5.602 1.133-10.812 9.031-13.216 15.07-6.036 6.795-10.016 12.527-16.973 23.293-34.386-19.686-50.618-36.346-79.011-49.545-1.827-.85-3.727-1.408-5.801-.818-37.614 10.674-81.871 51.113-104.629 101.607C72.133 105.46 158.979 36.243 261.993 36.243c124.289 0 225.045 100.758 225.045 225.045 0 28.817-5.424 56.362-15.292 81.687zM273.75 127.32c.849-3.793 1.649-6.859 2.024-9.398 1.029.592 1.352 1.932 1.608 2.695.272.752-1.021 10.09-1.021 10.09s-2.702-1.545-2.611-3.387z"/><path fill="#FFD100" d="M302.699 490.551c6.107.277 12.213.619 18.315 1.023v16.252a887.86 887.86 0 0 0-36.681-1.672v-59.135c6.123.152 12.246.367 18.366.646v42.886zm83.917-35.053a890.984 890.984 0 0 1 16.679 2.52v59.135a897.392 897.392 0 0 0-16.357-2.475 6810.925 6810.925 0 0 0-17.686-32.594v30.268a871.177 871.177 0 0 0-16.49-1.846v-59.135a896.318 896.318 0 0 1 16.408 1.834 7089.053 7089.053 0 0 1 17.447 32.303l-.001-30.01zm-59.804-6.402c6.111.445 12.218.953 18.32 1.525v59.137a885.47 885.47 0 0 0-18.32-1.527v-59.135zm-150.909 1.834a887.127 887.127 0 0 1 42.918-3.143v13.621a890.25 890.25 0 0 0-25.12 1.586v8.621a888.805 888.805 0 0 1 21.63-1.408v13.188c-7.214.383-14.425.852-21.63 1.408v9.568a886.521 886.521 0 0 1 25.12-1.586v14.137a885.765 885.765 0 0 0-42.918 3.143V450.93zm91.814 29.554c7.019-3.178 10.485-7.803 10.485-15.654 0-12.457-9.729-18.178-22.616-18.08a891.408 891.408 0 0 0-30.235.74v59.135a908.276 908.276 0 0 1 18.451-.574v-22.166a989.99 989.99 0 0 1 5.719-.102c2.888 7.35 5.776 14.711 8.665 22.086 6.759-.031 13.518.016 20.276.139-3.582-8.529-7.164-17.037-10.745-25.524zm-16.489-9.152c-2.476.031-4.952.072-7.426.123v-11.809c2.674-.055 5.348-.1 8.022-.131 5.041-.057 7.402 2.115 7.401 5.775 0 5.146-4.012 5.991-7.997 6.042zm-91.573 9.682c5.59-2.047 9.198-7.834 9.198-14.08.001-9.668-6.496-14.637-19.374-13.006a890.609 890.609 0 0 0-28.326 4.09v59.141a884.237 884.237 0 0 1 30.502-4.365c12.381-1.539 18.683-10.141 18.682-18.756-.001-6.411-3.479-12.024-10.682-13.024zM137.7 468.248c2.696-.381 5.394-.752 8.093-1.107 4.354-.574 6.506 1.053 6.505 4.092.001 3.412-2.18 5.238-6.508 5.809a958.19 958.19 0 0 0-8.09 1.107v-9.901zm9.252 31.729c-3.085.404-6.169.824-9.252 1.26v-10.398c2.985-.422 5.972-.83 8.959-1.223 4.415-.576 6.448 1.158 6.448 4.26.001 3.509-2.012 5.562-6.155 6.101zm103.896-90.082a889.88 889.88 0 0 0-32.827 1.027v-77.643a888.64 888.64 0 0 0-32.763 2.24v103.764a889.327 889.327 0 0 1 65.59-3.27v-26.118zm75.047-25.514c9.837-1.742 16.214-10.854 16.215-21.814-.001-16.939-11.394-27.984-34.101-29.207a890.626 890.626 0 0 0-50.074-1.17v103.762a889.389 889.389 0 0 1 53.91 1.377c21.821 1.266 32.868-11.557 32.87-26.695-.002-11.239-6.143-22.114-18.82-26.253zm-38.681-29.512c4.765.135 9.528.307 14.291.518 7.681.346 11.474 3.896 11.473 9.23 0 5.986-3.841 8.484-11.478 8.141a896.056 896.056 0 0 0-14.286-.518v-17.371zm16.338 58.492a890.545 890.545 0 0 0-16.337-.611v-18.244c5.275.148 10.549.344 15.821.586 7.789.365 11.371 4.07 11.371 9.51-.002 6.16-3.547 9.105-10.855 8.759zm-152.349 29.524a887.516 887.516 0 0 1 30.13-3.275 46831.256 46831.256 0 0 0-30.998-100.332 884.477 884.477 0 0 0-36.202 5.357 26512.457 26512.457 0 0 0-32.03 109.74 887.608 887.608 0 0 1 30.516-5.766 36356.95 36356.95 0 0 1 4.81-18.789 887.184 887.184 0 0 1 29.171-4.324l4.603 17.389zm-27.709-36.705c2.95-11.484 5.902-22.953 8.856-34.406a89884.86 89884.86 0 0 1 8.45 31.844 874.584 874.584 0 0 0-17.306 2.562zm254.354 19.316a889.877 889.877 0 0 1 29.171 4.324 36356.95 36356.95 0 0 1 4.81 18.789 885.66 885.66 0 0 1 30.516 5.766 26512.457 26512.457 0 0 0-32.03-109.74 884.734 884.734 0 0 0-36.202-5.357 47406.633 47406.633 0 0 0-30.999 100.332 889.801 889.801 0 0 1 30.13 3.275l4.604-17.389zm5.799-21.879a89884.86 89884.86 0 0 1 8.45-31.844c2.954 11.453 5.906 22.922 8.856 34.406a889.673 889.673 0 0 0-17.306-2.562z"/></g></svg>