<?xml version="1.0" encoding="utf-8"?>
<!DOCTYPE svg PUBLIC "-//W3C//DTD SVG 20010904//EN" "http://www.w3.org/TR/2001/REC-SVG-20010904/DTD/svg10.dtd">
<svg version="1.0" xmlns="http://www.w3.org/2000/svg"  height="120" viewBox="0 0 1000 1018" preserveAspectRatio="xMidYMid meet">
 <g fill="#ffffff">
  <path d="M0 509 l0 -509 500 0 500 0 0 509 0 509 -500 0 -500 0 0 -509z m519 499.8 c-1.3 -3.3 -3 -41.4 -2.1 -47.8 0.5 -3 0.4 -5.6 0 -5.8 -0.5 -0.2 -0.9 -3.8 -0.9 -7.9 0 -7.3 -0.1 -7.5 -2.2 -6.8 -1.3 0.3 -4.3 1.2 -6.8 1.9 -3.9 1.1 -4.2 1.4 -2.3 2 3.2 1 3.6 5.7 3.7 38.3 l0.1 28.3 5.7 0 c5.6 0 5.7 -0.1 4.8 -2.2z m-83.6 -0.9 c1.1 -0.1 -0.9 -0.5 -4.5 -0.9 -12.8 -1.5 -23.4 -8.8 -26.3 -17.9 -1.9 -6.2 -2.8 -15.3 -2 -21.2 0.6 -4.4 0.9 -4.9 3.3 -5 1.9 -0.1 2.1 -0.3 0.7 -0.6 -2.7 -0.7 -1.9 -11.2 1.5 -18.1 1.4 -2.9 2.3 -5.2 1.9 -5.2 -0.3 0 -2.4 1.5 -4.6 3.4 -7.7 6.6 -14.4 25.1 -12.9 35.6 1.5 10.7 8.7 20.5 18.5 25.5 6.3 3.2 15.6 5.6 19.4 5 1.6 -0.3 3.8 -0.6 5 -0.6z m188.1 -10.6 c7.5 -2.3 7.2 -2.8 -1.5 -2.5 -15.1 0.6 -24.2 -4.3 -30 -16.2 -3.7 -7.5 -5 -14.4 -2.9 -15.7 1.1 -0.7 0.9 -0.9 -0.7 -0.9 -2.6 0 -3.4 -3.6 -3.4 -14.9 0 -6.5 -0.2 -7.2 -1.6 -6 -2.3 1.9 -4 5.8 -5.3 12 -2.2 10.5 2.8 26.5 10.9 35.3 9.9 10.7 20.2 13.3 34.5 8.9z m-313.3 -34.1 c-2.1 -0.3 -2.1 -0.5 -1.6 -19 0.9 -32 2 -44.5 3.8 -45.7 1.2 -0.8 0.3 -1.5 -4.6 -3.7 -3.4 -1.6 -6.3 -2.7 -6.4 -2.5 -0.2 0.2 -0.4 17.6 -0.4 38.6 -0.1 29.7 0.1 38.6 1.1 39.2 0.8 0.4 3 -0.7 5.7 -2.9 4 -3.2 4.3 -3.7 2.4 -4z m148.9 3.8 c2.8 -10 -1.6 -22 -10.3 -28.1 l-3.1 -2.3 2.4 3.3 c2.2 3.1 2.4 4.1 2.4 16.2 0 12 0.1 12.9 2 13.2 4 0.9 5.9 0.2 6.6 -2.3z m251 -7.5 c-2 -2.1 -21.1 -39.6 -26.5 -52.1 -1.7 -3.8 -3.4 -7.2 -3.7 -7.5 -0.4 -0.2 -2.6 1.4 -5.1 3.7 l-4.4 4.1 2.9 0.9 c2.3 0.7 3.8 2.6 7.2 8.9 8.9 17.1 20.5 43.1 20.5 46.3 l0 3.2 5.5 -2.7 c5.4 -2.7 5.5 -2.7 3.6 -4.8z m-73.7 -10 c2 -0.8 3.6 -2.1 3.6 -2.8 0 -0.6 -1.2 -3.7 -2.6 -6.7 -4.5 -9.8 -11.9 -15.6 -21.1 -16.5 -4.9 -0.5 -4.9 -0.1 -0.1 0.9 6.7 1.5 13.5 11.5 14.5 21.2 0.3 3 0.9 5.4 1.3 5.4 0.4 0 2.4 -0.7 4.4 -1.5z m-90.8 -11.1 c-0.7 -1.9 -4 -1.8 -7.9 0.2 -3.6 1.8 -7.7 5.3 -7.7 6.6 0 0.4 2.6 0.8 5.8 0.8 3.5 0 6.6 0.6 7.8 1.4 1.8 1.4 1.9 1.2 2.2 -3.1 0.2 -2.5 0.1 -5.2 -0.2 -5.9z m225.4 -10.3 c4.4 -3.5 4.7 -4 2.8 -4.3 -1.5 -0.2 -6.1 -5.2 -14.1 -15.3 -13.3 -16.8 -17.7 -23.7 -17.7 -27.7 0 -2.4 -0.4 -2.8 -2.9 -2.8 -2.3 0 -3.4 -0.8 -5.1 -3.5 -1.2 -1.9 -2.5 -3.3 -2.9 -3.1 -0.3 0.2 -2.1 2.5 -3.9 5 l-3.2 4.5 3.7 0.3 c4.4 0.4 6.5 2.7 25.4 28.7 8.6 11.9 11.9 17.2 11.9 19.2 0 1.6 0.2 2.9 0.5 2.9 0.3 0 2.8 -1.8 5.5 -3.9z m-544.1 -2.9 c-3.4 -3.1 -4.2 -4.6 -4.6 -8.4 -0.3 -2.6 -0.1 -6.1 0.5 -7.8 0.6 -1.7 7.3 -11.6 14.8 -22 12.3 -17 14 -19 16.6 -19 2.6 0 2.8 -0.3 2.8 -4.1 0 -3.5 1 -5.2 7.6 -13.5 4.2 -5.3 7.4 -9.7 7.2 -9.9 -0.2 -0.2 -1.9 -0.5 -3.9 -0.7 -3.6 -0.3 -3.8 -0.1 -10.1 9.2 -5.6 8.3 -6.9 9.5 -9.6 9.8 -3 0.3 -3.2 0.6 -3.2 4.1 0 3.3 -1.8 6.4 -13.7 23 -16.8 23.3 -18.5 26.3 -17.2 29.9 1.5 3.8 4.6 7 10.4 10.3 6.7 3.8 7.2 3.6 2.4 -0.9z m136.4 -5.2 c1 -0.1 -4.8 -3 -5.9 -3 -0.2 0 -0.4 1.1 -0.4 2.4 0 1.3 -1 3.6 -2.2 5.1 -1.9 2.5 -1.6 2.4 2.6 -0.9 2.6 -2 5.3 -3.6 5.9 -3.6z m451.2 -30.5 c-1.8 -1.9 -8.9 -10.7 -15.6 -19.6 -6.8 -8.9 -13.9 -17.8 -15.7 -19.7 -3.9 -3.9 -8.8 -6.2 -12.9 -6.2 -5.7 0.1 -16.2 6.2 -20.3 12 l-2.1 3 4.8 -3 c8.3 -5.1 20.2 -5 26.7 0.1 2.8 2.2 19.7 24.2 27.5 35.7 l4.2 6.2 3.4 -2.6 3.4 -2.6 -3.4 -3.3z m-149.4 -15.1 c2.2 -2.3 2.3 -2.7 0.8 -5.2 -2 -3.6 -6 -4.1 -8.8 -1.1 -2.6 2.8 -2.6 3 0 6.3 2.6 3.3 4.9 3.3 8 0z m-488.6 -4.3 c4.3 -1.9 10 -7.8 11.6 -11.8 1.1 -3 0 -5.9 -9.1 -22.4 -6.4 -11.4 -7 -13 -7 -18.3 0 -3.1 0.7 -7 1.5 -8.6 1.5 -3 6.1 -6 9 -6 0.8 0 1.5 -0.4 1.5 -1 0 -1.6 -4.1 -1.1 -8.5 0.9 -4.9 2.2 -9.9 7.6 -11.5 12.5 -1 3.2 -0.9 4.2 1.3 8.8 1.3 2.9 5 9.6 8.1 14.7 5.4 9.2 5.6 9.7 5.6 16.7 0 9.9 -3.2 13.9 -12.5 15.5 l-4 0.6 5 0.2 c2.9 0 6.7 -0.7 9 -1.8z m-40.7 -28.2 c-0.3 -1.8 -0.5 -1.9 -2.2 -0.6 -1.8 1.3 -1.8 1.4 0 4.3 1.8 2.7 1.9 2.7 2.2 0.6 0.2 -1.2 0.2 -3.1 0 -4.3z m77.2 -14.3 c0 -0.6 -0.7 -2 -1.5 -3 -1.4 -1.9 -1.5 -1.8 -1.5 1.7 0 2.8 0.3 3.5 1.5 3.1 0.8 -0.4 1.5 -1.1 1.5 -1.8z m320.2 -81.6 c15.6 -30.5 19.3 -36.8 23 -39.5 2.1 -1.4 1.6 -1.5 -7.7 -1.5 -8.7 0 -9.7 0.2 -8 1.4 1.6 1.1 2 2.7 2 7.8 0 6.9 0.8 5 -30.1 68.5 -8.7 18 -9 18.3 -12.1 18.3 -3.4 0 -2.4 1.2 -14.8 -20 -1.7 -3 -8.7 -14.9 -15.5 -26.5 -17.6 -30.1 -21 -36.8 -21 -41.6 0 -2.2 0.5 -4.9 1 -6 1 -1.8 0.6 -1.9 -14.2 -1.9 l-15.2 0 3.6 3.8 c3.8 3.9 6.6 8.3 19.4 30.4 4.3 7.3 9.9 16.9 12.5 21.3 2.5 4.4 10.9 18.8 18.6 32 7.7 13.2 15 25.7 16.3 27.8 l2.3 3.8 12.4 -24.3 c6.8 -13.4 19.2 -37.6 27.5 -53.8z m367.5 49.9 c5.4 -2.6 14.2 -10.9 16.7 -15.8 l1.7 -3.2 -4 4 c-7 7 -11.1 8.6 -22.6 8.5 -9.1 0 -10.6 -0.2 -16.7 -3.1 -5.2 -2.4 -6.8 -3.7 -6.8 -5.2 0 -1.6 -0.6 -2.1 -2.9 -2.1 -4.2 0 -12.4 -6.9 -15.6 -13.3 l-2.7 -5.2 0.6 4.5 c1.4 9.2 7.9 18.3 18.3 25.4 13.1 8.9 23.5 10.6 34 5.5z m-809.5 -14.6 c0.5 -0.6 8 -5.8 16.6 -11.6 14.7 -9.8 18.6 -11.8 25.5 -13.2 2 -0.4 2.7 -1.1 2.7 -2.9 0 -1.8 1.2 -3.1 4.8 -5.2 2.6 -1.5 4.8 -2.8 5 -2.9 0.2 -0.2 -1.6 -2.1 -4 -4.3 l-4.3 -4.1 -0.5 3.1 c-0.4 2.5 -1.9 4.2 -7 7.8 -12.7 9 -40.6 26 -43.7 26.6 -1.8 0.4 -3.3 0.8 -3.3 1 0 0.2 1.5 2.6 3.3 5.4 2.2 3.5 3.3 4.4 3.6 3.2 0.2 -0.9 0.7 -2.2 1.3 -2.9z m68.3 -8.5 c2.5 -1.2 4.5 -2.7 4.5 -3.3 0 -2.6 -9.1 -9.5 -12.5 -9.5 -1.4 0 -1.4 0.4 0.4 2.6 1.5 1.9 2.1 4.1 2.1 7.5 0 2.7 0.2 4.9 0.5 4.9 0.2 0 2.5 -1 5 -2.2z m735.1 -39.4 c-1 -2.5 -12.7 -7.4 -17.6 -7.4 -4.3 0 -10.5 2.3 -14.3 5.1 -1.5 1.2 -0.6 1.4 6.4 1.1 7.5 -0.3 8.7 -0.1 14.6 2.8 4.1 2 6.8 4 7.1 5.3 0.4 1.7 0.8 1.5 2.4 -1.7 1.1 -2.1 1.7 -4.4 1.4 -5.2z m-247.2 -20.8 c5.2 -6.9 5.9 -9.4 5.2 -18.2 -0.8 -10.3 -0.3 -11.4 4 -11.4 3.2 0 3.6 0.4 5.5 4.8 5.2 12.2 9.2 17.8 15.8 22.2 5.2 3.5 9.3 3.8 12.1 1 3.1 -3.1 3.4 -6.7 1.6 -17.9 -1 -5.9 -1.6 -13.1 -1.4 -16.1 l0.3 -5.5 3.7 -0.3 c3.4 -0.3 4.3 0.2 9.1 5.1 5.2 5.3 12 9.7 15.2 9.7 5.1 0 13.7 -7.3 17.5 -14.9 4.1 -8.3 2.3 -14.9 -6.2 -22.6 -4.2 -3.8 -4.9 -4.9 -4.6 -7.7 0.2 -2.5 1.5 -4.1 5.8 -7.6 8.5 -6.8 12 -10.3 12 -12.3 0 -2.5 -7 -8.1 -12.7 -10.2 -3.1 -1.1 -7.7 -1.7 -13 -1.7 -10.5 0 -11.3 -0.3 -11.3 -4.9 0 -4.3 2.7 -7.3 12.9 -14.1 3.6 -2.4 8.5 -6.3 10.9 -8.7 3.8 -3.9 4.3 -4.7 3.7 -7.6 -1.2 -6 -4 -10.1 -8.6 -12.7 -4 -2.2 -5.5 -2.5 -15.4 -2.5 -12.1 0 -10.1 -0.6 -29.4 9.4 -7.1 3.8 -17.3 5.2 -22.4 3.2 -2.5 -1 -2.8 -1.5 -2.5 -4.7 0.3 -3.4 0.8 -4 7.3 -7.6 7.9 -4.4 12.5 -8.8 12.5 -12 0 -5.3 -8 -11.7 -17.4 -13.8 -5.4 -1.2 -9.9 0.3 -31.4 10.4 -15.1 7.1 -26.1 10.6 -33.4 10.6 l-4.8 0 0 -3.9 c0 -3.3 0.4 -4 3 -5.1 3.8 -1.6 12.7 -11 13.6 -14.4 0.5 -2.1 0.1 -3.3 -1.7 -5.3 -2.9 -3.2 -11.5 -7.3 -15.1 -7.3 -4.2 0 -12.4 3.4 -24.4 10.3 -16.4 9.3 -22.8 11.9 -30.6 12.5 -5.9 0.4 -7.4 0.1 -12.3 -2.2 -3 -1.5 -5.5 -3.3 -5.6 -3.9 0 -1.4 -1.7 2.2 -1.8 3.9 -0.1 0.6 1.8 1.4 4 1.8 5.8 0.9 10.3 5.7 12.4 13 1.5 5 1.6 8.9 1 31 -0.7 23.9 -0.7 25.4 1.2 29.7 2 4.5 6.7 8.9 9.5 8.9 2.8 0 7.8 -4.1 10.3 -8.5 1.5 -2.5 4 -7.8 5.5 -11.8 2.7 -6.9 3 -7.2 6.3 -7.5 3.5 -0.3 3.5 -0.3 4.1 4.5 1.8 14.5 5.7 47.3 6.7 56.7 0.9 8.7 1.6 11.7 3.6 14.7 6.4 9.7 14.5 6.8 22.6 -8.1 3.1 -5.7 3.9 -6.5 6.7 -6.8 1.8 -0.2 3.6 0 4.1 0.5 0.5 0.5 1.6 5.3 2.4 10.8 3.8 23.8 4.8 28.6 7.4 34.2 3.1 6.6 10.1 13.4 15.3 15 4.4 1.3 8.3 -0.1 11.2 -4.1z m-565.3 0.8 c7.9 -2.3 12.5 -5 18.1 -10.2 7.9 -7.3 12.6 -19.3 10.9 -27.2 l-0.8 -3.5 -0.7 4.5 c-1.7 9.9 -9.7 18.6 -23 25.1 -9.5 4.6 -20.8 7.3 -28.2 6.7 -3 -0.3 -5.4 -0.3 -5.4 -0.2 0 0.7 6.6 3.8 10.5 5 5.6 1.8 12.2 1.7 18.6 -0.2z m261.7 -3.8 c5.3 -2.8 10.7 -10 18 -24.1 1.1 -2 1.9 -7.6 2.4 -16.7 1 -18.9 3.6 -24.8 10.8 -24.8 4.5 0 5 1 5 12.3 0 9.2 1.7 13.2 6.2 15.2 5.3 2.2 11.8 -1 18.4 -9.1 4.8 -5.8 6.1 -11 7.9 -31.4 1.6 -17.3 3.4 -27.4 5.9 -33.4 1.3 -3.1 1.9 -3.6 4.9 -3.6 l3.4 0 0.6 5.8 c1.2 11.5 6.1 20.2 11.2 20.2 4 0 11.8 -6.1 14.7 -11.5 3.4 -6.2 3.7 -8.4 4.2 -31.5 0.6 -23.9 1.9 -28.8 9 -33.7 2.6 -1.8 5.9 -3.3 7.2 -3.3 2.4 0 2.4 -0.1 0.8 -2.6 l-1.7 -2.5 -3.4 3.3 c-3.3 3.2 -3.6 3.3 -12.1 3.3 -12.7 0 -13.4 -0.3 -45.7 -21 -12 -7.7 -17.1 -9 -22.6 -5.8 -1.5 0.9 -3.3 3 -4 4.5 -1.6 3.8 0.6 8.8 8.3 18.9 4.2 5.5 5.8 8.4 5.8 10.7 0 3 -0.2 3.2 -3.7 3.2 -2.6 0 -13 -4 -32.8 -12.6 -39.6 -17.1 -36.6 -16 -40.5 -14.4 -3.7 1.5 -7 6.3 -7 10 0 1.4 2 5.9 4.5 10 3.1 5.3 4.5 8.6 4.5 11.3 l0 3.7 -4.6 0 c-3.3 0 -8.7 -1.6 -18.8 -5.6 -15.8 -6.4 -22.4 -8.4 -27.6 -8.4 -7.1 0 -17.6 6.9 -19.5 12.9 -0.9 3 3.8 11.4 8.5 15.1 2.2 1.8 6.2 4 8.8 5 4.4 1.7 4.7 2 5 5.8 l0.3 4 -13.8 -0.1 c-12.7 -0.2 -14.2 0 -18.6 2.2 -2.6 1.3 -6 3.9 -7.4 5.8 -2.2 2.9 -2.4 3.7 -1.5 5.8 1.7 3.6 8.5 7.6 19.5 11.4 11.5 3.9 13.9 5.9 13.5 10.9 -0.3 3.4 -0.5 3.6 -5.8 4.8 -15.7 3.6 -23.4 11.2 -20.9 20.7 2.4 9.2 9.5 17.7 16.5 19.6 2.8 0.8 4.9 0.6 9.7 -0.9 7 -2.2 11.3 -2.5 12.3 -0.9 0.3 0.6 1 4.7 1.5 9.1 1.6 14.3 5.5 19.1 12.5 15.3 5.7 -3.1 10.8 -8 13.4 -13.1 4.9 -9.6 5.7 -10.4 10.5 -10.4 l4.3 0 1.1 6.8 c0.6 3.7 1.5 10.7 2.1 15.6 1.6 12.5 3.2 15.3 10.6 18 5 1.9 5 1.9 8.2 0.2z m609.5 -1.7 c2.2 -3.1 1.3 -5.8 -2.8 -8.5 -2.2 -1.4 -2.6 -1.4 -4.9 0.2 -3.8 2.4 -4.4 5.9 -1.5 9 2.9 3.1 6.5 2.8 9.2 -0.7z m-915.8 -36.4 c3.7 -9 20.5 -20.6 34.7 -24 3.5 -0.8 9.5 -1.5 13.3 -1.6 l7 -0.1 -5.5 -2.6 c-4.6 -2.3 -6.8 -2.7 -14 -2.7 -7.7 0 -9.2 0.3 -16.2 3.7 -17.2 8.2 -26.5 22.9 -23.2 36.9 l0.7 3.4 1.2 -5.5 c0.7 -3 1.6 -6.4 2 -7.5z m849 -49.4 c49.8 -9.8 78.4 -15.2 88.2 -16.8 8.7 -1.3 11.3 -2.1 11.6 -3.4 0.3 -1.1 -0.7 -2.2 -3.2 -3.4 -2 -0.9 -5.5 -3 -7.8 -4.6 l-4.3 -2.8 0 2.9 c0 3.2 1.6 2.7 -22 7 -6.3 1.2 -17.1 3.2 -24 4.5 -33.8 6.6 -53 8.9 -53 6.5 0 -2.9 -1.3 0.2 -2.6 6.2 -1.7 8.1 -1.7 8 0.4 7.4 0.9 -0.3 8.5 -1.9 16.7 -3.5z m-763 -36.3 c-0.3 -4.6 -1.3 -12.3 -2 -17.3 l-1.4 -9 0.5 11 c0.3 6.1 0.1 13.2 -0.3 16 -0.8 4.8 -0.9 4.9 -5.3 6.1 l-4.5 1.2 6.9 0.1 6.8 0.1 -0.7 -8.2z m-52.2 3.5 c0.4 -0.3 0.2 -1.2 -0.4 -1.9 -0.5 -0.6 -1.6 -4.1 -2.4 -7.6 l-1.3 -6.3 -0.1 6.3 c-0.1 3.5 -0.6 7.2 -1.1 8.3 -0.9 1.7 -0.7 1.9 1.8 1.9 1.6 0 3.2 -0.3 3.5 -0.7z m-4.6 -23 c-0.3 -1 -0.5 -0.2 -0.5 1.7 0 1.9 0.2 2.7 0.5 1.8 0.2 -1 0.2 -2.6 0 -3.5z m10.1 -21.2 c5.9 -0.6 17.3 -1.5 25.4 -1.8 l14.6 -0.6 1.1 4.4 c1 4.2 1 4.1 0.6 -2.1 -0.9 -10.7 -1.8 -17.6 -2.2 -16.2 -0.3 0.7 -1.2 1.6 -2.2 2.1 -2.6 1.5 -25.4 4.2 -81.1 9.7 -9.1 0.9 -18.7 1.4 -21.4 1.1 l-4.8 -0.4 0.6 3.6 c0.3 2 0.6 5.6 0.7 8.1 0.1 2.5 0.3 3.7 0.6 2.8 0.2 -0.9 1.9 -2.1 3.6 -2.7 5.3 -1.6 50.3 -6.9 51.2 -5.9 0.3 0.2 0.8 3.4 1.2 6.9 l0.8 6.4 0.3 -7.1 0.3 -7.1 10.7 -1.2z m826.2 2.1 c-1.3 -0.9 -5.8 -4.1 -9.8 -7 -4.1 -2.9 -7.6 -5.2 -7.7 -5 -0.1 0.2 -0.5 1.9 -0.9 3.8 l-0.6 3.6 3.8 -0.4 c2.8 -0.3 5.3 0.5 10.2 3.2 7.1 3.8 8.9 4.5 5 1.8z m88.7 -25.4 c3 -2.8 2.9 -5.3 -0.2 -8.3 -3.1 -3.2 -4 -3.1 -7.6 0.4 -3.5 3.6 -3.6 4.1 -0.4 7.5 2.9 3.2 5.1 3.3 8.2 0.4z m-497.2 -22.5 c-3.7 -9.4 -0.2 -19.2 9.5 -26.6 2.5 -1.9 11.7 -7.2 20.5 -11.7 23.2 -12.1 27.7 -15.5 29.1 -22.8 1.3 -6.5 -8.2 -11.6 -18.9 -10.1 -2.9 0.5 -8 1.1 -11.4 1.5 l-6.3 0.7 0 -3.6 c0 -3.4 0.6 -3.9 23.3 -20.9 12.7 -9.6 25.8 -19.2 28.9 -21.4 3.5 -2.4 6.6 -5.5 7.9 -8.1 l2.3 -4.1 -2.5 -3.7 c-3.9 -5.8 -8.2 -7.5 -19.4 -7.5 l-9.5 0 0 -4 c0 -3.9 0.2 -4.1 14.4 -15.4 15.8 -12.6 20.8 -18 23.7 -25.6 2.4 -6.3 2.4 -7.4 -0.2 -12.6 -3.4 -7.2 -12.4 -10.7 -17.5 -6.9 -1 0.8 -2.6 1.5 -3.4 1.5 -0.8 0 -3.5 1.6 -5.9 3.5 -3.5 2.8 -5.3 3.5 -8.7 3.5 -4.2 0 -4.4 -0.1 -4.4 -3 0 -2.1 1.3 -4.8 4.1 -8.2 4.9 -6.2 9.5 -15.1 10.4 -20 0.9 -4.5 -0.8 -9.8 -3.9 -12.7 l-2.4 -2.3 -4.4 2 c-2.3 1.1 -8.3 5.4 -13.3 9.6 -8.7 7.3 -9.2 7.6 -14.2 7.6 -5.1 0 -5.3 -0.1 -5.3 -2.8 0 -1.6 0.9 -6.6 2.1 -11.1 2 -7.9 2 -8.5 0.4 -12.7 -3.8 -10 -17.3 -14.6 -28 -9.4 -5.8 2.8 -10 9 -11.6 17.2 l-1.2 5.8 -4.5 0 c-3 0 -7.1 -1.2 -12.3 -3.5 -6.4 -2.9 -8.2 -3.4 -9.9 -2.5 -6.8 3.6 -6.8 13.7 0 25.1 3 5 4.5 8.8 4.8 12.1 l0.5 4.8 -4.4 0 c-2.5 0 -7 -1.2 -10.4 -2.6 -21.8 -9.5 -22.2 -9.6 -25.4 -8 -4.6 2.4 -10.1 9.5 -10.1 12.9 0 2.9 7.8 18.9 12 24.5 2 2.6 3.5 3.7 18.8 13.7 8.3 5.4 11.2 9.8 11.2 17 l0 4.5 -3.8 0 c-2.5 0 -5.9 -1.2 -10.5 -3.9 -3.7 -2.2 -7.6 -4.3 -8.7 -4.6 -4.4 -1.4 -11 6 -11 12.2 0 1.8 0.9 5.7 2 8.6 2.6 6.9 8.3 12.3 25.5 24.2 7.1 5 16.1 12 19.8 15.8 6.3 6.2 6.8 7 6.5 10.5 -0.3 3.3 -0.6 3.7 -3.2 4 -1.7 0.2 -4.5 -0.5 -6.5 -1.6 -2 -1.1 -5.9 -2.7 -8.7 -3.5 -10.8 -3.2 -16.7 3.8 -13.2 15.7 2 6.6 10.4 14 26.3 23.1 9.1 5.2 16 9.9 19.6 13.5 5.6 5.4 5.7 5.6 6.3 12.8 0.4 4 0.4 8.1 0.1 9.2 -0.5 1.7 -0.2 2 2.5 2 2.7 0 3.1 -0.3 2.5 -1.7z m-182.2 -30.8 c14.8 -1.9 21.5 -3.9 33.3 -9.6 27.3 -13.3 40.1 -37.9 32.6 -62.4 -5.2 -17.1 -20.1 -30.4 -41.7 -37.4 -19.1 -6.3 -35.7 -8.1 -74 -8.1 -21.6 0 -25.6 0.2 -23.5 1.3 4.9 2.5 5.1 4.9 4.8 60.3 l-0.3 51.2 -2.3 3.1 -2.3 3.1 31.3 0 c21.4 0 34.7 -0.5 42.1 -1.5z m359.6 -0.4 c-2.4 -1.9 -2.4 -2 -3 -29.8 -0.3 -15.3 -0.3 -28.2 0.1 -28.6 0.4 -0.5 13 -0.7 28.1 -0.5 31.8 0.4 32.5 0.5 36.4 8.9 3 6.5 3.5 4.9 3.4 -10.4 0 -13 -1 -18.8 -2.2 -12.9 -1.1 5.3 -6.4 10.1 -12.6 11.2 -8.3 1.5 -53.1 1.3 -53.2 -0.2 -0.1 -0.7 0 -12.5 0.1 -26.3 0.1 -17.4 0.6 -25.2 1.4 -25.8 1.9 -1.3 64.6 -0.2 69 1.2 5.3 1.7 9 5.9 11.4 12.9 l2 5.7 0.1 -5.1 c0.1 -2.8 -0.2 -7.9 -0.5 -11.3 l-0.7 -6.1 -55.1 0 c-48.5 0.1 -54.8 0.3 -52.5 1.5 1.5 0.8 3.2 2.9 3.8 4.6 1.2 3.4 1.6 100 0.5 105.7 -0.3 1.7 -1.5 4 -2.6 5.1 l-1.9 2.1 15.2 0 c15 0 15.1 0 12.8 -1.9z m-506 -187 c2.4 -3.1 3.8 -5 3.1 -4.3 -2.9 2.6 -7.1 1.3 -14.9 -4.5 -14.9 -11.1 -49.8 -38.2 -60.1 -46.7 -8.4 -6.9 -10.6 -9.2 -11 -11.7 l-0.5 -3.2 -4.7 6.1 c-2.7 3.3 -4.8 6.3 -4.8 6.6 0 0.3 1 0.6 2.3 0.6 1.3 0 5.6 2.3 9.7 5 9.6 6.7 39.9 30.4 57.8 45.3 12.7 10.6 14.2 12.2 14.3 15 l0 3.2 2.2 -2.9 c1.2 -1.6 4.2 -5.4 6.6 -8.5z m670.9 -25.4 c16.6 -12.3 21.8 -15.6 27 -16.9 3.3 -0.8 4.2 -1.5 4.2 -3.2 0 -1.4 1.7 -3.2 5.5 -5.6 l5.4 -3.6 -4.9 -3.6 -5 -3.7 0 2.8 c0 4 -5.7 8.6 -33 26.8 -13.3 8.9 -12.8 8.6 -16.7 9.2 l-3.3 0.6 3.7 5.5 c3.2 4.7 3.8 5.2 4.1 3.3 0.2 -1.5 4.4 -5.3 13 -11.6z m60.2 -5.3 c0 -1.6 -6.2 -7.2 -9.3 -8.3 -4.4 -1.7 -5 -1.3 -2.8 1.8 1.5 2 2.1 4.5 2.1 8 l0 5.1 5 -2.8 c2.7 -1.5 5 -3.2 5 -3.8z m-700.4 -14.9 c8.5 -26.7 -6.2 -57.2 -34.5 -71.3 -7.2 -3.5 -8 -3.7 -17.5 -3.7 -9.5 0 -10.5 0.2 -17.6 3.6 -4.3 2.1 -9.8 5.7 -13 8.8 -4.7 4.4 -4.9 4.8 -1.7 2.7 7 -4.6 13.3 -6.1 24.7 -6 8.1 0 11.8 0.5 16.2 2.1 14.9 5.5 30.4 19.1 37.1 32.3 5.8 11.7 7 26.2 3.1 37.4 -1.6 4.5 -1.7 5.7 -0.4 3.6 0.6 -0.8 2.2 -5.1 3.6 -9.5z m576.1 -23.3 c-3.9 -4.3 -5.7 -10.5 -5.7 -19.7 0 -9.9 1.4 -14 7.1 -22 2.5 -3.5 3.9 -4.5 6.1 -4.5 2.4 0 2.8 -0.4 2.8 -2.9 0 -2.2 0.9 -3.6 3.8 -5.8 6.5 -5 9.3 -6.5 14.1 -7.2 l4.6 -0.7 -6.3 -0.8 c-6.1 -0.8 -6.7 -0.6 -13.8 2.8 -15.2 7.6 -27 23.3 -26.9 36.1 0.1 4.7 0.8 7.3 3.2 12 3.3 6.4 9.8 14.5 11.5 14.5 0.6 0 0.4 -0.8 -0.5 -1.8z m53.1 -15.9 c7.5 -9.7 9.2 -17.2 5.4 -25.3 l-2 -4.5 -0.1 5.5 c-0.1 3.2 -1 7.4 -2.2 9.9 -2.5 5.6 -8.5 13.1 -10.5 13.1 -1.8 0 3.4 4.9 5.3 5 0.6 0 2.5 -1.7 4.1 -3.7z m-561.7 -17.3 c3.5 -1.1 8.8 -3.5 11.7 -5.5 5.8 -4 6.9 -5.4 2 -2.8 -5 2.5 -20.1 3 -26.8 0.8 -7.5 -2.5 -17 -12 -17 -17 0 -3 -0.3 -3.5 -2.3 -3.5 -3.2 0 -7.8 -9.3 -8.6 -17.5 l-0.6 -6 -1.9 6.2 c-1.8 6 -1.8 6.5 -0.2 12.6 4.2 15.5 16.4 29 29.9 33.2 5.7 1.8 6.5 1.8 13.8 -0.5z m468.3 -45.3 c6.4 -12.4 11.6 -23.8 11.6 -25.2 0 -9 -11.4 -20.5 -22.7 -23 -4.4 -0.9 -4.2 0.8 0.2 2.4 4.5 1.6 9.1 5.5 11.2 9.5 2.4 4.5 2.3 15 -0.2 20.6 -2.2 5.2 -18.2 35.2 -20.9 39.2 l-1.8 2.7 4.9 2.4 4.8 2.5 0.6 -4.3 c0.4 -2.5 5.5 -13.5 12.3 -26.8z m-61.4 2.3 c0 -3.1 19.8 -41.6 23.1 -44.9 1.9 -1.9 2.9 -4 2.9 -5.8 0 -2.8 10.4 -23.3 23.7 -46.6 3.1 -5.4 5.4 -9.9 5.2 -10.1 -0.2 -0.2 -2.8 -0.8 -5.6 -1.3 l-5.3 -1 0 3.7 c0 4.5 -7.9 20.7 -28.8 59.5 -19.9 37 -22.1 40.9 -23.9 42.2 -1.9 1.5 -2 1.4 3.2 4.1 5 2.6 5.5 2.7 5.5 0.2z m-315.8 -6.3 c2.9 -1.3 6.4 -3.4 7.8 -4.5 l2.5 -2.2 -4 1.6 c-2.7 1.1 -6.1 1.5 -11.1 1.2 -11.7 -0.6 -13.3 -2.8 -24.9 -37.3 -3.8 -11 -7.1 -20.3 -7.4 -20.7 -0.4 -0.4 -3 0.9 -6 3 -4.9 3.4 -5.1 3.7 -2.8 4 3.3 0.4 5.3 5 18.3 42 2.2 6.2 7.5 12.9 11.8 14.8 4 1.8 9.2 1.2 15.8 -1.9z m-81.3 -12.8 c-2.9 -4.1 -7.8 -7.9 -13.4 -10.5 -5.5 -2.6 -9.3 -2.9 -14.5 -1 l-3.5 1.3 5.4 0.6 c2.9 0.3 7.3 1.8 9.7 3.2 4.9 2.9 11.4 10.7 11.4 13.8 0 1.9 0.4 1.7 3.5 -1.3 l3.4 -3.3 -2 -2.8z m346.1 2.9 c-9.9 -2.2 -11.8 -2.9 -15.8 -5.6 -8.6 -5.8 -12.2 -14 -12.2 -28.2 0 -14.7 3.5 -26.6 9.8 -33.4 l2.7 -2.9 -4.4 2.4 c-7.1 3.9 -12.7 11.9 -16.5 23.6 -6.6 20 5.2 38.2 28.2 43.8 3.1 0.7 7.3 1.3 9.2 1.3 3.4 0 3.3 -0.1 -1 -1z m-228.1 -9.2 c-2.3 -4.1 -16 -40.8 -19.4 -52.1 -1.5 -4.9 -3 -9.3 -3.4 -9.6 -0.3 -0.3 -3 1.1 -6 3.2 -4.1 3 -4.9 3.9 -3.3 3.9 2.9 0 4.4 2.6 10.1 17.6 6.2 16.5 8.5 24.5 7.9 28.4 -0.4 2.5 -0.1 3 1.6 3 1.7 0 2.4 1.2 3.8 5.9 l1.8 5.9 4.3 -1.6 4.4 -1.6 -1.8 -3z m70.8 -8.3 l3.8 -1.7 -6.5 -0.6 c-8.1 -0.8 -9.7 -1.5 -11.5 -5 -1.6 -3.1 -7.2 -52.7 -6.2 -55.2 0.4 -1.1 2.7 -1.7 7.9 -2.2 9.7 -0.9 13.8 -1.7 13.8 -2.6 0 -0.4 -2.1 -0.3 -4.7 0.1 -2.7 0.4 -7.8 0.8 -11.4 0.8 l-6.6 0.1 -0.7 -3.1 c-0.3 -1.7 -0.6 -5.3 -0.6 -7.9 0 -2.6 -0.3 -7.4 -0.6 -10.8 l-0.7 -6 -4.1 2 -4.2 2 1.3 8.1 c1.9 12.9 1.7 17.3 -0.9 19.1 l-2.2 1.6 2.5 0 c2.5 0 2.7 0.3 3.8 8.7 0.6 4.9 1.8 15.3 2.6 23.3 2.3 22.3 3.6 26.2 9.8 30.1 3.7 2.3 9.2 2 15.4 -0.8z m34.4 -3.9 c-1.2 -1.5 -2.1 -3.4 -2.2 -4.3 0 -1.2 -0.2 -1.1 -0.9 0.4 -1.4 3.2 -1.1 5.3 0.8 5.8 3.9 1.1 4.3 0.7 2.3 -1.9z m49.3 -14.4 c2.1 -7.2 -0.6 -13.5 -7.2 -16.9 -2.1 -1.1 -10.1 -3.8 -17.8 -6.1 -18.4 -5.5 -19.9 -6.8 -19.9 -17.9 0 -8.8 -0.8 -9.1 -4.4 -1.7 -2.6 5.2 -2.6 7.9 -0.2 13.3 2.7 5.8 7.6 8.7 22.1 12.8 6.7 2 13.8 4.2 15.6 5.1 4.7 2.3 6.7 7.1 6.2 15.2 l-0.4 6.4 2.3 -2.8 c1.3 -1.6 2.9 -4.9 3.7 -7.4z m100.1 -30.6 c-4.9 -4 -22.5 -9.6 -22.5 -7.3 0 0.5 1.1 0.9 2.3 0.9 6.2 0 19.6 9.4 19.8 13.8 0 1 0.7 0.3 1.7 -1.7 1.7 -3.3 1.7 -3.3 -1.3 -5.7z m-103.5 -17.4 c0 -2.3 -0.7 -3.3 -3.2 -4.6 l-3.3 -1.7 2.8 2.8 c1.5 1.5 2.7 3.6 2.7 4.6 0 1.1 0.2 1.9 0.5 1.9 0.3 0 0.5 -1.3 0.5 -3z"/>
  <path d="M627.1 691.3 c-2 -1.8 -3.9 -10.3 -8.2 -37.8 -1.2 -7.6 -7.5 -24.7 -13.5 -36.8 -2.1 -4.2 -3.9 -7.6 -4 -7.4 -0.1 0.1 -0.7 7.2 -1.3 15.7 -1.4 17.8 -4.2 30.3 -7.4 32.5 -2.4 1.7 -6.4 1.9 -10 0.6 -2.4 -0.9 -2.4 -1.2 -3 -15.8 -0.7 -18.2 -3.9 -32.9 -9.6 -44.7 -3.7 -7.5 -10.2 -16.6 -12 -16.6 -0.5 0 -1.1 3.9 -1.4 8.8 -0.6 9.3 -2.4 15.5 -5.7 20.3 -1.8 2.4 -2.8 2.9 -6.5 2.9 -8.3 0 -9.2 -2.5 -9.4 -24.7 0 -10 -0.7 -21.1 -1.6 -26.5 -2.5 -15.3 -2.5 -15.2 4.4 -17.1 3.3 -0.9 14.8 -6.2 25.6 -11.7 21.6 -11 24.8 -11.8 29 -7.5 2.1 2 2.5 3.4 2.5 8 0 5.1 -0.3 5.8 -4 9.5 -2.2 2.2 -7.2 5.6 -11.2 7.6 -13.9 7 -14.2 7.7 -3.6 10 14.3 3.1 20 1.7 45.3 -11 19.8 -10 20 -10.1 28 -10.4 10.6 -0.4 12.9 0.8 13.3 6.8 0.4 5.5 -1.1 8.3 -5.7 10.7 -2 1 -7.9 4.5 -13.1 7.9 -5.2 3.4 -13.3 8.2 -17.8 10.6 l-8.4 4.6 9.4 1.7 c18.6 3.4 40.7 -0.4 61.7 -10.8 l10.3 -5.1 6.7 1.2 c8.5 1.4 10.1 3.3 10.1 11.4 0 5.6 -0.2 6.1 -4.7 10.9 -5.9 6.4 -16.1 13.1 -27 17.9 -8.3 3.7 -8.5 3.9 -5.2 4.4 3.3 0.4 17.6 1.9 32.4 3.2 3.9 0.4 8.2 1.3 9.8 2.1 2.3 1.2 2.7 1.9 2.7 5.9 0 8 -4.7 13.3 -13.5 15.2 l-3.9 0.8 5 3.1 c9.3 6 12.4 10.7 12.4 18.8 0 3.5 -0.6 5.2 -2.8 7.6 -2.4 2.7 -3.7 3.3 -8.4 3.7 -7.2 0.6 -12.1 -2 -24.2 -12.8 -5 -4.4 -9.1 -7.8 -9.3 -7.6 -0.2 0.2 0.5 4.9 1.7 10.4 2.3 11.3 2.7 28.1 0.8 30 -2 2 -9 1.4 -12 -1.1 -1.5 -1.2 -7.2 -10.3 -12.6 -20.3 -5.5 -9.9 -11.8 -20.9 -14 -24.5 -4.8 -7.4 -5.2 -6.5 -2.7 6.7 3.6 19.7 4.2 37.7 1.2 39.6 -2.4 1.5 -12.4 0.9 -14.6 -0.9z"/>
  <path d="M334.8 691 c-4.6 -3.5 -6.3 -12.1 -6.3 -32 l0 -17.6 -12 16.8 c-12.5 17.4 -14.5 19.2 -20.6 18.6 -2.5 -0.2 -3.9 -1.2 -5.7 -3.8 -2.1 -3.1 -2.3 -4.4 -2 -11.6 l0.3 -8.1 -5.5 2.6 c-10.3 4.7 -23.8 3.6 -25.4 -2.2 -0.3 -1.2 -0.6 -5 -0.6 -8.4 0 -5.2 0.4 -6.6 2.3 -8.3 3.2 -3.1 8.1 -5.5 16.7 -8.1 4.1 -1.2 9.5 -3.1 12 -4.2 l4.5 -1.9 -12 -4.2 c-20.3 -7 -24.5 -9.9 -24.5 -17.3 0 -2.6 0.6 -3.6 3.1 -4.9 2.7 -1.3 6.4 -1.6 23.8 -1.4 11.3 0.1 25.1 0.2 30.6 0.1 12 -0.2 12 -0.2 -9.1 -8.4 -23.8 -9.3 -28.4 -12.3 -28.4 -18.3 0 -7.2 3.5 -10.4 11.5 -10.4 1.3 0 11.7 3.4 23.1 7.5 17.9 6.5 22.9 7.9 34.7 9.6 7.5 1.1 15.4 1.9 17.4 1.7 3.7 -0.3 3.7 -0.3 -8.2 -8.3 -6.6 -4.4 -14.5 -10.5 -17.7 -13.6 -5.6 -5.5 -5.8 -5.8 -5.8 -11 0 -6.8 0.8 -7.9 5.7 -8.6 3.1 -0.4 4.8 0 8 2 11.5 7.3 29.9 14.9 42.8 17.7 7.2 1.6 19.8 1.5 23.1 -0.3 l2.7 -1.4 -4.9 -3.3 c-11.7 -8.1 -16.4 -14.5 -16.4 -22.3 0 -3.7 0.4 -4.6 2.5 -5.5 5.3 -2.4 14.2 -0.6 19 3.8 1.1 1 4.5 2.8 7.5 4 3 1.2 6.5 3.1 7.7 4.2 1.2 1.1 7.5 4.1 14 6.7 13.7 5.5 13.5 5.2 10.9 18.5 -0.9 4.5 -2 16.7 -2.5 27.3 -0.5 10.5 -1.5 20.1 -2.1 21.2 -0.9 1.8 -2 2.1 -6.8 2.1 -3.4 0 -6.6 -0.6 -7.9 -1.5 -3 -2.1 -4.3 -8.8 -4.3 -22.9 0 -6.9 -0.4 -12.6 -0.9 -12.6 -1.7 0 -13.5 14.7 -15.7 19.6 -3.5 7.8 -5.1 18.2 -5.9 36.4 -0.8 20.8 -1.8 25.5 -6 29.7 -2.8 2.8 -4 3.3 -7.9 3.3 -7.5 0 -7.6 -0.3 -7.9 -31.3 -0.1 -16.7 -0.5 -25.9 -1.1 -24.9 -0.5 1 -2.7 3.7 -4.9 6.2 -12.3 14.2 -21.7 38.2 -23.9 61.9 -1.1 11.8 -1.3 12.5 -4.4 15.7 -2.8 3.1 -3.7 3.4 -8.6 3.4 -4 0 -6.2 -0.6 -8 -2z"/>
  <path d="M483.5 473.1 c-2.8 -2.8 -12.2 -9.5 -21 -15.1 -8.8 -5.6 -16.8 -10.9 -17.7 -11.8 -2.6 -2.2 -2.3 -8.8 0.5 -12.9 1.9 -2.9 2.7 -3.3 6.8 -3.3 6.8 0 13.5 2.4 22.4 8 4.3 2.7 8.2 4.7 8.7 4.2 1.3 -1.3 -4.3 -15.6 -8.2 -20.8 -5.4 -7.2 -12.4 -12.8 -29 -23.4 -8 -5 -15.6 -10.2 -16.8 -11.3 -4.3 -3.9 -6.3 -9.3 -6 -15.5 l0.3 -5.7 6.5 -0.3 c5.8 -0.2 7.1 0.1 10.5 2.4 2.2 1.5 5.8 3.5 8 4.4 3.5 1.5 14 7.4 24.6 13.8 l3.6 2.2 -0.5 -2.5 c-0.7 -4 -8.6 -18.9 -13.8 -26.4 -6.6 -9.2 -20.4 -22.6 -30.1 -29 -9.3 -6.1 -10.8 -8.5 -10.8 -17.2 0 -8.3 1.8 -9.9 10.9 -9.9 9.2 0.1 20.8 4.4 32.9 12.3 l8.7 5.7 -1.4 -3.3 c-0.7 -1.7 -4.1 -9.4 -7.4 -16.9 -6.4 -14.3 -8.4 -22.6 -6.2 -25.3 0.9 -1.1 3.2 -1.5 8.2 -1.5 7.2 0 10.9 1.3 14.2 4.9 2.9 3.2 3.6 2.6 3.6 -2.9 0 -13.7 4.7 -21 13.6 -21 5.6 0 10.7 2.3 12.4 5.5 1.6 3 0.9 17.6 -1.5 28.8 -0.9 4.2 -1.5 8.2 -1.3 8.7 0.2 0.6 3.7 -2 7.8 -5.6 4.1 -3.7 10.2 -8.4 13.5 -10.6 5.4 -3.5 6.5 -3.9 11.5 -3.6 l5.5 0.3 0 7 c-0.1 7 -0.1 7 -8.2 20.1 -4.5 7.2 -10.9 18 -14.3 23.9 l-6.1 10.8 4.3 -3.5 c2.4 -1.9 8.5 -6.9 13.6 -11 15.4 -12.5 24.4 -16.2 30 -12.2 1.9 1.3 2.2 2.4 2.2 8.3 l0 6.8 -17.3 14.4 c-10.2 8.5 -19.3 17 -22.2 20.8 -9.5 12.1 -16.5 21.6 -16.5 22.4 0 0.4 4.4 -1.5 9.8 -4.2 14.8 -7.4 23.1 -10.1 31.2 -10.1 7.9 0 9 1 9 7.9 0 3.3 -0.5 4.4 -2.7 5.7 -21.5 13.2 -35.9 25.1 -43 35.5 -3.6 5.3 -9.3 16.1 -9.3 17.8 0 0.7 2.1 0.1 5 -1.4 9 -4.6 21.8 -6.7 28.8 -4.9 1.9 0.6 2.2 1.3 2.2 6.3 0 6.9 -1.4 9.1 -7.6 12.1 -2.6 1.2 -6.8 3.7 -9.3 5.6 -2.4 1.9 -5.6 3.7 -7 4.1 -1.4 0.3 -7.2 4.4 -13 9 -13.3 10.4 -15.2 10.7 -22.6 3.4z"/>
  <path d="M268.5 468.3 c-1.1 -0.3 -2.8 -1.2 -3.7 -2.1 -1.7 -1.4 -1.8 -5.3 -1.8 -55.4 0 -62.4 -1 -57.1 10.6 -58.3 8.8 -0.8 29.4 1 40.1 3.5 17.2 4.1 31.5 13.4 38.5 25 5.1 8.5 6.7 14.4 7.4 26.5 1 18.4 -3.4 32.4 -13.7 42.5 -9.1 9 -21.6 14.5 -40 17.5 -8.8 1.4 -32.7 1.9 -37.4 0.8z"/>
 </g>
 <g fill="#016b45">
  <path d="M492 1013.5 c0 -1.4 0.6 -2.5 1.3 -2.6 6.8 -0.4 10.4 -1.3 11.5 -2.7 1 -1.3 1.2 -6.2 1.1 -19.7 -0.4 -26.8 -1.3 -39.5 -3 -40.6 -0.8 -0.5 -3.8 -0.9 -6.6 -0.9 -4.9 0 -5.3 -0.2 -5.3 -2.3 0 -2.1 0.8 -2.5 8.1 -4.1 4.4 -0.9 10.1 -2.6 12.5 -3.7 7.2 -3 7.3 -3 7.6 6.8 l0.3 8.8 5.2 -7.2 c6.2 -8.4 10.7 -11.3 18.1 -11.3 5.3 0 7.3 1.4 6.7 4.5 -0.2 1.1 -0.4 5.5 -0.4 9.8 -0.1 9 -1.3 9.8 -6.5 4.2 -2.9 -3 -4 -3.5 -7.8 -3.5 -9.4 0 -14.9 7 -15 19.2 -0.2 13.8 1.4 36.7 2.6 38.4 0.9 1.2 3.3 1.8 8.4 2.2 6.6 0.4 7.2 0.7 7.2 2.7 0 2.2 -0.2 2.2 -20.2 2.8 -11.2 0.4 -21.5 0.9 -23 1.2 -2.5 0.5 -2.8 0.2 -2.8 -2z"/>
  <path d="M418.8 1010.4 c-17.7 -4.2 -28.3 -16 -29.5 -32.7 -1 -14 4.9 -31.3 13 -38.3 5 -4.2 16.8 -9.2 23.9 -10 15.5 -1.8 31.1 6.9 35.4 19.9 1.7 5.1 1.7 19.8 -0.1 22.6 -1.1 1.9 -11.9 0.9 -35.8 -3.1 -10.3 -1.7 -19 -2.8 -19.3 -2.5 -1.2 1.2 -0.5 15 1.1 19.6 1.9 5.8 8.2 12.2 14.9 15.2 7.1 3.1 14.7 3.4 23.1 1 7.8 -2.2 9.7 -1.6 6.9 2.3 -2.3 3 -6.9 5 -14.9 6.5 -7.4 1.4 -11.5 1.3 -18.7 -0.5z m28.6 -46.6 c1.1 -4.1 0.6 -14.8 -0.8 -18.1 -0.7 -1.8 -2.6 -4.4 -4.2 -5.9 -8.2 -7.6 -22.9 -6.1 -28.9 3 -2.6 4 -5.5 11.4 -5.5 14.2 0 1.9 6 3.6 26 7.4 11 2.1 12.7 2 13.4 -0.6z"/>
  <path d="M602.4 1001.7 c-13.6 -3.5 -23.3 -15.2 -27 -32.9 -2.9 -13.6 -0.7 -24.1 6.9 -33 10 -11.8 20 -16.4 33.6 -15.6 8.6 0.5 13.8 2.7 18.8 8 3.7 3.9 7.9 12.6 8.9 18.4 l0.6 4.1 -6.9 2.6 c-3.8 1.4 -15 4.6 -24.9 7.1 -9.8 2.6 -18.7 4.9 -19.6 5.2 -1.6 0.5 -1.6 0.8 0.2 5.6 4.2 11 10.9 17.6 20.1 19.8 10.1 2.4 21.5 -0.9 30.2 -8.9 2.4 -2.2 4.7 -3.8 5 -3.4 0.4 0.3 0.7 2 0.7 3.7 0 5.4 -10.8 13.9 -23 18.1 -6.2 2.2 -17.5 2.7 -23.6 1.2z m10.1 -47.5 l15 -3.7 -0.2 -3.7 c-0.3 -4.2 -3.4 -11.1 -6.7 -14.6 -5.2 -5.8 -14.1 -7.1 -21.9 -3.3 -8.8 4.2 -12.2 13.3 -10.1 26.4 l0.7 3.8 4.1 -0.6 c2.3 -0.4 10.9 -2.3 19.1 -4.3z"/>
  <path d="M688.9 974.9 c-0.6 -1.3 -0.8 -2.4 -0.3 -2.6 3.4 -1.2 8.9 -5.1 9.2 -6.6 0.6 -3.1 -22.9 -52.2 -25.7 -53.7 -1.2 -0.6 -3.1 -0.2 -6 1.1 -2.4 1 -4.9 1.9 -5.6 1.9 -1 0 -2.5 -2 -2.5 -3.5 0 -0.2 2.8 -2.3 6.3 -4.8 3.4 -2.5 8.2 -6.6 10.7 -9.1 2.4 -2.5 4.9 -4.6 5.6 -4.6 0.6 0 2.4 3 3.9 6.8 4.1 9.7 26.4 54.4 28.3 56.5 1.9 2.2 3.7 2.1 8.8 -0.2 4 -1.8 4.1 -1.8 5.3 0.1 0.7 1.1 1.1 2.1 0.9 2.2 -0.2 0.2 -8.4 4.3 -18.3 9.1 -9.9 4.9 -18.3 9.1 -18.7 9.3 -0.4 0.2 -1.2 -0.7 -1.9 -1.9z"/>
  <path d="M300.5 973.6 l-3 -1.2 0.4 -38.6 c0.1 -21.2 0 -39.5 -0.3 -40.6 -0.4 -1.1 -2 -2.5 -3.6 -3.2 -3.1 -1.3 -3.4 -1.8 -2.4 -4.4 0.9 -2.3 2.2 -2 12 2.7 4.9 2.4 12.6 5.9 17.1 7.7 7.3 3 8 3.5 7.3 5.4 -0.8 2.3 -1.4 2.3 -7.7 0.4 -3.2 -0.9 -4.6 -0.9 -5.4 -0.1 -1.8 1.8 -4.5 58.3 -2.8 58.3 1.2 0 35.1 -32.4 38.4 -36.7 4 -5.2 3.7 -6.1 -2.7 -9.4 -4.2 -2.1 -4.2 -2.2 -2.8 -5 1 -1.9 1.2 -1.8 5.9 0.6 2.7 1.3 8.8 4 13.7 6 4.9 2.1 9.3 4.1 9.7 4.5 0.5 0.4 0.4 1.7 -0.2 2.8 -1 1.8 -1.5 2 -4.2 1 -2.1 -0.7 -3.8 -0.7 -5.3 0 -4 1.8 -26.9 21.3 -48 41 -6.1 5.6 -11.5 10.2 -12.1 10.2 -0.5 -0.1 -2.3 -0.7 -4 -1.4z"/>
  <path d="M755.1 942.1 c-0.9 -1.6 -0.4 -2.3 2.9 -4.6 6.2 -4.3 5.8 -5.8 -7.9 -24.6 -15.9 -21.8 -21.3 -28.3 -23.7 -28.7 -1.1 -0.2 -3.8 1.1 -6.1 2.7 -4 2.9 -4.1 2.9 -5.8 1.1 -1.7 -1.9 -1.5 -2.2 4.3 -8.5 3.4 -3.5 7.3 -8.5 8.7 -11 1.5 -2.5 3.1 -4.5 3.6 -4.5 0.5 0 2.5 2.5 4.5 5.5 2 3 4 5.5 4.4 5.5 0.3 0 1.4 -4.1 2.5 -9.1 2.5 -12.7 6.7 -18 18 -23 5.6 -2.5 13.6 -2.7 18.6 -0.6 5.1 2.1 8.8 6.1 22.6 24.3 12.4 16.4 17.5 22.4 19 22.4 0.4 0 2.8 -1.3 5.3 -3 4.1 -2.7 4.5 -2.8 6.2 -1.3 1 0.9 1.5 1.9 1.1 2.3 -0.5 0.4 -3.9 2.9 -7.8 5.6 -3.8 2.7 -8.6 6.3 -10.6 8.1 -2 1.8 -3.9 3.3 -4.2 3.3 -0.4 0 -3 -3.5 -5.9 -7.7 -6.9 -10.3 -25 -34.3 -27.6 -36.6 -3 -2.7 -8.9 -4.5 -13.1 -4 -8.8 1.1 -17.8 10.4 -18.8 19.7 -0.7 6 1.8 10.3 17 29.6 8.5 10.8 12.9 15.6 14.5 15.8 1.3 0.2 4.1 -0.8 6.3 -2.2 4.6 -3.1 4.6 -3.1 5.9 -0.6 0.9 1.7 0.2 2.5 -6.2 6.8 -4 2.7 -11.3 8.2 -16.2 12.1 -4.9 3.9 -9.2 7.1 -9.7 7.1 -0.5 0 -1.3 -0.8 -1.8 -1.9z"/>
  <path d="M227.2 931.8 c-3.9 -1 -12 -6.6 -14.5 -9.9 -1.1 -1.5 -2.1 -4.6 -2.4 -7 -0.6 -5.7 0.9 -8.3 17.4 -31.3 7.3 -10.1 13.5 -19 13.8 -19.8 0.4 -1 -1 -2.6 -4.4 -4.7 -3.3 -2.1 -4.8 -3.7 -4.4 -4.7 0.6 -1.7 2.2 -1.7 9.5 0 l5.8 1.4 3.3 -4.6 c1.8 -2.6 5 -7.3 7.1 -10.5 3.4 -5.2 4.1 -5.8 6.5 -5.3 1.4 0.3 4.8 0.9 7.4 1.2 2.7 0.4 5.1 1.3 5.4 2 0.3 0.7 -3.6 6.5 -8.6 12.8 -5 6.4 -9.1 11.9 -9.1 12.3 0 0.5 4 3.5 9 6.8 4.9 3.3 8.9 6.5 8.9 7 0 0.6 -1.3 2 -2.8 3.2 l-2.9 2.2 -8.8 -6 c-8.3 -5.8 -8.8 -6.1 -10.1 -4.3 -10.9 14.6 -26.5 36.8 -27.3 38.9 -0.6 1.5 -0.8 3.7 -0.4 4.9 0.9 3.2 6.1 8.2 10.5 10.2 5.4 2.4 4.9 4.7 -1.2 5.4 -2.6 0.3 -6 0.2 -7.7 -0.2z"/>
  <path d="M657.4 880 c-7.5 -3 -7 -15.1 0.7 -17.5 3.5 -1.2 8.8 0.4 10.6 3.1 2.7 4.3 2.1 9.3 -1.5 12.6 -3.3 2.8 -6 3.4 -9.8 1.8z"/>
  <path d="M163 874.9 c-11 -1.7 -21 -9.6 -30.8 -24.3 -2.9 -4.3 -5.2 -8.1 -5.2 -8.6 0 -0.5 1.9 -2.3 4.3 -4.1 2.3 -1.8 6.3 -5.2 8.8 -7.6 l4.5 -4.4 1.9 2.1 c1.8 2 1.8 2.1 -1.2 5.3 -8.5 8.9 -8.2 16.4 0.8 26.2 2.4 2.6 6 5.5 8.1 6.6 10 5.1 21.8 -0.6 21.8 -10.5 0 -3.3 -1.2 -6.2 -5.6 -13.7 -7.9 -13.2 -10.4 -18.8 -10.4 -23.4 0.1 -8.2 6.5 -16.9 14.6 -19.5 5 -1.7 13.8 -0.8 19.9 2.1 2.8 1.3 7.3 4.6 10 7.4 5.4 5.3 12.3 15.8 12.7 19.3 0.2 1.4 -1.7 3.8 -6.7 8.1 -6.4 5.6 -7.1 5.9 -8.7 4.4 -1.6 -1.4 -1.5 -1.7 1.2 -5.2 5.2 -6.5 5.2 -12.5 0 -20.2 -4 -6 -8.6 -8.9 -14.2 -9.1 -8 -0.1 -13.8 4.9 -13.8 11.9 0 1.5 2.3 6.9 5.1 11.8 14 24.7 14.8 29.1 6.4 38.4 -5.4 5.9 -14.1 8.5 -23.5 7z"/>
  <path d="M93.3 800 c-1 -1.8 -6.6 -10.5 -12.5 -19.4 -9.3 -14.2 -10.4 -16.2 -9 -17.3 2.4 -1.9 2.8 -1.7 5.9 3.2 1.5 2.5 3.4 4.7 4.1 5 2.1 0.8 5.5 -1 22.5 -11.7 20.1 -12.7 28.7 -18.7 29.4 -20.4 0.3 -0.8 -0.2 -2.5 -1.1 -3.9 -5.2 -8.1 -4.9 -7.2 -2.6 -8.5 2 -1.1 3 -0.4 10.3 6.8 4.5 4.3 9.2 8.4 10.5 9.1 1.2 0.6 2.2 1.6 2.2 2.1 0 0.5 -3.2 2.8 -7 5.1 -3.9 2.3 -6.9 4.4 -6.6 4.6 0.3 0.3 4.1 0.9 8.6 1.4 9 1 12.2 2.3 16.2 6.6 2.9 3 5.1 7.9 4.3 9.3 -0.3 0.5 -4.4 2.9 -9.1 5.5 -6.8 3.7 -8.9 4.4 -9.6 3.3 -0.4 -0.7 -0.5 -2.2 -0.2 -3.3 1.9 -6 1.6 -9.1 -1.2 -12.4 -1.5 -1.8 -3.9 -3.7 -5.3 -4.3 -4.1 -1.6 -10.6 -1.1 -15.3 1.2 -5.9 2.8 -32.9 21.1 -34.2 23.2 -0.8 1.4 -0.3 3.2 2.2 8.4 1.8 3.6 3.2 6.7 3 6.8 -0.2 0.1 -1.1 0.8 -2 1.5 -1.6 1.2 -2 0.9 -3.5 -1.9z"/>
  <path d="M876 800 c-11.6 -4.3 -22.9 -13.8 -28.1 -23.9 -4.2 -8.1 -3.6 -24.3 1.1 -34.5 7.5 -15.9 24.9 -23.3 39.5 -16.7 6.6 2.9 11.5 6.3 11.5 7.9 0 2.9 -6.4 14 -22.4 38.5 l-5.7 8.8 6.8 3.1 c8.8 4.1 18.4 4.4 25.2 0.9 10 -5.2 16.2 -15 17.7 -28 0.3 -3.3 1 -6.1 1.5 -6.1 0.4 0 1.7 1.3 2.8 2.9 1.9 2.6 2 3.5 1.1 10.7 -1.9 15.2 -11.5 29.6 -23.5 35.4 -7 3.4 -19.8 3.9 -27.5 1z m1.5 -40 c6.1 -9 10.5 -16.6 10.2 -17.4 -0.3 -0.7 -3.4 -2.8 -6.8 -4.5 -6.6 -3.3 -12.5 -4 -17.6 -2 -6.4 2.4 -12.2 10.9 -12.3 18 0 5.4 4.4 13.3 10.2 17.9 2.8 2.2 5.2 4 5.4 4 0.1 0 5.1 -7.2 10.9 -16z"/>
  <path d="M633.2 719.8 c-4.8 -1.6 -11.9 -8.3 -14.8 -13.9 -2.9 -5.9 -4.7 -13.5 -6.8 -28.9 -1.8 -12.7 -2.9 -17.5 -4 -17.5 -0.4 0 -2.3 2.9 -4.3 6.5 -5.4 9.9 -8.2 12.5 -15.2 14.1 -4.9 1.1 -10.3 -1.4 -13.4 -6 -2 -3 -2.7 -5.9 -3.6 -14.7 -1 -9.5 -4.9 -42.3 -6.7 -56.7 -0.7 -5.8 -1.2 -5.4 -4.7 3.9 -4.1 10.6 -8 16.2 -13 18.4 -5.7 2.6 -7.7 2.5 -12.4 -0.9 -7.6 -5.5 -8.4 -11 -6.7 -46.7 0.5 -12.6 0.4 -16 -1.1 -20.9 -2.1 -7.3 -6.5 -12.1 -12.1 -13 -2.1 -0.4 -5 -1.4 -6.2 -2.2 -2.1 -1.3 -2.2 -1.6 -0.8 -2.6 0.9 -0.7 2.5 -3.4 3.5 -6.2 2.2 -5.9 4.1 -6.7 5.9 -2.6 2 4.5 10.8 8.6 16.5 7.7 5.4 -0.9 13.5 -4.5 27.1 -12.3 18.9 -10.8 27.4 -12.7 37.3 -8.3 7.5 3.3 10.3 6.5 10.3 11.7 0 2.4 -0.6 5.6 -1.4 7.1 -1.8 3.5 -10.6 11.7 -13.4 12.6 -2.6 0.9 -2.9 2.6 -0.4 2.6 4.4 0 17.9 -4.7 30.4 -10.6 21.6 -10.2 26.2 -11.7 33.2 -11 12 1.2 20.8 7.7 22.1 16.1 1 6.8 -1.9 10.1 -15.8 18 -6 3.3 -5.1 5 2.6 4.9 3.9 0 6.8 -0.9 11.7 -3.4 19.7 -10.3 16.9 -9.5 32.5 -9.5 13.1 0 14.3 0.2 18.4 2.5 5.4 3.1 8.1 7.9 8.8 15.9 l0.6 5.9 -4.5 4.4 c-2.4 2.5 -7.8 6.8 -11.9 9.5 -4.1 2.8 -8.5 6.3 -9.9 7.7 -3.4 3.7 -1.7 4.6 9 4.6 10 0 16.4 2 22.1 6.8 7.2 6.2 6 12.9 -3.4 19.7 -2.3 1.6 -5.6 4.2 -7.3 5.7 l-3.2 2.8 5.7 5.8 c6.5 6.5 8.8 12.3 7.7 19.3 -1.4 8.5 -7.6 17.3 -15 21.1 -8.3 4.2 -17 1.6 -26.3 -7.9 -2.9 -3 -5.8 -5.1 -6.3 -4.8 -1.4 0.9 -1.2 6.1 0.5 15.2 3.1 15.6 1.6 24 -4.6 26.2 -4.4 1.5 -6.7 1.4 -11.6 -0.8 -7.7 -3.5 -13.4 -10.8 -19.3 -24.6 -2.5 -5.9 -4.1 -4.7 -2.9 2.2 1.7 9.1 -2.5 21.9 -8.7 25.9 -3.1 2.1 -9.9 2.6 -14.2 1.2z m5.4 -30.6 c2.8 -1.9 2.2 -13.1 -2.1 -40.2 -2 -12.7 -1.9 -13.5 1 -14.8 2.3 -1.1 2.7 -0.8 6.1 4.4 4.7 7.4 12.5 21.1 20.4 35.7 6.7 12.5 10.8 16.9 13.9 15 2.8 -1.7 2.5 -12.9 -0.8 -28.8 -3.9 -19.3 -2.6 -19.7 15 -4 14 12.5 20.5 14.8 25.8 9.1 2.7 -2.8 3.3 -5.9 2 -9.4 -1.5 -3.9 -4.4 -6.8 -12.6 -12.3 -3.9 -2.7 -7.5 -5.4 -7.9 -6 -0.9 -1.6 1.5 -2.9 5.5 -2.9 7.3 0 16.1 -6.7 16.1 -12.2 0 -3.8 -3.6 -4.5 -41.5 -7.9 -12.7 -1.2 -17.1 -2.8 -12.4 -4.8 24.6 -10.4 33.2 -15.5 41.2 -24 7.2 -7.7 6.1 -14 -2.9 -15.9 -4.3 -0.9 -5 -0.7 -13.2 3.4 -14.5 7.4 -28.8 11.1 -46.8 12.1 -6.9 0.4 -13.6 0.1 -18 -0.6 -3.8 -0.7 -8.9 -1.5 -11.4 -1.8 -2.5 -0.2 -5.1 -1 -5.9 -1.8 -1.1 -1.1 -0.2 -1.9 5.5 -5 10.9 -6 23.5 -13.5 28.4 -16.9 2.5 -1.8 6.6 -4.2 9.1 -5.4 7.4 -3.6 9 -9.1 3.2 -11.3 -5.9 -2.3 -11.4 -0.6 -32 9.8 -25.6 12.9 -32.9 14.5 -49.1 11.2 -8 -1.6 -12.2 -3.8 -12.2 -6.5 0 -1.8 5.2 -5.6 13.8 -9.8 8.6 -4.3 15.2 -10.5 15.2 -14.1 0 -1.4 -1.1 -3.7 -2.4 -5 -2.4 -2.4 -2.6 -2.4 -6.3 -0.9 -2.1 0.9 -11 5.4 -19.8 9.9 -8.8 4.6 -18.7 9.1 -22 10 -3.3 1 -6.1 1.8 -6.2 1.9 -0.1 0.1 0.6 5.6 1.6 12.1 1.2 8 1.7 16.8 1.6 26.5 -0.1 10.7 0.2 15.3 1.3 17.7 4.5 10.1 12.5 -0.2 13.8 -17.7 0.3 -4.1 0.7 -8.5 1 -9.7 1.3 -6.6 11.9 2.6 18.3 15.9 5.8 11.9 9.2 27.4 10 45.7 0.6 13.5 0.7 14.4 2.7 15.2 5.9 2.1 9.6 -8.5 11.4 -33.1 1.3 -16.3 2.3 -19.6 5.7 -17.4 4.1 2.5 17.4 34.4 19.2 45.9 4.3 27.2 6.2 36 8.2 37.8 2.2 1.7 6.5 2.2 8.5 0.9z"/>
  <path d="M59.8 716.4 c-16.5 -5.1 -29.9 -23.4 -30.2 -41.4 -0.1 -6.6 0.3 -8.4 3.1 -14.1 5.7 -11.5 17.9 -20.5 32 -23.4 23.7 -5 44.9 10.3 49.4 35.5 2.2 12.5 -1.8 24.7 -10.9 33.2 -5.6 5.2 -10.2 7.9 -18.1 10.2 -6.7 2 -18.9 2 -25.3 0z m13.1 -13 c13.2 -3.8 25.7 -12.4 30.8 -21.2 8.2 -13.9 -2.5 -33.2 -18.4 -33.2 -9.8 0.1 -23.6 5.4 -33.9 13.2 -9 6.8 -12.8 13.5 -12.7 22.2 0.1 6.8 2.4 11.7 7.4 16 6.5 5.5 14.9 6.5 26.8 3z"/>
  <path d="M941.5 711.7 c-3.7 -3.7 -4.4 -7 -2.4 -11 4.9 -9.5 18.9 -6.4 18.9 4.2 0 5.5 -3.2 9 -8.7 9.8 -3.9 0.5 -4.6 0.2 -7.8 -3z"/>
  <path d="M332 712.2 c-6.3 -2.5 -8.6 -6.3 -9.9 -16.9 -1.7 -13.8 -3.1 -22.6 -3.7 -23.2 -1.1 -1.2 -3.8 1.8 -7.1 7.9 -4.2 7.8 -5.5 9.3 -11.2 13.3 -6 4.1 -11.3 5.2 -15.2 3.1 -3.9 -2 -5.6 -6.2 -6.8 -16.2 -0.5 -4.4 -1.1 -8.4 -1.5 -9 -0.4 -0.6 -2.8 -0.3 -6.7 0.9 -6.9 2.2 -9.8 2.3 -15.2 0.8 -11.2 -3.1 -20.5 -21 -16.8 -32.2 0.7 -2 3 -5.2 5.2 -7.1 3.7 -3.2 14.7 -7.6 18.9 -7.6 1 0 2.1 -0.4 2.5 -0.9 1.1 -1.9 -3.8 -5 -12.8 -8.1 -11.1 -3.8 -16.9 -7 -19.6 -10.9 -4.7 -6.5 1.3 -16.1 12.3 -19.5 4.6 -1.5 8 -1.8 17.2 -1.4 6.8 0.3 11.3 0.1 11.1 -0.5 -0.1 -0.5 -2.4 -1.7 -5 -2.7 -13 -5 -21.1 -18.6 -16.3 -27.8 3.6 -6.8 11.9 -11.2 21.6 -11.2 8.2 0 13.1 1.3 30.6 8.4 13.7 5.4 17.4 6.5 17.4 4.9 0 -0.5 -2 -4.1 -4.5 -8.2 -5.5 -9.2 -6.3 -12.7 -4 -18.7 3.7 -9.7 11.9 -10.9 27.3 -4 17.2 7.7 55.4 23.8 55.7 23.4 0.2 -0.2 -2.1 -3.5 -5.1 -7.3 -6.5 -8.3 -9.4 -14.4 -9.4 -19.6 0 -8.2 4.8 -12.4 14 -12.3 5.8 0.1 10.1 1.8 19.5 7.9 30.8 19.7 33.5 21 42.8 20.9 5.5 -0.1 6 -0.3 10.5 -4.7 2.6 -2.6 5.3 -4.7 5.9 -4.7 0.6 0 1.6 1.3 2.3 2.9 0.6 1.6 2.2 3.9 3.6 5.2 1.3 1.2 2.4 3.1 2.4 4.1 0 1.4 -0.8 1.8 -3.9 1.8 -2.8 0 -5.3 1 -8.7 3.3 -7.2 5 -8.3 9.5 -8.9 35.1 -0.2 11.1 -0.8 21.5 -1.3 23.1 -1.9 6.3 -5.4 11.6 -9.4 14.5 -13.8 10 -22.8 4.2 -25.7 -16.5 l-0.8 -6 -1.7 3.8 c-2.7 6 -4.4 15.9 -6.1 33.7 -1.8 20.4 -3.1 25.6 -7.9 31.4 -4.7 5.8 -8.2 8.2 -14 9.8 -3.9 1 -5.3 1 -8.8 -0.2 -6.3 -2.2 -8.2 -6.1 -8.3 -17.7 -0.1 -5.1 -0.5 -9.6 -0.8 -10 -1.1 -1 -3.9 2 -5.9 6.4 -1.3 3 -1.9 7.4 -2.3 16.3 -0.4 12.4 -1.5 17.6 -4.5 22 -1 1.4 -2.7 4.4 -3.9 6.8 -2.7 5.3 -8.5 11.8 -12.2 13.8 -3.7 1.8 -9.3 1.7 -14.9 -0.4z m16.6 -25.8 c2.8 -2.9 3.4 -4.3 3.5 -8.2 0 -2.6 0.2 -5.4 0.3 -6.2 0.2 -0.8 0.6 -4.3 1 -7.6 1.4 -13.1 7.7 -30.9 15.5 -44.1 5.5 -9.5 16.9 -23.3 19.1 -23.3 0.7 0 1 5.4 0.8 17.8 -0.2 9.7 -0.2 22.6 0 28.7 0.4 15.6 3 18.9 9.7 12.2 4.2 -4.2 5.2 -9.3 6.1 -30.2 1 -27.1 3.8 -36.1 14.9 -48.8 5.4 -6.2 7.3 -7.7 9.6 -7.7 1.5 0 3.1 0.6 3.6 1.3 0.4 0.6 0.7 6.4 0.5 12.7 -0.4 17.8 1.9 24 9 24 1.7 0 3.1 -0.7 3.8 -2.1 0.6 -1.1 1.6 -10.9 2.1 -21.7 0.5 -10.8 1.6 -22.8 2.4 -26.7 0.8 -3.8 1.1 -7.2 0.7 -7.6 -0.4 -0.4 -5.8 -2.7 -12 -5.2 -6.3 -2.5 -12.3 -5.4 -13.5 -6.5 -1.2 -1.1 -4.7 -3 -7.7 -4.2 -3 -1.2 -6.4 -3 -7.5 -4 -2.1 -2 -8.2 -4.7 -10 -4.5 -2.9 0.3 -5.5 1.8 -5.5 3.1 0 5.1 6.3 12.3 17.8 20.3 3.4 2.4 6.2 4.9 6.2 5.6 0 2 -7.3 5.2 -13.5 5.9 -16.3 1.7 -43.5 -6.4 -63.4 -18.8 -5 -3.2 -8.1 -1.9 -8.1 3.3 0 3.5 9.6 12.3 24.8 22.5 12.6 8.5 15.2 11.3 12.1 13.1 -1.9 1.2 -15.4 0.6 -29 -1.4 -11.3 -1.7 -16.6 -3.2 -34 -9.5 -22.3 -8 -24.9 -8.4 -27.4 -3.5 -1.9 3.6 -1.9 3.4 0.8 5.9 3.2 3.1 10.1 6.5 25.7 12.5 17.8 7 21 8.6 21 10.4 -0.1 4.4 -0.3 4.4 -32.5 4.3 -33.4 -0.1 -36.9 0.4 -35.8 4.9 1 3.7 8.7 7.6 27.3 13.8 14.1 4.7 14.9 5.9 5.8 10 -3.5 1.5 -9.7 3.8 -13.8 5.1 -13.4 4 -19 7.9 -19 13.3 0 5.5 1.1 7.5 4.7 9.2 4.7 2.2 8.3 1.6 19.2 -3.4 7.7 -3.6 11.1 -4.8 11.1 -3.8 0 0.1 -0.9 2.8 -2 6 -3.1 8.8 -2.3 15.7 2.3 19.6 2.8 2.3 6.1 -0.9 17.7 -17.1 15.5 -21.8 19 -26.2 20.1 -25.1 0.5 0.5 0.4 3.6 -0.3 7.3 -1.9 10.9 -1.5 34.4 0.6 41.8 3.1 10.5 9.1 13.1 15.2 6.6z"/>
  <path d="M862 637 c0 -1 0.9 -5.9 2.1 -10.7 1.1 -4.8 2.9 -13.9 3.9 -20.2 1.1 -6.2 2.2 -11.6 2.4 -11.9 0.3 -0.2 1.7 -0.1 3.1 0.2 2.8 0.7 2.7 0.3 0.9 10.6 -0.2 1.4 0 3.1 0.5 3.8 1.2 1.9 8.9 0.8 60.9 -8.9 5.6 -1 15 -2.8 20.8 -3.8 5.8 -1.1 10.8 -2.1 11 -2.3 0.1 -0.2 -3.2 -2.5 -7.4 -5.1 -4.2 -2.7 -12.9 -8.2 -19.2 -12.3 -19.1 -12.5 -36.1 -22.9 -44.5 -27.3 -8 -4.3 -8 -4.3 -9.6 -2.2 -1 1.2 -2.3 4.3 -3 7.1 -1.1 4.1 -1.7 5 -3.5 5 -1.3 0 -2.5 -0.4 -2.8 -0.9 -0.3 -0.4 0.6 -5.7 1.9 -11.7 1.4 -6 2.8 -13.4 3.1 -16.6 0.8 -7 1.5 -8.2 4.3 -7.3 1.7 0.5 2.1 1.4 2.1 5 0 3.8 0.4 4.7 3.8 7.3 4.4 3.5 39.5 26.6 82.7 54.4 3.9 2.5 8.9 5.5 11.2 6.6 l4.1 2.1 -1 4.3 c-0.5 2.3 -1 4.3 -1.1 4.4 -0.1 0 -5.1 0.8 -11.2 1.8 -9.7 1.5 -25.6 4.5 -88.5 16.7 -8.5 1.7 -16.4 3.7 -17.6 4.4 -1.1 0.7 -2.6 3.1 -3.3 5.4 -1 3.4 -1.6 4.1 -3.6 4.1 -1.8 0 -2.5 -0.5 -2.5 -2z"/>
  <path d="M101.8 594.6 c-0.5 -2.3 0 -2.6 6.6 -4.2 3.9 -0.9 7.4 -1.9 7.8 -2.3 2 -1.8 1.3 -24.6 -1.2 -36.5 l-1.2 -5.9 -12.2 0.7 c-6.6 0.3 -13 0.8 -14.1 1 -1.1 0.2 -5.8 0.7 -10.4 1.1 l-8.4 0.7 0.7 10.2 c0.7 11.2 2.9 23.1 4.7 25.2 0.7 0.9 3.2 1.4 7 1.4 5.9 0 5.9 0 5.9 3 0 2.9 -0.1 3 -5.2 3.1 -2.9 0 -6.4 0.2 -7.8 0.4 -1.4 0.2 -7 0.9 -12.5 1.5 -5.5 0.6 -10.8 1.3 -11.7 1.6 -1.4 0.4 -1.8 -0.1 -1.8 -2.5 0 -2.9 0.2 -3 6.2 -4.2 9.2 -1.8 10.2 -3.2 9.4 -13.8 -0.6 -8.2 -2.6 -24.4 -2.9 -24.8 -0.1 -0.1 -3.8 0.3 -8.2 0.8 -40.9 4.7 -40.2 4.5 -41.1 9.5 -0.3 1.9 -0.4 5.2 0 7.3 0.5 3.5 0.4 3.9 -1.9 4.4 -1.4 0.2 -2.7 0.2 -2.9 -0.2 -0.2 -0.3 -0.7 -5.1 -1.1 -10.6 -0.6 -9.6 -2.9 -28.9 -4.1 -34.7 -0.5 -2.5 -0.3 -2.8 2.3 -2.8 2.8 0 3 0.3 4.1 6.3 1.5 7.9 2.9 9 10.7 8.3 3.3 -0.4 13 -1.3 21.5 -2.1 8.5 -0.8 21.8 -2.1 29.5 -3 7.7 -0.8 16.5 -1.7 19.5 -2 3 -0.4 8.4 -1 12 -1.5 3.6 -0.5 7.1 -1 7.8 -1 0.6 0 2.1 -0.9 3.2 -2 1.6 -1.6 2 -3.3 2 -8.5 0 -6.1 0.1 -6.5 2.3 -6.5 2.3 0 2.4 0.4 3.6 12.8 0.6 7 2.3 21.5 3.6 32.2 2.9 22.5 4.4 38.2 3.8 39.3 -0.2 0.4 -6 0.7 -12.7 0.7 -12.3 0 -12.4 0 -12.8 -2.4z"/>
  <path d="M983.5 526.8 c-3.5 -1.9 -5.5 -5.2 -5.5 -9.1 0 -10.1 13.9 -13.6 18.5 -4.7 2.4 4.6 1.9 7.8 -1.9 11.6 -3.6 3.6 -7.3 4.3 -11.1 2.2z"/>
  <path d="M483 504.5 c0 -0.3 0.6 -1.6 1.4 -2.8 1.6 -2.4 2 -5 1.8 -11.7 -0.2 -4 -0.8 -4.9 -5.9 -10 -3.7 -3.5 -10.8 -8.4 -19.8 -13.5 -15.9 -9.1 -24.3 -16.5 -26.3 -23.1 -2 -6.7 -1.6 -15.7 0.9 -18.7 4.4 -5.7 14.5 -5.8 25.4 -0.3 2.5 1.3 4.8 2 5.1 1.5 1 -1.7 -13.3 -14.6 -26.1 -23.4 -17.3 -11.9 -22.9 -17.2 -25.6 -24.4 -2.6 -6.8 -2.8 -15.4 -0.6 -19.8 4.5 -8.7 12.3 -9.5 24.2 -2.4 7.7 4.6 8.5 4.8 8.5 2.6 0 -4.3 -4.2 -9.5 -11.2 -14 -19.5 -12.7 -17.9 -11.1 -25.9 -26 -4.3 -8.1 -5.2 -10.6 -5.3 -15 0 -4.6 0.4 -6 3 -9.2 1.7 -2.1 4.6 -4.9 6.5 -6.1 4.6 -3.2 10 -2.6 20.9 2.2 12.6 5.6 19 8 19.7 7.3 0.3 -0.4 -0.7 -3 -2.2 -5.9 -6.8 -12.6 -7.5 -14.4 -7.6 -19.8 -0.3 -9.7 0 -11.1 3 -14.1 4 -4 8.3 -3.8 18.1 0.6 4.3 1.9 8.4 3.5 9.2 3.5 1.1 0 1.9 -1.8 2.7 -5.8 2.6 -13.2 10.5 -19.7 23.6 -19.7 14.5 0.1 23.4 7.4 23.5 19 0 3.7 -2 13.8 -3.5 17.8 -0.6 1.3 -0.2 1.7 1.6 1.7 1.5 0 5.8 -2.9 11.4 -7.6 14.3 -12 21.8 -14.4 26.9 -8.4 6.8 8.2 3.8 23.7 -7.3 37.8 -4.8 6.1 -3.4 6.8 3 1.7 2.4 -1.9 5.1 -3.5 5.9 -3.5 0.8 0 2.4 -0.7 3.4 -1.5 3.1 -2.3 14.1 -2 18.2 0.5 6.9 4.3 9.2 15.1 5.5 25 -2.9 7.6 -7.9 13 -23.7 25.6 -7.9 6.3 -14.4 11.9 -14.4 12.4 0 0.6 4 1 9.8 1 11.1 0.1 14.6 1.4 18.7 7 5.2 7 2.4 15.7 -7.3 22.4 -11 7.6 -52.3 38.9 -51.9 39.3 0.3 0.2 2.6 -0.1 5.3 -0.8 2.7 -0.6 8.5 -1.2 12.9 -1.2 9.5 -0.2 14.9 2 17.8 7.1 1.7 2.9 1.8 3.8 0.8 7.9 -2.4 9.3 -5.3 11.7 -29.6 24.3 -21.5 11.1 -26 14.6 -29.7 22.8 -1.8 4.1 -1.9 4.5 -0.3 9.2 2.5 7.6 2.2 8 -6.7 8.6 -4.3 0.2 -7.8 0.2 -7.8 -0.1z m20.1 -37.8 c5.8 -4.6 11.6 -8.7 13 -9 1.4 -0.4 4.6 -2.2 7 -4.1 2.5 -1.9 6.7 -4.4 9.3 -5.6 5.3 -2.6 7.6 -5.3 7.6 -9.2 0 -2.3 -0.5 -2.8 -3.4 -3.3 -4.9 -1 -12.9 1 -22.5 5.5 -4.7 2.1 -8.8 3.7 -9.3 3.4 -2 -1.2 -0.7 -9.8 2.3 -15.7 7.4 -14.7 18.4 -26.1 36.4 -37.8 17.5 -11.4 16.1 -10.2 14.7 -13.3 -2.3 -5.2 -11 -3.2 -34.6 8.1 -13.6 6.5 -16.2 7 -17.3 3.7 -0.5 -1.6 6.5 -12.4 15.2 -23.4 4.4 -5.6 8.2 -10.5 8.5 -10.9 0.3 -0.3 8.3 -7.1 17.8 -15 16.8 -14 17.2 -14.5 17.2 -18.2 0 -3 -0.6 -4.2 -2.5 -5.5 -2.3 -1.5 -2.7 -1.4 -8.3 1.6 -3.2 1.7 -10.4 6.7 -15.8 11.2 -5.4 4.4 -12.5 10 -15.7 12.5 l-5.9 4.6 -2.1 -2.2 -2.2 -2.1 3 -5.7 c1.7 -3.1 8.6 -14.9 15.3 -26.2 9.9 -16.4 12.4 -21.4 12.5 -24.6 0.2 -3.6 -0.1 -4 -2.3 -4.3 -3.4 -0.4 -12 5.4 -24.3 16.2 -5.4 4.8 -10.4 8.5 -11 8.3 -2 -0.6 -1.9 -5.3 0.2 -16.6 4.3 -22.5 4 -26.5 -2.4 -29.6 -4.5 -2.1 -5.9 -1.9 -9.5 1.2 -4.1 3.4 -4.9 5.7 -6 17.5 -0.5 5.5 -1.2 10.4 -1.6 10.9 -0.3 0.5 -2.6 -1.3 -5.1 -4.1 -2.5 -2.8 -5.8 -5.7 -7.4 -6.5 -3.4 -1.8 -10.5 -2 -11.6 -0.2 -1.4 2.3 -0.1 6.2 9.9 28.5 5.5 12.3 9.7 23 9.4 23.8 -0.4 1.1 -2.7 -0.2 -8.8 -4.9 -11.5 -8.7 -19.4 -13.3 -28.8 -16.8 -12.9 -4.7 -19.3 -3.4 -19.3 4 0 5.7 2.2 8.7 10.1 13.9 19.2 12.7 37.4 35.1 43.6 53.5 0.9 2.7 2.3 6.1 3.1 7.7 1.4 2.8 2.1 8 1 8 -0.3 0 -7 -3.9 -14.8 -8.6 -7.8 -4.7 -17.1 -9.9 -20.6 -11.6 -3.4 -1.6 -7.9 -4.1 -9.9 -5.4 -2.5 -1.8 -4.7 -2.4 -7.2 -2.2 -3 0.3 -3.5 0.7 -3.8 3 -0.4 3.1 2.6 9.4 6 12.5 1.2 1.1 8.8 6.3 16.8 11.3 23.5 14.9 30.7 22.2 35.3 36 3 8.9 3.3 10.8 2.3 13.8 -1.1 3.3 -4.3 2.8 -11.7 -1.8 -8.9 -5.6 -15.7 -8.8 -20.4 -9.5 -3.8 -0.6 -4.1 -0.4 -6.4 3 -1.9 2.8 -2.2 4.1 -1.4 5.3 0.5 1 8.7 6.7 18.1 12.7 9.5 6.1 19.3 13.2 21.9 15.8 2.6 2.6 5 4.7 5.3 4.7 0.3 0 5.2 -3.8 11.1 -8.3z"/>
  <path d="M154.1 299.6 c-0.8 -1 -1 -3 -0.6 -5.9 l0.7 -4.4 -14.4 -12 c-27.3 -22.8 -63.5 -50.3 -66 -50.3 -0.5 0 -3 2 -5.7 4.5 -4.7 4.4 -4.8 4.5 -6.6 2.5 -1.7 -1.8 -1.5 -2.1 3.8 -8.4 3.1 -3.6 12.2 -15.3 20.2 -26 22.5 -30 34.4 -39.9 51 -42.5 23.5 -3.7 47.2 10.4 59.8 35.5 6.5 12.8 8 30.5 3.8 44.4 -3.7 12.2 -7.3 18 -26.6 41.6 -4.9 6 -10.8 13.6 -13 16.7 -2.2 3.1 -4.3 5.7 -4.6 5.7 -0.4 0 -1.2 -0.6 -1.8 -1.4z m18.1 -32.1 c17.2 -19.5 23 -35.5 18.8 -51.6 -4.2 -15.9 -22.8 -34.8 -40.4 -41 -11.4 -4 -22 -3.3 -32.8 2.2 -7.8 3.9 -28.1 26.7 -31.3 35.1 -0.7 1.9 29.9 26.6 72.4 58.5 6.3 4.7 6.2 4.8 13.3 -3.2z"/>
  <path d="M824.9 279.3 c-3.7 -5.9 -11.3 -16.7 -18.9 -27.1 -1.9 -2.6 -2.1 -3.4 -1 -4.7 1.8 -2.2 2.3 -2 5.9 3 3.4 4.7 5.5 5.4 9.4 3.4 6.7 -3.5 41.3 -27.7 44.2 -30.9 2 -2.2 1.7 -3.4 -2.5 -9.7 l-2.1 -3.2 2.1 -1.1 c1.9 -1 2.9 -0.5 8.8 5.2 3.7 3.5 8.4 7.4 10.5 8.7 2 1.2 3.7 2.8 3.7 3.4 0 0.7 -3.1 3.2 -6.9 5.7 -3.8 2.5 -6.9 4.6 -6.7 4.7 0.1 0.2 3.4 0.5 7.2 0.8 11.3 0.9 13.3 1.5 17 4.7 3.9 3.4 6.8 8.3 6.1 10.2 -0.3 0.6 -4.1 3.3 -8.6 6 -6.6 3.9 -8.4 4.6 -9.6 3.6 -1.1 -0.9 -1.2 -1.7 -0.5 -3 1.6 -3.1 1.1 -9 -1 -12 -2.7 -3.7 -9.3 -6.3 -14.1 -5.5 -2.1 0.4 -6.2 2.1 -9.2 3.9 -9.6 5.8 -31.7 22.7 -31.7 24.3 0 0.8 1.4 4.2 3.1 7.4 2.6 4.8 2.9 6.1 1.9 7.4 -0.7 0.8 -1.6 1.5 -2 1.5 -0.5 0 -2.7 -3 -5.1 -6.7z"/>
  <path d="M787.9 226.6 c-11.8 -3.3 -23.3 -12.7 -29 -23.7 -3.1 -5.9 -3.4 -7.1 -3.4 -15.4 0 -8.3 0.3 -9.6 3.4 -15.9 6.8 -13.9 23.8 -26.6 35.6 -26.6 17.5 0 32.7 8.5 39.2 21.9 2.3 4.5 2.8 6.9 2.8 12.6 -0.1 8.2 -2.7 14.2 -9.7 21.9 l-4.3 4.8 -6.4 -4.8 c-3.5 -2.6 -12.9 -11.1 -20.8 -18.8 l-14.4 -14 -2.5 3 c-1.3 1.6 -3.7 5.6 -5.4 8.8 -8.4 16.5 1 35.1 20.9 41.1 6.6 2 7.6 3.5 3.6 5.3 -3.1 1.4 -3.6 1.4 -9.6 -0.2z m30.5 -38.9 c4.2 -5.2 7.5 -12.2 7.6 -16 0 -6.4 -4.7 -13.4 -11.2 -16.8 -7.5 -3.9 -16.6 -1.9 -25.3 5.6 l-4 3.4 14 14 c7.7 7.8 14.3 14.1 14.7 14.1 0.4 0 2.3 -1.9 4.2 -4.3z"/>
  <path d="M247.3 182.5 c-13 -4 -24.8 -16.6 -29.3 -31.4 -2.6 -8.1 -2.5 -14.2 0.1 -22 10.3 -30.4 44.4 -37.9 60.1 -13.2 l2.8 4.5 -2.8 2.9 c-3.6 3.9 -16.1 13.5 -29.9 23.1 l-11.2 7.8 2.6 3.4 c9.3 12.2 24.5 15.8 37.3 8.8 6 -3.2 9.8 -7.3 14.2 -15 1.6 -3 3.5 -5.3 4.2 -5.1 2.1 0.7 1.8 7.5 -0.6 12.4 -8.8 17.7 -31.2 29 -47.5 23.8z m1.8 -44.4 c19.4 -13.2 17.7 -11.3 14.3 -16.2 -5.3 -7.7 -14.9 -12.8 -21.4 -11.4 -5.1 1.1 -11.8 6.2 -14.1 10.6 -1.6 3.3 -2 5.5 -1.7 9.8 0.6 7.1 5.4 17.4 7.9 16.8 0.9 -0.3 7.7 -4.6 15 -9.6z"/>
  <path d="M716.8 168.1 l-12.8 -6.8 3.2 -4.9 c3.9 -6.1 19.2 -34.3 21.9 -40.4 4.9 -10.9 1.1 -19.9 -10.5 -25.1 -8.4 -3.7 -19.3 -1 -23.9 6 -4.8 7.3 -20.6 40.1 -20.1 41.6 0.4 0.9 2.6 2.7 5 4.1 4.8 2.8 5.2 3.5 2.9 5.4 -1.2 1 -2.9 0.4 -9.2 -3.3 -4.3 -2.4 -12.4 -6.8 -18 -9.6 -5.7 -2.8 -10.3 -5.5 -10.3 -5.9 0 -0.4 0.4 -1.4 0.9 -2.2 0.8 -1.2 1.7 -1.1 5.9 0.9 7.9 3.7 5.2 7.3 32 -42.4 18.5 -34.4 28.6 -55 27.8 -56.4 -0.4 -0.6 -2.9 -2.3 -5.6 -3.6 -4.7 -2.4 -4.9 -2.6 -3.8 -5 0.8 -1.8 1.7 -2.4 2.7 -1.9 6.6 2.7 16.4 5.5 20.9 6.1 2.9 0.3 5.5 1 5.8 1.4 0.3 0.5 -2.4 5.9 -5.9 12.1 -9.6 16.7 -25.7 47.1 -25.3 47.5 0.2 0.2 4.1 -0.6 8.7 -1.7 9.9 -2.6 15.5 -2.2 22.7 1.4 6.3 3.2 12.8 10.6 14.5 16.4 2.3 7.7 0.8 12.2 -11.7 36.6 -6.4 12.4 -11.6 23.4 -11.6 24.5 0 2 3.8 5.6 7.1 6.6 2.2 0.7 2.4 1.5 0.7 3.7 -1.2 1.4 -2.7 0.9 -14 -5.1z"/>
  <path d="M336.4 134.6 c-4.3 -1.9 -9.6 -8.5 -11.8 -14.8 -6.8 -19.3 -11.1 -31.1 -13.3 -36 -2.9 -6.5 -4.2 -7 -10.8 -4.2 -3.1 1.3 -3.9 1.3 -4.6 0.2 -1.7 -2.6 -0.8 -3.7 5 -6.8 3.3 -1.8 8.7 -5.4 12.1 -8.2 3.4 -2.7 6.4 -4.7 6.6 -4.5 0.3 0.3 3.6 9.8 7.5 21.3 12 35.5 14.4 40 22.8 41.1 7.7 1 17.3 -4.3 21 -11.6 4.1 -8 4.2 -10.5 1.1 -20.2 -4.5 -13.7 -10.9 -29.6 -12.5 -30.9 -1.1 -0.9 -2.5 -0.8 -6.4 0.5 -2.8 0.9 -5.5 1.4 -6.1 1 -1.7 -1 -1.1 -4.3 0.9 -5 3.2 -1 14.4 -8.5 18.3 -12.2 3.5 -3.4 5.8 -3.7 5.8 -0.8 0 5.2 21.9 64.2 24.5 66.1 1.2 0.9 2.7 0.8 6.6 -0.4 4.4 -1.4 5.1 -1.4 5.9 -0.2 0.6 0.8 0.8 1.9 0.7 2.4 -0.2 0.5 -4.6 2.4 -9.8 4.2 -5.2 1.7 -11.1 3.9 -13.2 4.8 -4.3 1.9 -3.7 2.5 -6.7 -7.1 l-1.8 -5.7 -4.6 9.2 c-3.5 6.9 -5.6 9.9 -8.7 12.2 -8.7 6.3 -21.2 8.7 -28.5 5.6z"/>
  <path d="M608.8 122.5 c-9 -2.3 -14.9 -5.5 -20.9 -11.5 -10.4 -10.3 -12.4 -24.9 -6 -42.1 4.6 -12.2 11.6 -19.5 21.6 -22.4 12.5 -3.6 20.5 -4.7 26.3 -3.7 8.4 1.5 16.4 4.8 20.6 8.5 l3.7 3.2 -4.2 10 c-2.3 5.5 -4.2 10.1 -4.3 10.2 -0.1 0.1 -1.2 0 -2.5 -0.4 -1.7 -0.4 -2.1 -1.1 -1.7 -2.7 1.9 -8 1.8 -9.2 -0.9 -12.4 -1.4 -1.7 -5.5 -4.6 -9.1 -6.3 -10.4 -5.2 -20 -4.2 -26.6 2.8 -3.5 3.6 -7.5 12.5 -8.8 19.3 -3.1 16.4 0.8 29.3 11.2 36.2 5.5 3.7 10.7 5.1 20.2 5.2 9 0.1 10.3 1.2 5.5 4.7 -4 2.8 -15.6 3.5 -24.1 1.4z"/>
  <path d="M444.3 106 c-6.2 -3.7 -7.5 -7.6 -9.8 -30 -0.8 -8 -2 -18.5 -2.6 -23.4 l-1.2 -8.8 -4.9 0.6 c-2.6 0.4 -5.5 0.9 -6.3 1.2 -1 0.4 -1.5 0 -1.5 -1.4 0 -1.4 1.7 -3 5.5 -5.2 3 -1.7 5.7 -3.5 6 -4.1 0.4 -0.5 -0.2 -6.4 -1.1 -13.1 -1.2 -8.2 -1.4 -12.3 -0.7 -12.5 0.6 -0.2 3.7 -2 6.9 -3.9 3.1 -1.9 6.1 -3.1 6.5 -2.7 0.5 0.5 1.1 5.8 1.5 11.8 0.3 6.1 0.7 11.9 0.9 13 0.2 1.1 0.4 2.9 0.4 3.9 0.1 2 1.8 2 17.9 0 l5.2 -0.7 0 4 c0 4.6 0.1 4.6 -13.8 5.9 -4 0.4 -7.4 1 -7.7 1.4 -0.7 1.2 4.4 46.3 5.6 49.3 2.2 5.3 10.1 7.2 18.2 4.3 5.3 -1.9 5.9 0.1 1.7 5.4 -2.3 2.9 -4.4 4.4 -8.3 5.5 -7.1 2.1 -14.5 1.9 -18.4 -0.5z"/>
  <path d="M505.9 106 c-9.5 -1.6 -15.9 -3.2 -16.4 -4 -0.3 -0.4 -0.1 -3 0.4 -5.7 0.6 -2.7 1.1 -7.7 1.2 -11.1 0.2 -6.1 0.3 -6.2 3.1 -6.2 2.7 0 2.8 0.2 2.8 5.3 0 9.9 5.4 16 15.5 17.2 10.3 1.3 18 -1.2 22.7 -7.5 4.5 -6.1 2.7 -15.4 -3.6 -18.4 -1.8 -0.9 -8.9 -3.1 -15.6 -5.1 -6.8 -1.9 -14.1 -4.7 -16.3 -6.1 -8.3 -5.5 -10.4 -19.7 -4.1 -28.6 4.1 -5.9 13.8 -10.8 22.6 -11.5 6.9 -0.6 19.9 1.7 25.1 4.3 3 1.6 3.4 4.3 2.1 15.2 -0.6 4.5 -1 5.2 -2.9 5.2 -1.9 0 -2.3 -0.7 -2.8 -4.9 -0.3 -2.7 -1.1 -5.8 -1.8 -6.8 -3.5 -5.7 -15.5 -9.6 -22.7 -7.5 -7.4 2.2 -12.2 9.4 -10.7 16.1 1.1 5.3 5.1 7.7 19.9 12.1 16.7 5 21 7 23.6 11.3 7.6 12.5 -1.3 30.6 -17.6 35.7 -6.8 2.1 -15.8 2.5 -24.5 1z"/>
 </g>
 <g fill="#000000">
  <path d="M488.7 824.8 c-1.3 -2.4 -8.8 -15.3 -16.7 -28.8 -7.9 -13.5 -15.7 -27 -17.5 -30 -1.7 -3 -5.8 -10 -9 -15.5 -24.2 -41.1 -24.9 -42.2 -34.2 -44 -4 -0.8 -5.9 -1.7 -6.1 -2.8 -0.3 -1.6 2.4 -1.7 32.6 -1.7 30.9 0 33 0.1 32.8 1.8 -0.2 1.3 -1.7 1.8 -6.8 2.4 -12.2 1.2 -13.7 3.6 -8.4 14.2 3.1 6.3 12.5 22.7 27.5 48.1 2.6 4.4 7.6 12.8 11.1 18.8 l6.3 10.7 13.2 -26.7 c22.1 -45 25.9 -53.4 25.8 -57.2 -0.2 -5.3 -4.9 -8.1 -13.9 -8.1 -2.7 0 -3.4 -0.4 -3.4 -2 0 -1.9 0.7 -2 25 -2 24.3 0 25 0.1 25 2 0 1.5 -0.7 2 -2.7 2 -5 0.1 -11.1 3.6 -14.5 8.5 -3 4.2 -25.3 47 -49.6 95.3 -11 21.7 -12 22.7 -16.5 15z"/>
  <path d="M219.3 471.5 c0 -0.9 1 -1.7 2.1 -1.9 15.5 -2.8 16 -3 18.3 -8.3 1.8 -4.4 1.8 -96 0 -101.3 -1.5 -4.2 -4.5 -5.8 -13.7 -7.2 -5.4 -0.8 -6.7 -1.3 -6.6 -2.7 0.3 -1.4 3.7 -1.6 34.7 -1.9 35.2 -0.3 55 0.7 68.7 3.4 31.7 6.3 51.8 20.8 58.4 41.9 3.2 10 3.1 24.5 0 33.7 -5.2 15.1 -16 26.6 -32.6 34.7 -20.1 9.8 -30.2 11.1 -86.7 11.1 -37.5 0 -42.6 -0.2 -42.6 -1.5z m83.5 -7 c31.1 -5 48.3 -18.6 52.7 -41.8 1.6 -8.2 1.2 -19.8 -1 -27.2 -5 -17.6 -21.4 -31.2 -43.9 -36.5 -8.2 -2 -25.2 -3.8 -31.1 -3.4 -1.6 0.1 -4.5 0.3 -6.2 0.3 -1.9 0.1 -4.2 1 -5.3 2.1 -1.9 1.9 -2 3.3 -2 52.8 0 47.2 0.1 51 1.8 52.4 0.9 0.9 2.6 1.8 3.7 2.1 3.8 1 23.3 0.5 31.3 -0.8z"/>
  <path d="M625 471 c0.7 -1.4 2.1 -2 4.4 -2 5.3 0 13 -2.7 14.6 -5.2 1.3 -2 1.5 -9.7 1.8 -50.8 0.2 -33.8 0 -49.7 -0.8 -52.3 -0.9 -3.2 -1.9 -4.2 -5.3 -5.7 -2.3 -1 -6.7 -2.1 -9.8 -2.4 -5 -0.6 -5.6 -1 -5.2 -2.7 0.5 -1.9 2 -1.9 65.3 -1.9 60.9 0 64.9 0.1 65.3 1.8 0.3 0.9 0.6 7.2 0.7 14 l0.2 12.2 -3.4 0 c-3.3 0 -3.5 -0.3 -5.1 -5.4 -2.1 -6.6 -6 -11 -11.3 -12.7 -4.5 -1.4 -61.1 -2.5 -63.1 -1.1 -0.9 0.6 -1.2 6.7 -1.3 22.7 0 12.1 -0.1 22.6 0 23.3 0 1.5 38.9 1.7 47.1 0.2 6.6 -1.2 11.3 -5.7 13 -12.5 1.1 -4.2 1.4 -4.5 4.4 -4.5 l3.3 0 0 20.8 c0.1 11.4 -0.3 21.3 -0.7 22.1 -0.5 0.7 -1.8 1.1 -3 0.9 -1.7 -0.2 -2.8 -1.8 -4.6 -6.3 -4.4 -10.9 -6.7 -11.6 -37 -11.3 l-22.7 0.3 0.1 23.8 c0.1 13.1 0.6 24.9 1.1 26.2 1.3 3.3 5.8 5.4 13.2 6.2 6 0.6 8.3 1.7 7.2 3.5 -0.3 0.4 -16 0.8 -35 0.8 -34.2 0 -34.5 0 -33.4 -2z"/>
 </g>
</svg>