<svg viewBox="0 0 80 80" fill="none" xmlns="http://www.w3.org/2000/svg">
<path d="M42.1077 0.000162401C37.1527 -0.0140454 32.2393 0.904112 27.6239 2.70672C25.5922 3.47577 23.6337 4.42566 21.7719 5.54496C21.7719 5.54496 21.4207 5.74978 21.3769 5.79367C21.3666 5.81409 21.3612 5.83663 21.3612 5.8595C21.3612 5.88237 21.3666 5.90492 21.3769 5.92534V6.05701C21.4045 6.06909 21.4344 6.07533 21.4646 6.07533C21.4948 6.07533 21.5247 6.06909 21.5524 6.05701C23.3556 5.67037 25.1945 5.47423 27.0387 5.4718C35.2608 5.4718 44.112 9.33414 50.7394 15.786C54.644 19.3157 57.6528 23.7237 59.5174 28.6458L78.3902 23.2766C75.198 16.336 70.0843 10.4552 63.6543 6.33018C57.2243 2.20512 49.7471 0.00845795 42.1077 0.000162401V0.000162401Z" fill="url(#paint0_radial)"/>
<path d="M49.1009 17.4246C42.4735 11.0312 32.8615 6.68611 23.4544 8.28079C13.6083 9.96324 6.20554 18.5218 2.9723 27.5778C-3.20159 45.3241 5.72275 64.7675 21.333 74.2331L21.5671 74.3648C21.592 74.3776 21.6196 74.3843 21.6476 74.3843C21.6756 74.3843 21.7032 74.3776 21.728 74.3648C21.8451 74.3648 21.8597 74.16 21.728 74.0722L21.611 73.9259C16.8703 68.86 13.8201 62.4468 12.8819 55.5725C11.9436 48.6982 13.1637 41.7022 16.3734 35.5512C19.7276 28.8597 25.4705 23.6703 32.4665 21.0089C40.2058 18.2 48.3255 20.2774 54.7481 25.1492C54.7735 25.1601 54.8009 25.1657 54.8285 25.1657C54.8562 25.1657 54.8836 25.1601 54.909 25.1492C54.9328 25.1204 54.9458 25.0842 54.9458 25.0468C54.9458 25.0095 54.9328 24.9733 54.909 24.9444C53.3027 22.1996 51.3507 19.6723 49.1009 17.4246V17.4246Z" fill="url(#paint1_radial)"/>
<path d="M75.713 61.5342C75.7206 61.5005 75.7206 61.4655 75.713 61.4318C75.6925 61.4215 75.67 61.4161 75.6471 61.4161C75.6243 61.4161 75.6017 61.4215 75.5813 61.4318C74.8498 61.9394 74.1183 62.4266 73.3868 62.8948C68.033 65.8972 62.0843 67.6852 55.9624 68.1323C54.9236 68.2348 53.8557 68.2786 52.8023 68.2786C49.284 68.3069 45.7881 67.7176 42.4735 66.5377C40.3424 65.762 38.3135 64.7304 36.4313 63.4654C30.9026 59.7694 26.6031 54.5071 24.0835 48.3525C23.061 46.0881 22.4753 43.6509 22.3571 41.1691V39.5598C22.1427 36.4004 22.7369 33.2383 24.0835 30.3722C24.098 30.3448 24.1056 30.3143 24.1056 30.2834C24.1056 30.2524 24.0981 30.2219 24.0837 30.1946C24.0693 30.1672 24.0484 30.1437 24.0229 30.1262C23.9973 30.1087 23.9679 30.0977 23.9372 30.0942C23.7616 30.0942 23.2935 30.5916 23.1618 30.7233C15.9784 37.8335 13.9595 48.8792 16.0223 58.5204C16.0223 58.7545 16.1247 58.9886 16.1832 59.208C17.5749 65.1847 20.9689 70.5056 25.8017 74.2872C30.6346 78.0689 36.6155 80.0838 42.7514 79.9973C48.8917 79.9451 54.9326 78.4412 60.3807 75.6083C66.5641 72.3896 71.8105 67.6271 75.6106 61.7829C75.6063 61.7538 75.6063 61.7242 75.6106 61.6951C75.6426 61.6827 75.6697 61.6604 75.6882 61.6315C75.7066 61.6025 75.7153 61.5684 75.713 61.5342V61.5342Z" fill="url(#paint2_radial)"/>
<path d="M58.2739 51.7028C57.9374 52.171 57.5717 52.6538 57.1767 53.1658C55.2605 55.3033 52.9213 57.0196 50.3072 58.2057C47.6931 59.3919 44.8611 60.0222 41.9907 60.0566C39.3487 60.0257 36.7405 59.4583 34.3245 58.3887H34.2075C34.1759 58.3721 34.1408 58.3634 34.1051 58.3634C34.0694 58.3634 34.0342 58.3721 34.0026 58.3887C33.9837 58.4141 33.9734 58.4449 33.9734 58.4765C33.9734 58.5082 33.9837 58.539 34.0026 58.5643C35.0805 59.5693 36.2349 60.4889 37.4553 61.3147C39.2109 62.5173 41.107 63.5005 43.1025 64.2408C46.1588 65.3283 49.3829 65.8682 52.6267 65.8354C53.6025 65.8354 54.5769 65.7915 55.5527 65.7038C61.3288 65.294 66.9435 63.6156 71.9969 60.7881C74.4067 59.379 76.612 57.6463 78.5512 55.6383L58.2739 51.7028Z" fill="url(#paint3_radial)"/>
<defs>
<radialGradient id="paint0_radial" cx="0" cy="0" r="1" gradientUnits="userSpaceOnUse" gradientTransform="translate(56.6852 29.0987) rotate(-90) scale(38.9355 77.5139)">
<stop stop-color="#15ABF6"/>
<stop offset="1" stop-color="#80D2FC"/>
</radialGradient>
<radialGradient id="paint1_radial" cx="0" cy="0" r="1" gradientUnits="userSpaceOnUse" gradientTransform="translate(6.62541 64.4946) rotate(-90) scale(56.6334 82.6159)">
<stop stop-color="#F71D80"/>
<stop offset="1" stop-color="#FD48C3"/>
</radialGradient>
<radialGradient id="paint2_radial" cx="0" cy="0" r="1" gradientUnits="userSpaceOnUse" gradientTransform="translate(52.64 70.0568) rotate(-90) scale(31.3506 48.217)">
<stop stop-color="#F71D80"/>
<stop offset="1" stop-color="#B50489"/>
</radialGradient>
<radialGradient id="paint3_radial" cx="0" cy="0" r="1" gradientUnits="userSpaceOnUse" gradientTransform="translate(49.6061 56.4041) rotate(-90) scale(15.6753 37.1576)">
<stop stop-color="#44BEFA"/>
<stop offset="1" stop-color="#0691D6"/>
</radialGradient>
</defs>
</svg>
