<svg height="60" viewBox="0 0 347 80" fill="none" xmlns="http://www.w3.org/2000/svg">
  <path d="M40.648 0a39.06 39.06 0 00-14.322 2.676 35.89 35.89 0 00-5.786 2.807s-.348.202-.391.246a.144.144 0 000 .13v.13a.217.217 0 00.174 0 26.04 26.04 0 015.424-.578c8.13 0 16.883 3.819 23.436 10.198a32.81 32.81 0 018.68 12.716l18.662-5.309A39.536 39.536 0 0040.648 0z" fill="url(#paint0_radial)"/>
  <path d="M47.563 17.23C41.01 10.908 31.505 6.61 22.203 8.188 12.467 9.852 5.147 18.315 1.95 27.27c-6.105 17.548 2.72 36.774 18.156 46.134l.231.13a.173.173 0 00.16 0c.115 0 .13-.202 0-.29l-.116-.144a33.113 33.113 0 01-5.18-37.945 29.555 29.555 0 0115.914-14.38c7.652-2.778 15.681-.723 22.032 4.094a.203.203 0 00.16 0 .16.16 0 000-.203 36.744 36.744 0 00-5.744-7.435z" fill="url(#paint1_radial)"/>
  <path d="M73.877 60.846a.23.23 0 000-.101.146.146 0 00-.13 0c-.723.502-1.446.983-2.17 1.446a41.388 41.388 0 01-17.23 5.18 32.071 32.071 0 01-3.124.144 29.741 29.741 0 01-10.213-1.722 27.69 27.69 0 01-5.975-3.037 33.028 33.028 0 01-12.21-14.944 19.515 19.515 0 01-1.707-7.103v-1.592a18.43 18.43 0 011.707-9.084.187.187 0 00-.06-.244.188.188 0 00-.084-.031c-.174 0-.637.492-.767.622-7.103 7.03-9.1 17.953-7.06 27.486 0 .231.102.463.16.68a26.589 26.589 0 0026.27 20.557 38.495 38.495 0 0017.433-4.34 39.985 39.985 0 0015.06-13.671.3.3 0 010-.087.159.159 0 00.1-.159z" fill="url(#paint2_radial)"/>
  <path d="M56.633 51.125c-.332.462-.694.94-1.085 1.446a20.497 20.497 0 01-15.016 6.814 19.282 19.282 0 01-7.58-1.65h-.116a.218.218 0 00-.203 0 .145.145 0 000 .174 28.107 28.107 0 003.415 2.72 25.696 25.696 0 005.584 2.893 27.269 27.269 0 009.417 1.577c.965 0 1.929-.043 2.894-.13a38.943 38.943 0 0016.26-4.86 30.205 30.205 0 006.48-5.093l-20.05-3.891z" fill="url(#paint3_radial)"/>
  <path fill-rule="evenodd" clip-rule="evenodd" d="M120.261 52.983c-7.966 0-14.355-6.54-14.355-14.419 0-8 6.542-14.42 14.325-14.45 3.673 0 7.254 1.461 9.876 3.976l3.36-3.551a19.073 19.073 0 00-13.236-5.292C109.63 19.247 101 27.796 101 38.564c0 10.648 8.509 19.317 19.231 19.317a19.148 19.148 0 0013.948-6.034l-3.539-3.379c-2.668 2.825-6.404 4.515-10.379 4.515zM170.378 44.242c-2.302 5.266-7.39 8.748-13.264 8.748-7.844 0-14.295-6.388-14.295-14.348 0-1.936.363-3.813 1.061-5.51 3.089-7.233 11.416-10.835 18.806-7.656 3.453 1.453 6.148 4.146 7.661 7.657 1.545 3.512 1.485 7.537.031 11.109zm4.543-13.076c-2.03-4.661-5.602-8.203-10.297-10.2-9.781-4.268-21.048.604-25.196 10.2-1 2.331-1.515 4.813-1.515 7.477 0 10.714 8.723 19.22 19.261 19.22 5.118 0 9.964-1.998 13.537-5.569l.817-.818v5.54h4.847V38.643c0-2.694-.486-5.177-1.454-7.477zM184.526 22.116h5.057v3.147c2.453-3.209 6.692-4.994 10.66-4.994 5.39 0 9.964 2.814 12.901 7.234 2.939-4.57 8.085-7.234 13.506-7.234 8.692 0 15.688 7.204 15.688 15.8l.061 20.916h-5.058l-.062-20.916c0-5.902-4.693-10.776-10.658-10.776-5.966 0-10.722 4.874-10.722 10.776l.122 20.916h-5.088l-.06-20.916c-.364-5.841-4.572-10.776-10.721-10.776-4.27 0-8.085 2.937-9.781 6.75-.545 1.273-.878 2.635-.878 3.996l.06 20.916h-4.996l-.031-34.84zM282.831 44.212c-2.241 5.326-7.389 8.808-13.203 8.808-3.817 0-7.39-1.514-10.145-4.208a15.585 15.585 0 01-3.059-4.631 13.728 13.728 0 01-1.151-5.539c0-3.813 1.514-7.386 4.179-10.11 4.148-4.087 10.357-5.357 15.688-3.056 7.267 3.117 10.779 11.502 7.691 18.736zm-5.693-23.277c-7.177-3.088-15.565-1.391-21.048 4.147-3.664 3.571-5.663 8.445-5.663 13.53h.03V70h4.876V50.417c2.817 4.448 9.267 7.415 14.355 7.415 7.784 0 14.658-4.57 17.686-11.713 4.18-9.778-.575-21.037-10.236-25.184zM326.374 44.242c-2.301 5.266-7.449 8.748-13.203 8.748-5.815 0-10.933-3.482-13.265-8.84-.757-1.694-1.09-3.571-1.09-5.508 0-7.84 6.391-14.347 14.355-14.347 3.755 0 7.388 1.514 10.085 4.207 1.331 1.332 2.3 2.876 3.088 4.63 1.544 3.483 1.485 7.508.03 11.11zm4.544-13.076c-1.029-2.33-2.393-4.39-4.15-6.146-3.665-3.601-8.481-5.599-13.568-5.599-10.599 0-19.229 8.507-19.229 19.221 0 2.694.515 5.176 1.485 7.506 3.088 7.115 9.901 11.716 17.744 11.716 5.846 0 10.207-2.24 14.295-6.388v5.54h4.936V38.672c0-2.693-.544-5.175-1.513-7.506zM340.603 22.085l4.937.031v34.9h-4.937v-34.93zM339.807 13.23c0-1.798 1.399-3.23 3.299-3.23 1.797 0 3.231 1.398 3.231 3.23 0 1.865-1.4 3.297-3.231 3.297-1.9 0-3.299-1.432-3.299-3.297z" fill="#383C45"/>
  <defs>
    <radialGradient id="paint0_radial" cx="0" cy="0" r="1" gradientUnits="userSpaceOnUse" gradientTransform="matrix(0 -38.5 76.647 0 55.063 28.773)">
      <stop stop-color="#15ABF6"/>
      <stop offset="1" stop-color="#80D2FC"/>
    </radialGradient>
    <radialGradient id="paint1_radial" cx="0" cy="0" r="1" gradientUnits="userSpaceOnUse" gradientTransform="matrix(0 -56 81.692 0 5.563 63.773)">
      <stop stop-color="#F71D80"/>
      <stop offset="1" stop-color="#FD48C3"/>
    </radialGradient>
    <radialGradient id="paint2_radial" cx="0" cy="0" r="1" gradientUnits="userSpaceOnUse" gradientTransform="matrix(0 -31 47.6777 0 51.063 69.273)">
      <stop stop-color="#F71D80"/>
      <stop offset="1" stop-color="#B50489"/>
    </radialGradient>
    <radialGradient id="paint3_radial" cx="0" cy="0" r="1" gradientUnits="userSpaceOnUse" gradientTransform="matrix(0 -15.5 36.742 0 48.063 55.773)">
      <stop stop-color="#44BEFA"/>
      <stop offset="1" stop-color="#0691D6"/>
    </radialGradient>
  </defs>
</svg>
