<svg height="60" viewBox="0 0 347 80" fill="none" xmlns="http://www.w3.org/2000/svg">
<path d="M40.648 0.000160585C35.7484 -0.0138884 30.89 0.894 26.3262 2.67645C24.3172 3.4369 22.3806 4.37617 20.5396 5.48294C20.5396 5.48294 20.1924 5.68547 20.149 5.72887C20.1388 5.74906 20.1335 5.77136 20.1335 5.79397C20.1335 5.81658 20.1388 5.83888 20.149 5.85907V5.98927C20.1764 6.00121 20.2059 6.00738 20.2358 6.00738C20.2657 6.00738 20.2952 6.00121 20.3226 5.98927C22.1057 5.60696 23.924 5.41301 25.7475 5.41061C33.8777 5.41061 42.6299 9.22975 49.1832 15.6094C53.0441 19.0997 56.0193 23.4583 57.863 28.3254L76.5247 23.0163C73.3682 16.1533 68.3117 10.3383 61.9536 6.25939C55.5955 2.18046 48.202 0.00836336 40.648 0.000160585Z" fill="url(#paint0_radial)"/>
<path d="M47.5629 17.2297C41.0096 10.9079 31.5052 6.61133 22.2033 8.18817C12.4673 9.85181 5.14732 18.3147 1.95024 27.2694C-4.1546 44.8172 4.66993 64.0431 20.1056 73.4029L20.3371 73.5331C20.3617 73.5458 20.389 73.5524 20.4166 73.5524C20.4443 73.5524 20.4716 73.5458 20.4962 73.5331C20.6119 73.5331 20.6264 73.3306 20.4962 73.2438L20.3805 73.0991C15.6928 68.0899 12.6767 61.7484 11.749 54.951C10.8212 48.1536 12.0276 41.2358 15.2015 35.1536C18.5182 28.5369 24.1968 23.4056 31.1146 20.774C38.7673 17.9964 46.7962 20.0507 53.147 24.868C53.1721 24.8787 53.1992 24.8843 53.2265 24.8843C53.2539 24.8843 53.2809 24.8787 53.3061 24.868C53.3296 24.8395 53.3425 24.8037 53.3425 24.7667C53.3425 24.7298 53.3296 24.694 53.3061 24.6654C51.7178 21.9513 49.7876 19.4523 47.5629 17.2297Z" fill="url(#paint1_radial)"/>
<path d="M73.8774 60.846C73.8849 60.8127 73.8849 60.7781 73.8774 60.7447C73.8572 60.7346 73.8349 60.7293 73.8123 60.7293C73.7897 60.7293 73.7674 60.7346 73.7472 60.7447C73.0239 61.2467 72.3006 61.7285 71.5772 62.1914C66.2833 65.1602 60.4012 66.9283 54.3477 67.3704C53.3206 67.4716 52.2645 67.515 51.223 67.515C47.744 67.5429 44.2872 66.9603 41.0097 65.7935C38.9024 65.0265 36.8962 64.0064 35.035 62.7556C29.5682 59.1009 25.3168 53.8975 22.8253 47.8117C21.8143 45.5726 21.2351 43.1627 21.1183 40.7087V39.1174C20.9063 35.9933 21.4938 32.8666 22.8253 30.0325C22.8397 30.0054 22.8472 29.9753 22.8472 29.9447C22.8473 29.9141 22.8398 29.8839 22.8256 29.8569C22.8113 29.8298 22.7907 29.8066 22.7654 29.7893C22.7402 29.772 22.7111 29.7611 22.6807 29.7576C22.5071 29.7576 22.0442 30.2495 21.914 30.3797C14.8109 37.4104 12.8146 48.3325 14.8543 57.8659C14.8543 58.0974 14.9556 58.3288 15.0135 58.5458C16.3895 64.4557 19.7456 69.717 24.5244 73.4564C29.3032 77.1958 35.2172 79.1881 41.2845 79.1026C47.3562 79.051 53.3295 77.5639 58.7166 74.7627C64.8309 71.58 70.0186 66.8707 73.7761 61.0919C73.7719 61.0631 73.7719 61.0339 73.7761 61.0051C73.8078 60.9929 73.8347 60.9708 73.8529 60.9422C73.8711 60.9136 73.8797 60.8799 73.8774 60.846Z" fill="url(#paint2_radial)"/>
<path d="M56.6334 51.1246C56.3006 51.5875 55.939 52.0649 55.5484 52.5712C53.6537 54.6848 51.3406 56.3819 48.7558 57.5548C46.1709 58.7277 43.3706 59.3509 40.5322 59.3849C37.9198 59.3544 35.3408 58.7933 32.9518 57.7357H32.8361C32.8049 57.7193 32.7701 57.7106 32.7348 57.7106C32.6995 57.7106 32.6648 57.7193 32.6335 57.7357C32.6148 57.7608 32.6046 57.7912 32.6046 57.8225C32.6046 57.8538 32.6148 57.8843 32.6335 57.9093C33.6993 58.903 34.8408 59.8123 36.0476 60.629C37.7836 61.8181 39.6584 62.7903 41.6317 63.5223C44.6537 64.5977 47.8418 65.1315 51.0493 65.0991C52.0142 65.0991 52.9777 65.0557 53.9426 64.9689C59.6541 64.5638 65.206 62.9041 70.2029 60.1082C72.5857 58.7149 74.7664 57.0016 76.6839 55.016L56.6334 51.1246Z" fill="url(#paint3_radial)"/>
<path fill-rule="evenodd" clip-rule="evenodd" d="M120.261 52.9834C112.295 52.9834 105.906 46.4434 105.906 38.564C105.906 30.5638 112.448 24.1447 120.231 24.1148C123.904 24.1148 127.485 25.5751 130.107 28.0896L133.467 24.5389C129.98 21.2017 125.295 19.2472 120.231 19.2472C109.63 19.2472 101 27.7955 101 38.564C101 49.2117 109.509 57.8809 120.231 57.8809C125.613 57.8809 130.627 55.6233 134.179 51.8471L130.64 48.4681C127.972 51.2931 124.236 52.9834 120.261 52.9834Z" fill="#383C45"/>
<path fill-rule="evenodd" clip-rule="evenodd" d="M170.378 44.2418C168.076 49.5082 162.988 52.9902 157.114 52.9902C149.27 52.9902 142.819 46.6025 142.819 38.6425C142.819 36.7059 143.182 34.829 143.88 33.1328C146.969 25.8985 155.296 22.297 162.686 25.476C166.139 26.9288 168.834 29.6224 170.347 33.1328C171.892 36.6447 171.832 40.6702 170.378 44.2418ZM174.921 31.1664C172.891 26.5047 169.319 22.963 164.624 20.9652C154.843 16.6977 143.576 21.5699 139.428 31.1664C138.428 33.4972 137.913 35.9788 137.913 38.6426C137.913 49.3574 146.636 57.8639 157.174 57.8639C162.292 57.8639 167.138 55.8645 170.711 52.2944L171.528 51.4762V57.0158H176.375V38.6426C176.375 35.9489 175.889 33.4658 174.921 31.1664Z" fill="#383C45"/>
<path fill-rule="evenodd" clip-rule="evenodd" d="M184.526 22.1158H189.583V25.2633C192.036 22.0545 196.275 20.2687 200.243 20.2687C205.633 20.2687 210.207 23.0833 213.144 27.503C216.083 22.9325 221.229 20.2687 226.65 20.2687C235.342 20.2687 242.338 27.4732 242.338 36.0692L242.399 56.9853H237.341L237.279 36.0692C237.279 30.1668 232.586 25.2932 226.621 25.2932C220.655 25.2932 215.899 30.1668 215.899 36.0692L216.021 56.9853H210.933L210.873 36.0692C210.509 30.228 206.301 25.2932 200.152 25.2932C195.882 25.2932 192.067 28.2302 190.371 32.0437C189.826 33.3159 189.493 34.6776 189.493 36.0394L189.553 56.9554H184.557L184.526 22.1158Z" fill="#383C45"/>
<path fill-rule="evenodd" clip-rule="evenodd" d="M282.831 44.2118C280.59 49.5379 275.442 53.0199 269.628 53.0199C265.811 53.0199 262.238 51.5059 259.483 48.8122C258.21 47.4803 257.181 45.9364 256.424 44.1805C255.666 42.4559 255.273 40.579 255.273 38.6424C255.273 34.8289 256.787 31.2558 259.452 28.5323C263.6 24.4455 269.809 23.1749 275.14 25.4758C282.407 28.5935 285.919 36.9775 282.831 44.2118ZM277.138 20.9351C269.961 17.8473 261.573 19.5435 256.09 25.0816C252.426 28.6532 250.427 33.5269 250.427 38.6125H250.457V70H255.333V50.4174C258.15 54.8654 264.6 57.8323 269.688 57.8323C277.472 57.8323 284.346 53.2618 287.374 46.1186C291.554 36.3414 286.799 25.0816 277.138 20.9351Z" fill="#383C45"/>
<path fill-rule="evenodd" clip-rule="evenodd" d="M326.374 44.2417C324.073 49.5081 318.925 52.9901 313.171 52.9901C307.356 52.9901 302.238 49.5081 299.906 44.1506C299.149 42.4559 298.816 40.579 298.816 38.6424C298.816 30.8019 305.207 24.2947 313.171 24.2947C316.926 24.2947 320.559 25.8088 323.256 28.5024C324.587 29.8343 325.556 31.3782 326.344 33.1327C327.888 36.6147 327.829 40.6402 326.374 44.2417ZM330.918 31.1662C329.889 28.8354 328.525 26.7764 326.768 25.0204C323.103 21.419 318.287 19.4211 313.2 19.4211C302.601 19.4211 293.971 27.9276 293.971 38.6424C293.971 41.3361 294.486 43.8177 295.456 46.1485C298.544 53.2633 305.357 57.8637 313.2 57.8637C319.046 57.8637 323.407 55.624 327.495 51.476V57.0156H332.431V38.6723C332.431 35.9787 331.887 33.497 330.918 31.1662Z" fill="#383C45"/>
<path fill-rule="evenodd" clip-rule="evenodd" d="M340.603 22.0852L345.54 22.1165V57.0159H340.603V22.0852Z" fill="#383C45"/>
<path fill-rule="evenodd" clip-rule="evenodd" d="M339.807 13.2297C339.807 11.4319 341.206 10 343.106 10C344.903 10 346.337 11.3976 346.337 13.2297C346.337 15.0946 344.937 16.5266 343.106 16.5266C341.206 16.5266 339.807 15.0946 339.807 13.2297Z" fill="#383C45"/>
<defs>
<radialGradient id="paint0_radial" cx="0" cy="0" r="1" gradientUnits="userSpaceOnUse" gradientTransform="translate(55.0625 28.7733) rotate(-90) scale(38.5 76.647)">
<stop stop-color="#15ABF6"/>
<stop offset="1" stop-color="#80D2FC"/>
</radialGradient>
<radialGradient id="paint1_radial" cx="0" cy="0" r="1" gradientUnits="userSpaceOnUse" gradientTransform="translate(5.5625 63.7733) rotate(-90) scale(56 81.692)">
<stop stop-color="#F71D80"/>
<stop offset="1" stop-color="#FD48C3"/>
</radialGradient>
<radialGradient id="paint2_radial" cx="0" cy="0" r="1" gradientUnits="userSpaceOnUse" gradientTransform="translate(51.0625 69.2732) rotate(-90) scale(31 47.6777)">
<stop stop-color="#F71D80"/>
<stop offset="1" stop-color="#B50489"/>
</radialGradient>
<radialGradient id="paint3_radial" cx="0" cy="0" r="1" gradientUnits="userSpaceOnUse" gradientTransform="translate(48.0625 55.7732) rotate(-90) scale(15.5 36.742)">
<stop stop-color="#44BEFA"/>
<stop offset="1" stop-color="#0691D6"/>
</radialGradient>
</defs>
</svg>
