<svg height="120" viewBox="0 0 511 297" fill="none" xmlns="http://www.w3.org/2000/svg">
  <path d="M392.5 276.6c-5.8-2.5-21.1-7.5-29-9.5-27.1-6.8-60.8-6.6-88.8.4-5.4 1.4-10.9 2.5-12.4 2.5-2.6 0-2.6-.1-2-6.1.4-5.1.2-6.4-1.4-8-2.4-2.4-9.9-2.5-21.4-.3-4.4.8-10.1 1.8-12.7 2.1l-4.8.6v-3.7c0-3.4.3-3.7 6.8-7 3.7-1.8 10.2-4.6 14.5-6.2 9.1-3.4 8.4-4.1-5.5-5.1l-8.9-.6.3-3.6.3-3.6 8.5-1.8c4.7-.9 15.5-2 24-2.4l15.5-.6-.3-4.3c-.5-5.6 1.3-18.7 3.3-25 2.7-8.4 3.5-9.4 7.2-9.4 3.2 0 3.3.1 3.3 4.5 0 2.4.5 6.7 1.1 9.6l1.1 5.2 3.2-8.5c2.1-5.5 5.2-11.2 9.1-16.4 5.5-7.2 6.3-7.9 9.9-8.2l3.9-.3-.6 6.6-.6 6.6 5.2-4.7c8.6-7.7 14.7-11.4 18.9-11.4 3.6 0 3.8.2 3.8 3.1 0 1.7-1.2 5.1-2.6 7.5l-2.7 4.5 9.5-5c9.6-5.1 17.7-8.4 25.7-10.2 2.4-.5 6.3-2.3 8.6-3.9 5.7-3.9 11.5-4.2 11.5-.6 0 2.2.5 2.4 9.7 3.4 9.5 1.1 9.8 1.1 14-1.3 2.3-1.4 5.5-2.5 7.2-2.5 2.7 0 3.1.3 3.1 2.8 0 2.7.3 2.8 8.2 4.5 7.3 1.5 8.4 1.6 10.4.2 1.3-.8 3.7-1.5 5.4-1.5 2.7 0 3 .3 3 3 0 2.3.6 3.3 2.3 3.9 1.3.5 3.8 2.6 5.6 4.6 3.3 3.8 3.3 3.9 2.9 12.6-.3 8.1-.5 9-3.2 11.8-4.6 4.8-8.4 6.1-17.8 6.1h-8.3l3.5 2.2c1.9 1.2 3.8 2.6 4.1 3.1.4.6 3 1.2 5.8 1.5l5.1.5v4c0 2.3-.9 5.4-2.1 7.3-2.8 4.6-10 9.4-13.9 9.4h-3.2l.4-4.7c.3-2.7.8-5.7 1.3-6.7.8-1.9.8-1.9-1.5-.3-1.4.9-4.1 1.7-6.2 1.7H426v-5.5c0-3-.2-5.5-.5-5.5s-2.3.9-4.5 2-5.7 2-8 2h-4v-12.1l-3.2 1.7c-1.8.9-4 2.3-4.9 3.1-.9.7-3.9 1.6-6.7 2l-5.1.6-.3-5.2-.3-5.1-6.4 5c-4.7 3.7-7.3 5-9.7 5-3 0-3.4-.4-4.3-3.7-.6-2.1-1.1-6-1.1-8.7 0-4-.3-4.7-1.6-4.2-3.7 1.4-12.4 8-17.8 13.5-5.9 5.9-5.9 6.1-4.1 8.1 2.3 2.6 3.3 2.5 3.7-.2.2-1.6 1.8-2.7 6.3-4.4 3.3-1.3 7.5-2.3 9.3-2.3 3.2-.1 3.2-.1 3.2 4.9v4.9l4.1-1.4c2.3-.8 5.8-1.5 7.9-1.5 4 0 4.9 1.2 6.6 8.2l.6 2.7 3.9-1.9c2.1-1.1 5.6-2 7.7-2 3.9 0 3.9 0 5.2 5.5l1.3 5.5 3.2-2c1.9-1.1 5-2 7.3-2 4 0 4.2.1 5.3 4.3 1.6 6 1.6 6 6.4 3.2 2.4-1.4 5.7-2.5 7.4-2.5h3.1v20h-4c-2.2 0-4.3-.6-4.7-1.3-1.4-2.4-8.6-5.7-16.3-7.6-4.1-1-8.4-2.1-9.5-2.5-2.1-.7.3.7 11.5 6.7l6.5 3.6.3 4.9c.3 4.6.1 5-4.2 9-4.5 4.2-4.6 4.2-12.3 4.2-4.3-.1-9.1-.7-10.8-1.4zM381.2 197l7.3-.9-8 .3c-4.4.1-8.9.8-10 1.4-1.8 1.1-1.7 1.2.7.6 1.5-.3 6-1 10-1.4zM216 201c0-2.5 1.8-4.8 9.8-12.8 10-10 17.3-19.9 21.2-28.7 5.1-11.4 5.1-11.3 7.5-22.7.5-2.4 1-2.8 3.9-2.8 4 0 6.6 3 11.3 13.1 3.9 8.2 5.3 15.6 5.3 27.6v9.3h-4c-3.5 0-4-.3-4.1-2.2 0-1.3-.8-4.1-1.8-6.3l-1.8-4-.7 7c-1 9.1-2.2 14-4.9 19.3-1.9 3.6-2.6 4.2-5.4 4.2-3.3 0-3.3 0-3.3-4.9 0-2.7-.3-6.2-.6-8l-.6-3.1-6.4 5.3c-8.9 7.4-18.2 12.7-22.1 12.7-3 0-3.3-.3-3.3-3zM317.5 151.3c-2.6-.3-5-1.4-6.7-3.1-2.4-2.2-2.8-3.4-2.8-8.2 0-4.3-.7-7.1-3.1-11.8-3.6-7.2-8.5-11.5-18.1-16.1-6.4-3-6.8-3.4-6.8-6.5v-3.4l13.6-.7c18.7-1 51.4.2 58.4 2.1 8 2.3 12.3 4.8 15.6 9.1 2.5 3.2 2.9 4.7 2.9 10.1 0 5.5-.3 6.6-2.4 8.3-1.3 1-3.6 1.9-5.2 1.9-2.9 0-2.9.1-2.9 6 0 7.4-1.6 9.2-10.8 11.4-6.3 1.5-21.1 1.9-31.7.9zm29-16.8c1.4-1.3 2.5-2.9 2.5-3.5 0-.5 1.4-1 3-1 2.9 0 4-1.3 2-2.5-.5-.3-1-1.5-1-2.7 0-6.2-13.5-11.5-26.3-10.3l-7.5.7 4.4 4.4c3.3 3.2 5.2 4.4 7.4 4.4 2.7 0 3 .3 3 3.3 0 3.6 1.2 5.5 5 8.1 3.3 2.2 4.7 2 7.5-.9zM226 141.9c-8.9-6-11.7-8.5-18-16.4-13.5-17-23-48.6-23-77.2V42h3.4c3.3 0 3.5.3 8.7 10.5 2.9 5.8 7.9 14 11.1 18.2 6.6 8.9 19.8 22.5 27 28 4 3.1 4.8 4.2 4.8 7 0 2.9-.3 3.3-2.7 3.3-1.6 0-4.6-.5-6.8-.9l-4-.9 7.3 6.6c6.1 5.7 7.2 7.2 7.2 10 0 2.9-.3 3.2-3 3.2-1.6 0-5.3-.9-8.1-2-2.8-1.2-5.4-1.8-5.7-1.6-.2.3 3.4 4.4 8.2 9.1 7 6.9 8.6 9 8.6 11.5 0 2.8-.2 3-3.7 3-2.9 0-5.7-1.3-11.3-5.1z" fill="#fff"/>
  <path d="M402.5 291.3c-1.1-.3-6.5-2.5-12.1-4.8-33.6-14.4-77.7-20.5-114.9-16-6.6.8-13.3 1.5-14.9 1.5h-2.9l.6-7.4c.6-7.1.5-7.5-1.5-8.2-2.7-.8-30.3 12.8-42.7 21.1-5.8 3.8-9.2 5.5-11.4 5.5-3-.1-3.4-.5-6-6.3-1.5-3.4-2.7-7.2-2.7-8.4 0-1.3-.4-2.3-1-2.3-1.6 0-9-15.7-9-19 0-2-.5-3-1.5-3-.8 0-2.8-2.6-4.4-5.8-1.6-3.2-5.2-9.8-8-14.7-3.4-5.8-5.1-9.9-5.1-12.1 0-3.3.3-3.5 10.8-8.8 5.9-3 10.2-5.5 9.5-5.5-.7-.1-5.9.8-11.5 1.9-15.9 3.1-16.2 3-20.4-3.7-2-3.2-6.3-9.7-9.5-14.5-4.3-6.3-5.9-9.5-5.9-12 0-3.2.3-3.4 8.1-6.8 9.3-3.9 9.1-4.8-.6-2.5-3.6.8-8.6 1.5-10.9 1.5-4.3 0-4.4 0-13.3-11.2-4.9-6.2-13.1-15.9-18.1-21.5-7.8-8.6-9.2-10.7-9.2-13.5v-3.4l13.2-3.6 13.3-3.7H99.7l-20.8-.1-8.7-7.1c-10.5-8.5-24.4-18-32.4-22-5.3-2.7-5.8-3.2-5.8-6.3v-3.3l12.3-.7c16-.9 107.6-.8 119.3.2l9 .7 1.2-14.8c.6-8.2 2.1-20.9 3.3-28.3L179.3 9h3.1c2.9 0 3.4.5 6.1 6.8 6.1 14.1 26.8 40.5 37.7 48.3l2.8 2.1-3-5.2c-1.8-3-3-6.5-3-8.5 0-3.3.2-3.5 3.4-3.5 2.2 0 5.1 1.1 8 3 3.6 2.5 16.6 9 17.8 9 .2 0 .1-2.5 0-5.5l-.4-5.5h3.3c2.2 0 4.8 1.2 8.3 3.9C280.7 67.3 316 84.8 343 93.5c13.3 4.3 26.4 12.5 29.6 18.6 2 4 1.8 12.7-.5 17.2l-1.8 3.6 3.1 1c1.7.6 7.8 2.2 13.6 3.7 5.8 1.4 11.6 3.2 13 3.9 1.4.7 7.9 1.5 15 1.8 6.9.2 13.9 1 15.5 1.7 1.7.7 7.5 2.2 13 3.5 12 2.8 14.7 3.8 17.2 6.3 2.4 2.5 5.5 3.2 18.5 4.2 17.1 1.2 22.8 5.2 22.8 15.7-.1 5.5-3.2 11.5-9.1 17.8-3.9 4.2-5.9 5.5-8 5.5-2.6 0-2.9.4-2.9 3 0 8.6-11.4 20.7-21 22.5-2.9.5-4 1.5-6 5.1-2.5 4.8-7.3 9.2-13.2 12l-3.6 1.7-.7 15.6c-.9 18-2.6 24.2-8 29-1.9 1.6-5.1 3.5-7.2 4-3.8 1.1-16.1 1.3-19.8.4zm10.1-20.5c7.6-7 8.6-6.2-30.6-25.8-11.8-6-25.6-12.5-30.5-14.5-9.4-3.8-13.5-7.1-13.5-10.8 0-3.1 14.2-16.6 22.2-21.1 8.7-4.8 11.6-5.6 21.3-5.7 9.1 0 15.7 1.5 40.4 9.6 22.6 7.5 30.1 7.4 37.6-.5 2.3-2.4 3-4.1 3.3-8.9.4-5.6.3-6-3.2-9.9-2.1-2.3-5-4.4-6.7-4.7-1.7-.4-2.8-1.2-2.6-1.8 2-4.9 2.1-4.7-1.7-2.8-3.4 1.8-3.8 1.8-14.3-.4-5.9-1.3-10.7-2.7-10.6-3.1.1-.5.5-1.7.9-2.8.6-1.6.1-1.5-4 .9l-4.8 2.8-13.3-1.3-13.3-1.3.9-2.3c1.1-3.1.7-3-4.6.6-2.3 1.6-6.2 3.4-8.6 3.9-12.7 2.9-30 11.3-40.1 19.4l-6.1 4.9.7-3.2c.3-1.8 2.6-7.3 5-12.2 2.4-4.8 4-8.8 3.7-8.8-1.1 0-10.5 6.7-15.3 10.9-2.6 2.3-6.5 6.9-8.7 10.2-3.3 4.9-4.2 5.8-4.8 4.3-.6-1.6.9-14.9 2.4-20.3 1-3.8-1.1-1.9-7.4 6.7-5.9 7.9-10.2 17.5-12.4 27.5l-1.3 5.8-1.8-3.8c-2.8-5.5-4.8-14-4.8-19.7 0-4.5-.1-4.8-1.3-3.1-3.8 5.6-7 22.6-6.1 32l.6 6-14.3.1c-13.8 0-33.2 2.5-34.4 4.3-.2.5 3.3 1.1 7.8 1.4 8.5.6 23.7 3.6 23.7 4.6 0 .4-4.7 2.1-10.4 4-10 3.2-29.3 11.7-28.5 12.5.2.3 3-.2 6.2-.9s8.9-1.7 12.5-2c3.7-.4 8.2-.8 9.9-1 4.7-.5 10.1 1.3 11.4 3.7.7 1.2.9 4.3.6 7.3l-.5 5.2 9-2.3c13.5-3.4 23.4-4.6 43.8-5.1 26.2-.7 44.6 2 67.5 9.9 5 1.7 10.4 3.7 12 4.4 1.7.7 5.1 1.3 7.8 1.4 4.2 0 5.3-.5 9.3-4.2zm20.4-19.7v-6.9l-6.3 3.1-6.3 3.2 4.6 2.4c2.5 1.3 4.9 3 5.3 3.7 1.7 3 2.7 1.1 2.7-5.5zm-15.3-2.5c-.3-.8-1.1-3.3-1.7-5.5-.6-2.3-1.5-4.1-2.1-4.1-.5 0-3.5 1.4-6.6 3.2-6.2 3.5-6.3 3.5 3.7 6.3 6.1 1.8 7.3 1.8 6.7.1zm-17-4.8c-.2-.7-1-3.7-1.7-6.5-.8-2.9-1.9-5.3-2.4-5.3-.6 0-3.7 1.5-6.9 3.3l-5.8 3.3 3.8 1.6c11.5 4.9 13.8 5.5 13 3.6zm30.1-5.7c1.3-1.1 2.7-3.4 3.2-5.1l.9-3H425v-9.9l-4.2 1.9c-2.4 1.1-6.2 2-8.5 2H408v-5.5c0-3.1-.4-5.5-1-5.5s-3.3 1.1-6 2.5c-3.1 1.6-6.6 2.5-9.5 2.5H387v-8.1l-5.6 4.2c-4.9 3.6-6.1 4-10 3.7-4.2-.3-4.4-.2-4.4 2.3v2.7l5-1.5c8.1-2.3 10.1-1.6 12.3 4.2 1 2.7 2 5.1 2.2 5.3.2.2 2.1-.6 4.2-1.8 2.5-1.3 5.2-2 7.3-1.8 3 .3 3.5.8 4.8 4.8.8 2.5 1.6 4.6 1.7 4.8.2.2 1.7-.4 3.4-1.2 1.6-.9 4.8-1.6 7-1.6 3.8 0 4.1.2 5 3.8.6 2 1.1 4.3 1.1 5 0 1.4 6-1.4 9.8-4.7zm-48.9-3.8c-1.4-5.4-3-9.3-3.8-9.3-1.8 0-13.1 4.3-13.1 5 0 .8 14.1 7.3 17.2 7.9.3 0 .2-1.6-.3-3.6zm68-7.7c3-4.7 2.7-5.4-2.4-5.8-3.5-.2-4.5 0-4.5 1.2 0 .8-.9 4-2 7s-2 5.8-2 6.3c0 1.6 8.9-5.4 10.9-8.7zm-87.5.8c.3-.9.6-3.3.6-5.4v-3.9l-3.7 1.3c-2.1.8-5.1 1.9-6.8 2.6l-3 1.2 5.5 2.8c6.5 3.4 6.6 3.5 7.4 1.4zm70.9-3.2c4.4-2.4 8.2-5.1 7.6-5.5-1.4-1.3-9.8-5.7-10.6-5.7-.7 0-1.1 2.5-1 6.5.1 3.6.3 6.5.5 6.5.1 0 1.7-.8 3.5-1.8zm-12.6-8.4c4-1.8 7.3-3.6 7.3-3.9 0-.7-.4-.9-9.7-4.5L412 205v7c0 3.9.3 7 .8 7 .4 0 4-1.5 7.9-3.2zm-54.5-4.3c-.2-1.4-.7-2.5-1.1-2.5-.4 0-2.2 1.1-4.1 2.5l-3.4 2.5h4.6c4.3 0 4.5-.1 4-2.5zm15.3-4.3c3.9-3 7.2-5.8 7.3-6.3.5-1.2-4.8-1.1-12.5.2-7 1.2-7.3 1.8-5.2 9.2 1.2 4.3.6 4.4 10.4-3.1zm16.5 4.3c.8-.7 4-2.5 7-4.1l5.5-2.8-4.4-1.3c-2.5-.7-6.6-1.6-9.3-1.9l-4.8-.7v6.6c0 6.3.1 6.5 2.3 6 1.2-.3 2.9-1.1 3.7-1.8zM231 194c3-2.1 8.2-6.3 11.6-9.4l6.1-5.5 1.3 2.7c.7 1.5 1.5 6 1.8 10l.5 7.3 2.2-3.9c3.4-5.9 4.9-13.6 4.8-23.9-.1-5.1.3-9.3.7-9.3 2.6 0 10 12.7 10 17.1 0 1 .5 1.9 1 1.9 1.3 0 1.3-11.1-.1-18.5-.6-3.2-2.5-8.8-4.2-12.4-3.1-6.7-7.6-13.5-8.4-12.7-.2.2-1.1 3.4-1.8 7-.8 3.6-2 8-2.8 9.8-5 11.3-6.4 14-10.6 20.3-2.5 3.8-9 11.4-14.4 16.8-10.1 10.1-9.6 10.8 2.3 2.7zm115.2-46.6c8.1-2 10.8-4.2 10.8-8.9 0-2.5-.6-3.7-2.2-4.6-1.8-.9-2.3-.9-2.6.1-1.2 3.5-5.1 6-9.4 6-7 0-11.8-4.1-11.8-9.9 0-2.7-.3-3.2-1-2.1-1.9 3-1 6.2 2.9 10.1 3.5 3.5 4.4 3.9 8.9 3.9 4.6 0 5.5-.4 8.7-3.7 3.7-3.8 6.4-3.6 5.1.5-.9 2.8-10.4 6.1-17.8 6.2-3.9 0-8.4-4.2-9.6-9.2-2.3-8.9-10.9-18.4-18.5-20.4-6.9-1.7-1.4-3 16.4-4 9.3-.6 12.5-.4 17.4 1.1 7.3 2.1 11.3 4.8 12.2 8.3.9 3.9 4.3 9.2 5.8 9.2 3 0 5.9-3.7 5.8-7.3-.2-7-6.6-12.6-18-16-6.3-1.9-44.4-3.2-57.8-2l-9 .8 7 3.4c10 4.8 14.8 9.1 18.4 16.3 2.4 4.7 3.1 7.5 3.1 11.8 0 4.8.4 6 2.8 8.2 1.7 1.7 4.1 2.8 6.7 3.1 9.6.9 19.5.6 25.7-.9zM232.8 139c-9-8-24.5-29-23.1-31.3.3-.5 2.2.7 4.2 2.6 4.5 4.3 11.9 8.9 19.1 11.7l5.5 2.2-8.6-8.4c-11.5-11.1-19.7-23.3-12.1-18 4.1 2.9 11.2 6.2 15.7 7.2l3.9.9-3.4-2.7c-10.4-8.1-23-21.2-30.5-31.7-2.4-3.3-6.7-10.7-9.7-16.5-3.4-6.9-5.4-9.8-5.6-8.6-.6 2.7 1.6 22.6 3.4 31 4.4 21.8 14.7 42.1 27.1 53.8 3.4 3.3 17.4 12.7 18.8 12.8.6 0-1.5-2.3-4.7-5zm112-5.2c-.5-1.3-7.6-5.3-8.3-4.6-1.1 1 .8 3.9 3.3 5.2 2.7 1.4 5.5 1.1 5-.6z" fill="#00223E"/>
  <path d="M399.5 295c-3.3-1-8.1-2.7-10.7-3.8-10.8-4.8-30.9-10.4-47.8-13.4-22.5-3.9-58.2-3.6-79.8.9-4.1.8-7.5 1.3-7.7 1.1-.3-.2.2-2.5 1-5.1 1-3.5 1.2-5.5.4-7.5-1.3-3.5-2.6-4.2-7.6-4.2-7.2 0-22.8 9.4-41.3 25-5.2 4.3-9.8 8-10.1 8-.3 0-2.7-5.1-5.4-11.2-5.1-11.8-19.5-41.3-26-53.3C115.4 141.2 59.1 82.9 1.6 62.6c-1-.3-1.7-.9-1.4-1.1.3-.3 24.3-1 53.4-1.5 45.3-.8 86.9-.3 112.9 1.3 3.5.2 3.3 1 6.5-23.8 2.3-17.3 6-37.5 6.9-37.5.3 0 1.9 2.6 3.6 5.7 10 19.1 28 43.8 31.1 42.6.7-.2 2.1-2.8 3-5.6.9-2.9 1.8-5.3 1.9-5.5.2-.2 2.5 1.3 5.2 3.2 6 4.3 15 8.6 18.1 8.6 1.9 0 2.2-.5 2.2-4 0-2.2.2-4 .4-4 .3 0 6 3.4 12.8 7.6 29.4 18.3 61.3 33.7 85.8 41.6 18.8 6 24.4 8.6 29.8 14 5.5 5.4 7.7 11.2 6.7 18.1-1.5 10.7-2 9.9 7 11.2 4.4.7 9.6 1.9 11.5 2.7 1.9.9 7.9 2.1 13.3 2.7 5.4.6 12 2 14.5 3 2.6 1.1 7.6 2.2 11.2 2.6 10.3.9 16.9 3.2 20.9 7.2 3.4 3.4 3.8 3.5 16 5 19.1 2.3 26.4 4 31 7.3 8.2 5.9 6.4 12.9-7 27.7-4.6 5-11.8 13-15.9 17.8-4.1 4.7-10.7 11.3-14.5 14.6-3.9 3.3-9 8.2-11.4 11-2.4 2.8-6 6.1-8.1 7.5-3.4 2.3-3.9 3.2-4.5 7.7-.4 2.9-1.1 7-1.7 9.2-.6 2.2-1 7.7-.9 12.2.2 6.6-.2 8.9-1.9 12.3-2.7 5.2-6.3 8.7-11.5 11.1-5.4 2.5-20.6 2.5-29-.1zm19.8-7.1c8.5-2.3 14.9-12.5 14.6-23.3-.1-2.8.2-9.6.6-15.1l.8-10-2.4 2.2c-1.3 1.2-4.9 3.3-7.9 4.7-6.2 2.9-5.9 3.1-8-5.1-.6-2.4-1.6-4.3-2.3-4.3-.7 0-3.6 1.4-6.6 3-3 1.7-5.5 3-5.7 3-.2 0-1.1-2.7-2-6-.9-3.3-2-6.2-2.4-6.5-.3-.2-3.6 1.1-7.3 2.9l-6.6 3.4-2.1-6.4c-1.2-3.5-2.5-6.6-2.9-6.8-.4-.3-3.8.6-7.7 2-3.8 1.3-7 2.4-7.1 2.4-.2 0-.3-2.5-.3-5.5 0-6.5-.3-6.6-9.2-3-3.4 1.4-6.3 2.5-6.5 2.5-.2 0-.3-1-.3-2.2 0-2.9 8.5-11 14.9-14.2l5-2.6 1.2 5.6c.7 3.1 1.8 5.8 2.5 6.1 1 .4 10.1-5.6 18.3-12 1.1-.9 1.2 0 .6 5.6-.9 8.2-.6 8.3 10.6 2.6 4.5-2.2 8.4-3.8 8.7-3.4.3.3.8 3.5 1 7 .3 4 .9 6.5 1.6 6.5.6 0 4.4-1.6 8.4-3.5l7.2-3.4v6.4c0 5.7.2 6.5 1.9 6.5 1 0 2.9-.8 4.2-1.7 3.7-2.7 7-4.5 7.5-4 .3.3-.4 3.1-1.6 6.3-1.1 3.3-2.5 7.1-3 8.6l-.9 2.8 3.2-1.6c5.7-3 10.3-7.2 12.7-11.8 2-3.6 3.1-4.6 6-5.1 10.3-1.9 21-14 21-23.7 0-4.3-3.8-11.8-6-11.8-.6 0-1-.5-1-1.1 0-1.4 4.5-.4 7.7 1.6 1.1.8 2.7 3.3 3.5 5.6l1.4 4.1 5.6-6c10.5-11.4 11-19.5 1.3-24.2-3.4-1.6-7.5-2.5-15.3-3-13-1-16.1-1.7-18.5-4.2-2.3-2.4-5-3.4-15.1-5.8-5.8-1.4-8.3-1.6-9.3-.8-.9.8-1.3.7-1.3-.1 0-2.8-7.3-4.5-20.2-4.5-7.1-.1-12.8-.4-12.8-.7 0-1.1-4.8-2.8-17-5.9-17.8-4.5-17.8-4.5-13.5-12.6 4-7.5 3-12.2-4-18.3-4.2-3.7-16.6-10-24.5-12.6-27.8-9-64-27.2-82.2-41.5-3.5-2.7-3.7-1.3-.8 6.2 1.1 2.9 2 5.4 2 5.5 0 .1-2.4-.5-5.2-1.4-7.2-2.1-16.9-6.6-22.5-10.3-2.5-1.7-4.7-2.9-5-2.7-1.1 1.2 11 18.9 18.5 26.9 2.5 2.7 4.2 4.8 3.8 4.8-1.3 0-13.6-7.9-20.9-13.4-15.9-12-33.5-33.4-41.6-50.7l-3.8-8.1-2.1 13.4c-1.2 7.3-2.7 20.1-3.4 28.3-.6 8.3-1.2 15.1-1.3 15.3-.2.1-6.3-.2-13.6-.8-14.7-1.2-103.8-1.3-118.4-.2l-9 .7 6.1 3.2c8.4 4.4 22.3 13.8 32.6 22.2l8.7 7.1h21.3c11.7 0 25.6.5 30.8 1 5.2.5 10.6 1 12 1.1 1.4 0-2.9 1-9.5 2-9.9 1.6-38 8.3-39.4 9.5-.2.1 3.9 4.9 9 10.6 5.1 5.7 13.3 15.4 18.2 21.6 4.9 6.1 9.5 11.2 10.1 11.2.7 0 5.2-.9 10.1-1.9 8.7-1.9 38.4-5.5 39.2-4.8.2.2-3.4 1.6-7.9 3.1-6.7 2.2-33.2 13.1-34.7 14.2-.1.1 2.4 4.2 5.7 9.1 3.3 4.8 7.6 11.4 9.6 14.6 3.1 4.9 4.1 5.8 5.9 5.4 9.5-2.4 45.4-7.3 46.3-6.4.2.2-2.2 1.4-5.4 2.7-6.4 2.6-35.2 16.8-35.2 17.4 0 .2 2.3 4.3 5.1 9.1 2.8 4.9 6.4 11.4 8 14.6l2.9 5.8 3.4-1.4c6.7-2.8 16.6-6.4 16.6-6 0 .2-3.6 2.9-8 6s-8.2 6-8.5 6.5c-.5.9 7 17 8 17 .2 0 2.3-.7 4.5-1.6 5.5-2.2 5.9-1.3 1 2.1-2.2 1.5-4 3.2-4 3.6 0 .7 1.1 3.3 5.6 12.7.1.2 3.9-2.2 8.5-5.3 9.3-6.3 41.1-22.5 44-22.5 3.3 0 6.9 2.3 7.5 4.7.4 1.3.1 4.4-.6 6.9-.7 2.4-1.1 4.6-.9 4.8.2.2 5.6-.2 11.9-1 39.6-4.7 86.4 1.6 120.4 16.1 5.6 2.3 11 4.5 12.1 4.8 3.6.9 9.9.7 13.8-.4z" fill="#EC7E01"/>
  <path d="M337.5 137.8c-5.3-2.9-6.8-7.9-3.6-11.9 1.7-2.1 2.2-2.2 4.6-1.1 4.1 1.9 12.5 7.6 12.5 8.5 0 .4-1.1 1.9-2.5 3.2-2.6 2.7-7.5 3.3-11 1.3zM461.9 147.4c-3-3.6-11.6-6.5-24.9-8.3-3.6-.5-9-1.8-12-2.9-3-1.1-9.3-2.5-14-3.1-4.7-.5-12.3-2-17-3.3l-8.6-2.3.4-6.3c.6-8.8-3.6-17.3-11.4-23.4-2.9-2.4-5.4-4.6-5.4-4.9 0-1.4 13.3-3.9 20.2-3.9 17.6.1 35 7.2 56.3 23.1 15.1 11.2 14.6 10.3 18 32.7.7 4.6.4 5-1.6 2.6z" fill="#EC7E01"/>
  <path d="M445.6 101.4C431 89.8 406.3 81 388.1 81c-8.8 0-16.4 1.7-24.6 5.6-5.3 2.5-6 2.6-10.8 1.5-5.7-1.3-34.5-12.5-37-14.4-1.5-1.1-.7-2 6.9-8.2 16.8-13.8 29.6-21.5 49.2-29.9 13.6-5.8 14.3-5.8 24.7 1.2 19.9 13.5 36 30.9 48.3 51.9 4.6 7.9 9.4 18.3 8.4 18.3-.4-.1-3.8-2.6-7.6-5.6zM295 63.8c-5.2-2.8-11.3-6.1-13.5-7.4l-4-2.3v-7.4c-.1-9-3.2-16.1-9.9-22.7-2.5-2.4-4.3-4.7-4-5.1.7-1.2 21.3-5.7 31.8-7 16.7-2 40.4-.1 57.6 4.8 5.5 1.5 21.1 7.2 22 8 .8.7-2.2 2.2-9 4.4-13.4 4.5-27.3 12.8-45.3 27.2-5.9 4.7-12 9.5-13.5 10.5l-2.7 2-9.5-5zM256.4 41.4c-6.4-4.1-12.4-7.3-13.3-7.2-.9.2-1.9 2-2.4 4.3-.6 2.2-1.1 4.2-1.3 4.4-.4.5-11.4-6.1-11.4-6.9 0-1.2 22.9-13 25.3-13 2 0 9.4 6.6 12.7 11.5 3.1 4.5 5 12.7 3.2 13.9-.5.3-6.3-2.8-12.8-7z" fill="#EC7E01"/>
</svg>
