<svg height="120" viewBox="0 0 511 297" fill="none" xmlns="http://www.w3.org/2000/svg">
<path d="M392.5 276.6C386.7 274.1 371.4 269.1 363.5 267.1C336.4 260.3 302.7 260.5 274.7 267.5C269.3 268.9 263.8 270 262.3 270C259.7 270 259.7 269.9 260.3 263.9C260.7 258.8 260.5 257.5 258.9 255.9C256.5 253.5 249 253.4 237.5 255.6C233.1 256.4 227.4 257.4 224.8 257.7L220 258.3V254.6C220 251.2 220.3 250.9 226.8 247.6C230.5 245.8 237 243 241.3 241.4C250.4 238 249.7 237.3 235.8 236.3L226.9 235.7L227.2 232.1L227.5 228.5L236 226.7C240.7 225.8 251.5 224.7 260 224.3L275.5 223.7L275.2 219.4C274.7 213.8 276.5 200.7 278.5 194.4C281.2 186 282 185 285.7 185C288.9 185 289 185.1 289 189.5C289 191.9 289.5 196.2 290.1 199.1L291.2 204.3L294.4 195.8C296.5 190.3 299.6 184.6 303.5 179.4C309 172.2 309.8 171.5 313.4 171.2L317.3 170.9L316.7 177.5L316.1 184.1L321.3 179.4C329.9 171.7 336 168 340.2 168C343.8 168 344 168.2 344 171.1C344 172.8 342.8 176.2 341.4 178.6L338.7 183.1L348.2 178.1C357.8 173 365.9 169.7 373.9 167.9C376.3 167.4 380.2 165.6 382.5 164C388.2 160.1 394 159.8 394 163.4C394 165.6 394.5 165.8 403.7 166.8C413.2 167.9 413.5 167.9 417.7 165.5C420 164.1 423.2 163 424.9 163C427.6 163 428 163.3 428 165.8C428 168.5 428.3 168.6 436.2 170.3C443.5 171.8 444.6 171.9 446.6 170.5C447.9 169.7 450.3 169 452 169C454.7 169 455 169.3 455 172C455 174.3 455.6 175.3 457.3 175.9C458.6 176.4 461.1 178.5 462.9 180.5C466.2 184.3 466.2 184.4 465.8 193.1C465.5 201.2 465.3 202.1 462.6 204.9C458 209.7 454.2 211 444.8 211H436.5L440 213.2C441.9 214.4 443.8 215.8 444.1 216.3C444.5 216.9 447.1 217.5 449.9 217.8L455 218.3V222.3C455 224.6 454.1 227.7 452.9 229.6C450.1 234.2 442.9 239 439 239H435.8L436.2 234.3C436.5 231.6 437 228.6 437.5 227.6C438.3 225.7 438.3 225.7 436 227.3C434.6 228.2 431.9 229 429.8 229H426V223.5C426 220.5 425.8 218 425.5 218C425.2 218 423.2 218.9 421 220C418.8 221.1 415.3 222 413 222H409V216V209.9L405.8 211.6C404 212.5 401.8 213.9 400.9 214.7C400 215.4 397 216.3 394.2 216.7L389.1 217.3L388.8 212.1L388.5 207L382.1 212C377.4 215.7 374.8 217 372.4 217C369.4 217 369 216.6 368.1 213.3C367.5 211.2 367 207.3 367 204.6C367 200.6 366.7 199.9 365.4 200.4C361.7 201.8 353 208.4 347.6 213.9C341.7 219.8 341.7 220 343.5 222C345.8 224.6 346.8 224.5 347.2 221.8C347.4 220.2 349 219.1 353.5 217.4C356.8 216.1 361 215.1 362.8 215.1C366 215 366 215 366 220V224.9L370.1 223.5C372.4 222.7 375.9 222 378 222C382 222 382.9 223.2 384.6 230.2L385.2 232.9L389.1 231C391.2 229.9 394.7 229 396.8 229C400.7 229 400.7 229 402 234.5L403.3 240L406.5 238C408.4 236.9 411.5 236 413.8 236C417.8 236 418 236.1 419.1 240.3C420.7 246.3 420.7 246.3 425.5 243.5C427.9 242.1 431.2 241 432.9 241H436V251V261H432C429.8 261 427.7 260.4 427.3 259.7C425.9 257.3 418.7 254 411 252.1C406.9 251.1 402.6 250 401.5 249.6C399.4 248.9 401.8 250.3 413 256.3L419.5 259.9L419.8 264.8C420.1 269.4 419.9 269.8 415.6 273.8C411.1 278 411 278 403.3 278C399 277.9 394.2 277.3 392.5 276.6V276.6ZM381.2 197L388.5 196.1L380.5 196.4C376.1 196.5 371.6 197.2 370.5 197.8C368.7 198.9 368.8 199 371.2 198.4C372.7 198.1 377.2 197.4 381.2 197Z" fill="white"/>
<path d="M216 201C216 198.5 217.8 196.2 225.8 188.2C235.8 178.2 243.1 168.3 247 159.5C252.1 148.1 252.1 148.2 254.5 136.8C255 134.4 255.5 134 258.4 134C262.4 134 265 137 269.7 147.1C273.6 155.3 275 162.7 275 174.7V184H271C267.5 184 267 183.7 266.9 181.8C266.9 180.5 266.1 177.7 265.1 175.5L263.3 171.5L262.6 178.5C261.6 187.6 260.4 192.5 257.7 197.8C255.8 201.4 255.1 202 252.3 202C249 202 249 202 249 197.1C249 194.4 248.7 190.9 248.4 189.1L247.8 186L241.4 191.3C232.5 198.7 223.2 204 219.3 204C216.3 204 216 203.7 216 201V201Z" fill="white"/>
<path d="M317.5 151.3C314.9 151 312.5 149.9 310.8 148.2C308.4 146 308 144.8 308 140C308 135.7 307.3 132.9 304.9 128.2C301.3 121 296.4 116.7 286.8 112.1C280.4 109.1 280 108.7 280 105.6V102.2L293.6 101.5C312.3 100.5 345 101.7 352 103.6C360 105.9 364.3 108.4 367.6 112.7C370.1 115.9 370.5 117.4 370.5 122.8C370.5 128.3 370.2 129.4 368.1 131.1C366.8 132.1 364.5 133 362.9 133C360 133 360 133.1 360 139C360 146.4 358.4 148.2 349.2 150.4C342.9 151.9 328.1 152.3 317.5 151.3V151.3ZM346.5 134.5C347.9 133.2 349 131.6 349 131C349 130.5 350.4 130 352 130C354.9 130 356 128.7 354 127.5C353.5 127.2 353 126 353 124.8C353 118.6 339.5 113.3 326.7 114.5L319.2 115.2L323.6 119.6C326.9 122.8 328.8 124 331 124C333.7 124 334 124.3 334 127.3C334 130.9 335.2 132.8 339 135.4C342.3 137.6 343.7 137.4 346.5 134.5V134.5Z" fill="white"/>
<path d="M226 141.9C217.1 135.9 214.3 133.4 208 125.5C194.5 108.5 185 76.9 185 48.3V42H188.4C191.7 42 191.9 42.3 197.1 52.5C200 58.3 205 66.5 208.2 70.7C214.8 79.6 228 93.2 235.2 98.7C239.2 101.8 240 102.9 240 105.7C240 108.6 239.7 109 237.3 109C235.7 109 232.7 108.5 230.5 108.1L226.5 107.2L233.8 113.8C239.9 119.5 241 121 241 123.8C241 126.7 240.7 127 238 127C236.4 127 232.7 126.1 229.9 125C227.1 123.8 224.5 123.2 224.2 123.4C224 123.7 227.6 127.8 232.4 132.5C239.4 139.4 241 141.5 241 144C241 146.8 240.8 147 237.3 147C234.4 147 231.6 145.7 226 141.9V141.9Z" fill="white"/>
<path d="M402.5 291.3C401.4 291 396 288.8 390.4 286.5C356.8 272.1 312.7 266 275.5 270.5C268.9 271.3 262.2 272 260.6 272H257.7L258.3 264.6C258.9 257.5 258.8 257.1 256.8 256.4C254.1 255.6 226.5 269.2 214.1 277.5C208.3 281.3 204.9 283 202.7 283C199.7 282.9 199.3 282.5 196.7 276.7C195.2 273.3 194 269.5 194 268.3C194 267 193.6 266 193 266C191.4 266 184 250.3 184 247C184 245 183.5 244 182.5 244C181.7 244 179.7 241.4 178.1 238.2C176.5 235 172.9 228.4 170.1 223.5C166.7 217.7 165 213.6 165 211.4C165 208.1 165.3 207.9 175.8 202.6C181.7 199.6 186 197.1 185.3 197.1C184.6 197 179.4 197.9 173.8 199C157.9 202.1 157.6 202 153.4 195.3C151.4 192.1 147.1 185.6 143.9 180.8C139.6 174.5 138 171.3 138 168.8C138 165.6 138.3 165.4 146.1 162C155.4 158.1 155.2 157.2 145.5 159.5C141.9 160.3 136.9 161 134.6 161C130.3 161 130.2 161 121.3 149.8C116.4 143.6 108.2 133.9 103.2 128.3C95.4 119.7 94 117.6 94 114.8V111.4L107.2 107.8L120.5 104.1H99.7L78.9 104L70.2 96.9C59.7 88.4 45.8 78.9 37.8 74.9C32.5 72.2 32 71.7 32 68.6V65.3L44.3 64.6C60.3 63.7 151.9 63.8 163.6 64.8L172.6 65.5L173.8 50.7C174.4 42.5 175.9 29.8 177.1 22.4L179.3 9H182.4C185.3 9 185.8 9.5 188.5 15.8C194.6 29.9 215.3 56.3 226.2 64.1L229 66.2L226 61C224.2 58 223 54.5 223 52.5C223 49.2 223.2 49 226.4 49C228.6 49 231.5 50.1 234.4 52C238 54.5 251 61 252.2 61C252.4 61 252.3 58.5 252.2 55.5L251.8 50H255.1C257.3 50 259.9 51.2 263.4 53.9C280.7 67.3 316 84.8 343 93.5C356.3 97.8 369.4 106 372.6 112.1C374.6 116.1 374.4 124.8 372.1 129.3L370.3 132.9L373.4 133.9C375.1 134.5 381.2 136.1 387 137.6C392.8 139 398.6 140.8 400 141.5C401.4 142.2 407.9 143 415 143.3C421.9 143.5 428.9 144.3 430.5 145C432.2 145.7 438 147.2 443.5 148.5C455.5 151.3 458.2 152.3 460.7 154.8C463.1 157.3 466.2 158 479.2 159C496.3 160.2 502 164.2 502 174.7C501.9 180.2 498.8 186.2 492.9 192.5C489 196.7 487 198 484.9 198C482.3 198 482 198.4 482 201C482 209.6 470.6 221.7 461 223.5C458.1 224 457 225 455 228.6C452.5 233.4 447.7 237.8 441.8 240.6L438.2 242.3L437.5 257.9C436.6 275.9 434.9 282.1 429.5 286.9C427.6 288.5 424.4 290.4 422.3 290.9C418.5 292 406.2 292.2 402.5 291.3V291.3ZM412.6 270.8C420.2 263.8 421.2 264.6 382 245C370.2 239 356.4 232.5 351.5 230.5C342.1 226.7 338 223.4 338 219.7C338 216.6 352.2 203.1 360.2 198.6C368.9 193.8 371.8 193 381.5 192.9C390.6 192.9 397.2 194.4 421.9 202.5C444.5 210 452 209.9 459.5 202C461.8 199.6 462.5 197.9 462.8 193.1C463.2 187.5 463.1 187.1 459.6 183.2C457.5 180.9 454.6 178.8 452.9 178.5C451.2 178.1 450.1 177.3 450.3 176.7C452.3 171.8 452.4 172 448.6 173.9C445.2 175.7 444.8 175.7 434.3 173.5C428.4 172.2 423.6 170.8 423.7 170.4C423.8 169.9 424.2 168.7 424.6 167.6C425.2 166 424.7 166.1 420.6 168.5L415.8 171.3L402.5 170L389.2 168.7L390.1 166.4C391.2 163.3 390.8 163.4 385.5 167C383.2 168.6 379.3 170.4 376.9 170.9C364.2 173.8 346.9 182.2 336.8 190.3L330.7 195.2L331.4 192C331.7 190.2 334 184.7 336.4 179.8C338.8 175 340.4 171 340.1 171C339 171 329.6 177.7 324.8 181.9C322.2 184.2 318.3 188.8 316.1 192.1C312.8 197 311.9 197.9 311.3 196.4C310.7 194.8 312.2 181.5 313.7 176.1C314.7 172.3 312.6 174.2 306.3 182.8C300.4 190.7 296.1 200.3 293.9 210.3L292.6 216.1L290.8 212.3C288 206.8 286 198.3 286 192.6C286 188.1 285.9 187.8 284.7 189.5C280.9 195.1 277.7 212.1 278.6 221.5L279.2 227.5L264.9 227.6C251.1 227.6 231.7 230.1 230.5 231.9C230.3 232.4 233.8 233 238.3 233.3C246.8 233.9 262 236.9 262 237.9C262 238.3 257.3 240 251.6 241.9C241.6 245.1 222.3 253.6 223.1 254.4C223.3 254.7 226.1 254.2 229.3 253.5C232.5 252.8 238.2 251.8 241.8 251.5C245.5 251.1 250 250.7 251.7 250.5C256.4 250 261.8 251.8 263.1 254.2C263.8 255.4 264 258.5 263.7 261.5L263.2 266.7L272.2 264.4C285.7 261 295.6 259.8 316 259.3C342.2 258.6 360.6 261.3 383.5 269.2C388.5 270.9 393.9 272.9 395.5 273.6C397.2 274.3 400.6 274.9 403.3 275C407.5 275 408.6 274.5 412.6 270.8V270.8ZM433 251.1V244.2L426.7 247.3L420.4 250.5L425 252.9C427.5 254.2 429.9 255.9 430.3 256.6C432 259.6 433 257.7 433 251.1ZM417.7 248.6C417.4 247.8 416.6 245.3 416 243.1C415.4 240.8 414.5 239 413.9 239C413.4 239 410.4 240.4 407.3 242.2C401.1 245.7 401 245.7 411 248.5C417.1 250.3 418.3 250.3 417.7 248.6V248.6ZM400.7 243.8C400.5 243.1 399.7 240.1 399 237.3C398.2 234.4 397.1 232 396.6 232C396 232 392.9 233.5 389.7 235.3L383.9 238.6L387.7 240.2C399.2 245.1 401.5 245.7 400.7 243.8V243.8ZM430.8 238.1C432.1 237 433.5 234.7 434 233L434.9 230H429.9H425V225V220.1L420.8 222C418.4 223.1 414.6 224 412.3 224H408V218.5C408 215.4 407.6 213 407 213C406.4 213 403.7 214.1 401 215.5C397.9 217.1 394.4 218 391.5 218H387V214V209.9L381.4 214.1C376.5 217.7 375.3 218.1 371.4 217.8C367.2 217.5 367 217.6 367 220.1V222.8L372 221.3C380.1 219 382.1 219.7 384.3 225.5C385.3 228.2 386.3 230.6 386.5 230.8C386.7 231 388.6 230.2 390.7 229C393.2 227.7 395.9 227 398 227.2C401 227.5 401.5 228 402.8 232C403.6 234.5 404.4 236.6 404.5 236.8C404.7 237 406.2 236.4 407.9 235.6C409.5 234.7 412.7 234 414.9 234C418.7 234 419 234.2 419.9 237.8C420.5 239.8 421 242.1 421 242.8C421 244.2 427 241.4 430.8 238.1V238.1ZM381.9 234.3C380.5 228.9 378.9 225 378.1 225C376.3 225 365 229.3 365 230C365 230.8 379.1 237.3 382.2 237.9C382.5 237.9 382.4 236.3 381.9 234.3V234.3ZM449.9 226.6C452.9 221.9 452.6 221.2 447.5 220.8C444 220.6 443 220.8 443 222C443 222.8 442.1 226 441 229C439.9 232 439 234.8 439 235.3C439 236.9 447.9 229.9 449.9 226.6ZM362.4 227.4C362.7 226.5 363 224.1 363 222V218.1L359.3 219.4C357.2 220.2 354.2 221.3 352.5 222L349.5 223.2L355 226C361.5 229.4 361.6 229.5 362.4 227.4ZM433.3 224.2C437.7 221.8 441.5 219.1 440.9 218.7C439.5 217.4 431.1 213 430.3 213C429.6 213 429.2 215.5 429.3 219.5C429.4 223.1 429.6 226 429.8 226C429.9 226 431.5 225.2 433.3 224.2ZM420.7 215.8C424.7 214 428 212.2 428 211.9C428 211.2 427.6 211 418.3 207.4L412 205V212C412 215.9 412.3 219 412.8 219C413.2 219 416.8 217.5 420.7 215.8ZM366.2 211.5C366 210.1 365.5 209 365.1 209C364.7 209 362.9 210.1 361 211.5L357.6 214H362.2C366.5 214 366.7 213.9 366.2 211.5ZM381.5 207.2C385.4 204.2 388.7 201.4 388.8 200.9C389.3 199.7 384 199.8 376.3 201.1C369.3 202.3 369 202.9 371.1 210.3C372.3 214.6 371.7 214.7 381.5 207.2V207.2ZM398 211.5C398.8 210.8 402 209 405 207.4L410.5 204.6L406.1 203.3C403.6 202.6 399.5 201.7 396.8 201.4L392 200.7V207.3C392 213.6 392.1 213.8 394.3 213.3C395.5 213 397.2 212.2 398 211.5V211.5ZM231 194C234 191.9 239.2 187.7 242.6 184.6L248.7 179.1L250 181.8C250.7 183.3 251.5 187.8 251.8 191.8L252.3 199.1L254.5 195.2C257.9 189.3 259.4 181.6 259.3 171.3C259.2 166.2 259.6 162 260 162C262.6 162 270 174.7 270 179.1C270 180.1 270.5 181 271 181C272.3 181 272.3 169.9 270.9 162.5C270.3 159.3 268.4 153.7 266.7 150.1C263.6 143.4 259.1 136.6 258.3 137.4C258.1 137.6 257.2 140.8 256.5 144.4C255.7 148 254.5 152.4 253.7 154.2C248.7 165.5 247.3 168.2 243.1 174.5C240.6 178.3 234.1 185.9 228.7 191.3C218.6 201.4 219.1 202.1 231 194V194ZM346.2 147.4C354.3 145.4 357 143.2 357 138.5C357 136 356.4 134.8 354.8 133.9C353 133 352.5 133 352.2 134C351 137.5 347.1 140 342.8 140C335.8 140 331 135.9 331 130.1C331 127.4 330.7 126.9 330 128C328.1 131 329 134.2 332.9 138.1C336.4 141.6 337.3 142 341.8 142C346.4 142 347.3 141.6 350.5 138.3C354.2 134.5 356.9 134.7 355.6 138.8C354.7 141.6 345.2 144.9 337.8 145C333.9 145 329.4 140.8 328.2 135.8C325.9 126.9 317.3 117.4 309.7 115.4C302.8 113.7 308.3 112.4 326.1 111.4C335.4 110.8 338.6 111 343.5 112.5C350.8 114.6 354.8 117.3 355.7 120.8C356.6 124.7 360 130 361.5 130C364.5 130 367.4 126.3 367.3 122.7C367.1 115.7 360.7 110.1 349.3 106.7C343 104.8 304.9 103.5 291.5 104.7L282.5 105.5L289.5 108.9C299.5 113.7 304.3 118 307.9 125.2C310.3 129.9 311 132.7 311 137C311 141.8 311.4 143 313.8 145.2C315.5 146.9 317.9 148 320.5 148.3C330.1 149.2 340 148.9 346.2 147.4V147.4ZM232.8 139C223.8 131 208.3 110 209.7 107.7C210 107.2 211.9 108.4 213.9 110.3C218.4 114.6 225.8 119.2 233 122L238.5 124.2L229.9 115.8C218.4 104.7 210.2 92.5 217.8 97.8C221.9 100.7 229 104 233.5 105L237.4 105.9L234 103.2C223.6 95.1 211 82 203.5 71.5C201.1 68.2 196.8 60.8 193.8 55C190.4 48.1 188.4 45.2 188.2 46.4C187.6 49.1 189.8 69 191.6 77.4C196 99.2 206.3 119.5 218.7 131.2C222.1 134.5 236.1 143.9 237.5 144C238.1 144 236 141.7 232.8 139V139ZM344.8 133.8C344.3 132.5 337.2 128.5 336.5 129.2C335.4 130.2 337.3 133.1 339.8 134.4C342.5 135.8 345.3 135.5 344.8 133.8Z" fill="#00223E"/>
<path d="M399.5 295C396.2 294 391.4 292.3 388.8 291.2C378 286.4 357.9 280.8 341 277.8C318.5 273.9 282.8 274.2 261.2 278.7C257.1 279.5 253.7 280 253.5 279.8C253.2 279.6 253.7 277.3 254.5 274.7C255.5 271.2 255.7 269.2 254.9 267.2C253.6 263.7 252.3 263 247.3 263C240.1 263 224.5 272.4 206 288C200.8 292.3 196.2 296 195.9 296C195.6 296 193.2 290.9 190.5 284.8C185.4 273 171 243.5 164.5 231.5C115.4 141.2 59.1 82.9 1.59995 62.6C0.599952 62.3 -0.100046 61.7 0.199954 61.5C0.499954 61.2 24.5 60.5 53.6 60C98.9 59.2 140.5 59.7 166.5 61.3C170 61.5 169.8 62.3 173 37.5C175.3 20.2 179 0 179.9 0C180.2 0 181.8 2.6 183.5 5.7C193.5 24.8 211.5 49.5 214.6 48.3C215.3 48.1 216.7 45.5 217.6 42.7C218.5 39.8 219.4 37.4 219.5 37.2C219.7 37 222 38.5 224.7 40.4C230.7 44.7 239.7 49 242.8 49C244.7 49 245 48.5 245 45C245 42.8 245.2 41 245.4 41C245.7 41 251.4 44.4 258.2 48.6C287.6 66.9 319.5 82.3 344 90.2C362.8 96.2 368.4 98.8 373.8 104.2C379.3 109.6 381.5 115.4 380.5 122.3C379 133 378.5 132.2 387.5 133.5C391.9 134.2 397.1 135.4 399 136.2C400.9 137.1 406.9 138.3 412.3 138.9C417.7 139.5 424.3 140.9 426.8 141.9C429.4 143 434.4 144.1 438 144.5C448.3 145.4 454.9 147.7 458.9 151.7C462.3 155.1 462.7 155.2 474.9 156.7C494 159 501.3 160.7 505.9 164C514.1 169.9 512.3 176.9 498.9 191.7C494.3 196.7 487.1 204.7 483 209.5C478.9 214.2 472.3 220.8 468.5 224.1C464.6 227.4 459.5 232.3 457.1 235.1C454.7 237.9 451.1 241.2 449 242.6C445.6 244.9 445.1 245.8 444.5 250.3C444.1 253.2 443.4 257.3 442.8 259.5C442.2 261.7 441.8 267.2 441.9 271.7C442.1 278.3 441.7 280.6 440 284C437.3 289.2 433.7 292.7 428.5 295.1C423.1 297.6 407.9 297.6 399.5 295V295ZM419.3 287.9C427.8 285.6 434.2 275.4 433.9 264.6C433.8 261.8 434.1 255 434.5 249.5L435.3 239.5L432.9 241.7C431.6 242.9 428 245 425 246.4C418.8 249.3 419.1 249.5 417 241.3C416.4 238.9 415.4 237 414.7 237C414 237 411.1 238.4 408.1 240C405.1 241.7 402.6 243 402.4 243C402.2 243 401.3 240.3 400.4 237C399.5 233.7 398.4 230.8 398 230.5C397.7 230.3 394.4 231.6 390.7 233.4L384.1 236.8L382 230.4C380.8 226.9 379.5 223.8 379.1 223.6C378.7 223.3 375.3 224.2 371.4 225.6C367.6 226.9 364.4 228 364.3 228C364.1 228 364 225.5 364 222.5C364 216 363.7 215.9 354.8 219.5C351.4 220.9 348.5 222 348.3 222C348.1 222 348 221 348 219.8C348 216.9 356.5 208.8 362.9 205.6L367.9 203L369.1 208.6C369.8 211.7 370.9 214.4 371.6 214.7C372.6 215.1 381.7 209.1 389.9 202.7C391 201.8 391.1 202.7 390.5 208.3C389.6 216.5 389.9 216.6 401.1 210.9C405.6 208.7 409.5 207.1 409.8 207.5C410.1 207.8 410.6 211 410.8 214.5C411.1 218.5 411.7 221 412.4 221C413 221 416.8 219.4 420.8 217.5L428 214.1V220.5C428 226.2 428.2 227 429.9 227C430.9 227 432.8 226.2 434.1 225.3C437.8 222.6 441.1 220.8 441.6 221.3C441.9 221.6 441.2 224.4 440 227.6C438.9 230.9 437.5 234.7 437 236.2L436.1 239L439.3 237.4C445 234.4 449.6 230.2 452 225.6C454 222 455.1 221 458 220.5C468.3 218.6 479 206.5 479 196.8C479 192.5 475.2 185 473 185C472.4 185 472 184.5 472 183.9C472 182.5 476.5 183.5 479.7 185.5C480.8 186.3 482.4 188.8 483.2 191.1L484.6 195.2L490.2 189.2C500.7 177.8 501.2 169.7 491.5 165C488.1 163.4 484 162.5 476.2 162C463.2 161 460.1 160.3 457.7 157.8C455.4 155.4 452.7 154.4 442.6 152C436.8 150.6 434.3 150.4 433.3 151.2C432.4 152 432 151.9 432 151.1C432 148.3 424.7 146.6 411.8 146.6C404.7 146.5 399 146.2 399 145.9C399 144.8 394.2 143.1 382 140C364.2 135.5 364.2 135.5 368.5 127.4C372.5 119.9 371.5 115.2 364.5 109.1C360.3 105.4 347.9 99.1 340 96.5C312.2 87.5 276 69.3 257.8 55C254.3 52.3 254.1 53.7 257 61.2C258.1 64.1 259 66.6 259 66.7C259 66.8 256.6 66.2 253.8 65.3C246.6 63.2 236.9 58.7 231.3 55C228.8 53.3 226.6 52.1 226.3 52.3C225.2 53.5 237.3 71.2 244.8 79.2C247.3 81.9 249 84 248.6 84C247.3 84 235 76.1 227.7 70.6C211.8 58.6 194.2 37.2 186.1 19.9L182.3 11.8L180.2 25.2C179 32.5 177.5 45.3 176.8 53.5C176.2 61.8 175.6 68.6 175.5 68.8C175.3 68.9 169.2 68.6 161.9 68C147.2 66.8 58.1 66.7 43.5 67.8L34.5 68.5L40.6 71.7C49 76.1 62.9 85.5 73.2 93.9L81.9 101H103.2C114.9 101 128.8 101.5 134 102C139.2 102.5 144.6 103 146 103.1C147.4 103.1 143.1 104.1 136.5 105.1C126.6 106.7 98.5 113.4 97.1 114.6C96.9 114.7 101 119.5 106.1 125.2C111.2 130.9 119.4 140.6 124.3 146.8C129.2 152.9 133.8 158 134.4 158C135.1 158 139.6 157.1 144.5 156.1C153.2 154.2 182.9 150.6 183.7 151.3C183.9 151.5 180.3 152.9 175.8 154.4C169.1 156.6 142.6 167.5 141.1 168.6C141 168.7 143.5 172.8 146.8 177.7C150.1 182.5 154.4 189.1 156.4 192.3C159.5 197.2 160.5 198.1 162.3 197.7C171.8 195.3 207.7 190.4 208.6 191.3C208.8 191.5 206.4 192.7 203.2 194C196.8 196.6 168 210.8 168 211.4C168 211.6 170.3 215.7 173.1 220.5C175.9 225.4 179.5 231.9 181.1 235.1L184 240.9L187.4 239.5C194.1 236.7 204 233.1 204 233.5C204 233.7 200.4 236.4 196 239.5C191.6 242.6 187.8 245.5 187.5 246C187 246.9 194.5 263 195.5 263C195.7 263 197.8 262.3 200 261.4C205.5 259.2 205.9 260.1 201 263.5C198.8 265 197 266.7 197 267.1C197 267.8 198.1 270.4 202.6 279.8C202.7 280 206.5 277.6 211.1 274.5C220.4 268.2 252.2 252 255.1 252C258.4 252 262 254.3 262.6 256.7C263 258 262.7 261.1 262 263.6C261.3 266 260.9 268.2 261.1 268.4C261.3 268.6 266.7 268.2 273 267.4C312.6 262.7 359.4 269 393.4 283.5C399 285.8 404.4 288 405.5 288.3C409.1 289.2 415.4 289 419.3 287.9V287.9Z" fill="#EC7E01"/>
<path d="M337.5 137.8C332.2 134.9 330.7 129.9 333.9 125.9C335.6 123.8 336.1 123.7 338.5 124.8C342.6 126.7 351 132.4 351 133.3C351 133.7 349.9 135.2 348.5 136.5C345.9 139.2 341 139.8 337.5 137.8Z" fill="#EC7E01"/>
<path d="M461.9 147.4C458.9 143.8 450.3 140.9 437 139.1C433.4 138.6 428 137.3 425 136.2C422 135.1 415.7 133.7 411 133.1C406.3 132.6 398.7 131.1 394 129.8L385.4 127.5L385.8 121.2C386.4 112.4 382.2 103.9 374.4 97.8C371.5 95.4 369 93.2 369 92.9C369 91.5 382.3 89 389.2 89C406.8 89.1 424.2 96.2 445.5 112.1C460.6 123.3 460.1 122.4 463.5 144.8C464.2 149.4 463.9 149.8 461.9 147.4V147.4Z" fill="#EC7E01"/>
<path d="M445.6 101.4C431 89.8002 406.3 81.0002 388.1 81.0002C379.3 81.0002 371.7 82.7002 363.5 86.6002C358.2 89.1002 357.5 89.2002 352.7 88.1002C347 86.8002 318.2 75.6002 315.7 73.7002C314.2 72.6002 315 71.7002 322.6 65.5002C339.4 51.7002 352.2 44.0002 371.8 35.6002C385.4 29.8002 386.1 29.8002 396.5 36.8002C416.4 50.3002 432.5 67.7002 444.8 88.7002C449.4 96.6002 454.2 107 453.2 107C452.8 106.9 449.4 104.4 445.6 101.4V101.4Z" fill="#EC7E01"/>
<path d="M295 63.8004C289.8 61.0004 283.7 57.7004 281.5 56.4004L277.5 54.1004V46.7004C277.4 37.7004 274.3 30.6004 267.6 24.0004C265.1 21.6004 263.3 19.3004 263.6 18.9004C264.3 17.7004 284.9 13.2004 295.4 11.9004C312.1 9.90035 335.8 11.8004 353 16.7004C358.5 18.2004 374.1 23.9004 375 24.7004C375.8 25.4004 372.8 26.9004 366 29.1004C352.6 33.6004 338.7 41.9004 320.7 56.3004C314.8 61.0004 308.7 65.8004 307.2 66.8004L304.5 68.8004L295 63.8004V63.8004Z" fill="#EC7E01"/>
<path d="M256.4 41.4C250 37.3 244 34.1 243.1 34.2C242.2 34.4 241.2 36.2 240.7 38.5C240.1 40.7 239.6 42.7 239.4 42.9C239 43.4 228 36.8 228 36C228 34.8 250.9 23 253.3 23C255.3 23 262.7 29.6 266 34.5C269.1 39 271 47.2 269.2 48.4C268.7 48.7 262.9 45.6 256.4 41.4V41.4Z" fill="#EC7E01"/>
</svg>
